<svg width="2509" height="730" viewBox="0 0 2509 730" fill="none" xmlns="http://www.w3.org/2000/svg">
<path d="M1304.68 32.3937C1258.26 46.9937 1220.63 61.5937 1221.88 64.3312C1222.51 67.0687 1231.29 75.2812 1241.33 82.5812C1251.36 89.4249 1260.77 101.744 1263.28 109.956C1265.16 117.712 1267.05 258.694 1267.05 423.4V722.244L1280.22 709.925C1295.9 695.325 1315.97 694.869 1347.33 708.556C1386.85 726.35 1404.41 730 1445.81 730C1558.72 730 1646.53 666.581 1687.93 553.887C1699.22 524.231 1701.73 504.156 1702.36 438C1702.36 368.194 1701.1 353.594 1688.56 322.569C1664.1 260.519 1625.83 217.631 1580.67 200.75C1535.51 183.869 1454.59 192.081 1416.33 217.631C1405.67 224.475 1405.04 219.912 1405.04 114.975C1405.04 29.6562 1403.16 4.56243 1397.51 5.01868C1393.12 5.01868 1351.1 17.3374 1304.68 32.3937ZM1478.43 268.731C1502.26 279.681 1525.47 307.512 1541.15 344.469C1557.46 384.162 1557.46 536.094 1540.53 579.437C1518.57 636.925 1472.78 678.444 1435.78 674.337C1406.3 671.6 1405.04 662.931 1405.04 459.9C1405.04 283.331 1405.67 269.187 1416.33 265.081C1433.27 257.781 1456.48 259.15 1478.43 268.731Z" fill="var(--icon)"/>
<path d="M6.27344 33.7624C6.27344 36.9561 13.8004 43.3436 22.5819 47.9061C56.4534 63.8749 56.4534 62.0499 56.4534 375.037C56.4534 648.331 55.8262 664.756 44.5357 683.006C37.6359 693.5 26.3454 703.994 19.4457 707.187C11.9187 709.925 6.27344 714.031 6.27344 716.312C6.27344 721.787 261.564 722.7 265.955 717.225C267.837 714.944 260.937 709.012 251.528 703.537C217.657 685.287 213.266 665.212 213.266 521.494V392.375H277.873C312.999 392.375 344.988 394.2 348.752 396.025C361.924 401.956 382.623 431.156 382.623 443.475C382.623 450.775 385.76 456.25 388.896 456.25C392.659 456.25 395.168 418.381 395.168 351.312C395.168 284.244 392.659 246.375 388.896 246.375C385.76 246.375 382.623 251.394 382.623 257.781C382.623 272.837 361.297 303.862 348.125 307.512C342.479 308.881 309.862 310.25 275.364 310.25H213.266V203.031V95.8124H313.626C457.266 95.8124 484.238 106.762 518.109 179.762C525.636 197.1 526.264 193.45 523.127 141.437C521.246 109.956 517.482 72.0874 515.6 57.0311L511.21 29.6561L259.055 28.2874C45.7902 27.3749 6.27344 28.2874 6.27344 33.7624Z" fill="var(--icon)"/>
<path d="M2277.55 193.45C2199.14 213.981 2152.1 294.281 2169.03 378.231C2176.56 417.925 2197.26 452.144 2223.6 469.938C2233.01 476.325 2267.51 494.575 2300.75 511C2373.52 546.588 2389.82 562.1 2389.82 595.863C2389.82 640.119 2364.73 662.931 2316.44 662.931C2254.96 662.931 2199.77 615.481 2175.93 542.938C2171.54 529.25 2165.9 516.019 2162.76 513.738C2160.25 511 2157.74 557.994 2157.74 617.763V726.35L2174.05 712.206C2192.87 695.781 2202.9 694.869 2240.54 707.188C2256.22 712.206 2286.33 719.506 2307.65 723.156C2342.15 730 2349.68 730 2379.16 723.613C2459.45 706.731 2508.37 640.119 2509 548.869C2509 503.7 2491.44 460.813 2463.84 436.175C2453.18 427.05 2429.34 411.538 2409.27 401.956C2328.35 362.263 2315.18 354.963 2296.36 339.906C2273.78 320.744 2267.51 307.056 2273.16 283.788C2280.68 248.656 2317.69 230.863 2364.11 240.9C2396.1 248.2 2441.89 284.244 2456.31 314.356C2462.58 327.131 2470.11 337.625 2472.62 337.625C2475.76 337.625 2477.64 304.319 2477.64 263.256C2477.01 210.788 2475.13 191.625 2470.74 197.1C2462.58 207.594 2440 207.594 2391.08 196.188C2346.54 186.15 2308.91 185.238 2277.55 193.45Z" fill="var(--icon)"/>
<path d="M580.206 204.4C508.7 229.493 447.856 295.65 423.394 374.125C410.221 417.468 409.594 501.875 422.766 546.587C461.656 681.637 597.142 760.112 718.828 719.05C822.952 683.918 890.695 583.543 890.695 464.462C890.695 380.512 868.741 323.025 814.798 264.168C772.145 218.087 723.846 195.731 658.612 192.993C623.486 191.168 612.823 192.993 580.206 204.4ZM680.566 249.112C711.929 271.925 725.101 303.862 734.51 376.406C743.291 440.737 737.646 558.45 724.474 603.618C695.62 703.993 612.196 709.012 581.461 612.743C567.034 568.031 563.898 540.2 563.898 458.531C563.898 314.356 592.751 241.812 649.204 241.812C661.121 241.812 674.921 245.006 680.566 249.112Z" fill="var(--icon)"/>
<path d="M970.984 219.913C917.668 237.25 884.424 250.481 884.424 254.588C884.424 258.238 891.324 265.081 900.105 270.1C908.259 274.663 918.295 286.525 922.059 295.65C930.84 319.375 930.213 630.994 921.432 662.475C915.786 679.813 908.259 690.763 893.205 701.256C881.288 709.013 871.879 716.769 871.879 718.138C871.879 719.506 928.331 720.875 997.329 720.875C1066.33 720.875 1122.78 719.05 1122.78 716.769C1122.78 714.488 1115.88 709.469 1107.1 705.363C1098.94 701.256 1086.4 691.219 1080.75 683.006C1070.72 669.775 1069.46 650.156 1067.58 486.819C1066.33 352.225 1067.58 303.406 1073.23 298.388C1086.4 286.981 1103.33 291.088 1112.74 307.969C1135.95 348.119 1187.39 360.438 1219.38 333.063C1263.91 294.738 1251.37 217.631 1198.05 197.1C1164.8 184.781 1119.02 199.381 1084.52 234.056L1066.33 252.306V222.194C1066.33 205.313 1064.44 191.625 1061.94 192.081C1058.8 192.081 1018.03 204.856 970.984 219.913Z" fill="var(--icon)"/>
<path d="M1882.38 199.381C1824.04 214.437 1765.71 275.575 1741.25 345.381C1719.29 407.887 1719.29 514.65 1740.62 577.156C1781.39 693.5 1893.04 756.006 1994.03 719.05C2027.9 706.275 2068.04 673.881 2091.25 640.575C2120.73 597.231 2148.33 515.562 2133.28 515.562C2129.51 515.562 2126.38 518.3 2126.38 521.037C2126.38 529.25 2096.9 573.962 2087.49 580.806C2083.1 584 2070.55 591.3 2059.26 596.775C2017.24 618.218 1952.63 603.618 1914.99 563.468C1890.53 537.918 1881.75 518.756 1877.36 477.693L1873.6 447.125H2007.2H2140.8L2137.04 406.975C2128.89 310.25 2076.82 229.037 2005.32 202.118C1977.09 191.625 1915.62 190.256 1882.38 199.381ZM1960.78 244.093C1978.35 263.256 1989.01 297.475 1992.77 345.381L1996.54 392.375H1931.93H1867.32L1871.71 343.1C1876.73 287.437 1884.26 263.256 1901.82 245.462C1918.13 228.581 1946.36 228.125 1960.78 244.093Z" fill="var(--icon)"/>
</svg>
