<svg width="1614" height="549" viewBox="0 0 1614 549" fill="none" xmlns="http://www.w3.org/2000/svg">
<path d="M563.999 97.1C540.699 100.1 512.699 110.4 492.499 123.5C480.199 131.4 471.299 138.9 459.799 150.8C409.599 203.1 397.099 280.6 427.999 347.5C435.899 364.7 451.999 387.2 465.699 400.1C507.099 439.2 563.299 455.8 620.499 446C655.099 440.1 685.799 424.4 709.499 400.6C718.099 391.9 727.999 380.4 727.999 379.1C727.999 378.6 720.699 372.7 711.799 366C702.799 359.2 692.799 351.5 689.399 348.9L683.299 344.1L676.599 351.5C669.699 359.2 657.399 369.3 648.499 374.6C638.699 380.5 630.299 383.9 616.999 387.6C605.199 390.8 583.299 392 571.299 390C523.099 382.3 488.399 348.2 477.399 298C475.899 291.3 475.499 285.6 475.599 270.5C475.699 252.7 475.899 250.8 478.699 240C489.499 199.3 516.499 168.8 552.799 156.5C566.399 151.9 575.299 150.6 591.999 150.6C615.199 150.6 629.299 153.7 649.299 163.2L659.999 168.4V197.7V227H688.999H717.999V184.2V141.5L706.199 132.7C674.499 109 631.899 95.8 587.999 96.1C578.399 96.2 567.599 96.6 563.999 97.1Z" fill="var(--icon)"/>
<path d="M23 132.5V161H52.3H81.6L85.7 172.7C89.5 183.7 124.2 280.4 165.4 395.4C175.1 422.3 183 444.5 183 444.7C183 444.9 195.3 445 210.4 445C235.6 445 237.8 444.9 238.5 443.2C241.8 434.9 307.9 258 340.5 170.5L343.8 161.5L371.4 161.2L399 161V132.5V104L349.3 104.2L299.5 104.5L298.3 108C297.1 111.6 283.9 149.9 266.1 201.5C243.8 266.4 235.4 290.9 225.9 318.5C220.4 334.4 215.5 348.6 214.9 350C213.5 353 215.4 357.7 198 307C186.7 274 180 254.5 157.5 189C154.6 180.5 147 158.3 140.6 139.7C134.3 121.2 128.8 105.5 128.5 105C128.1 104.4 108.8 104 75.4 104H23V132.5Z" fill="var(--icon)"/>
<path d="M1088.7 109.6C1071.4 112.3 1051.7 120.3 1037.1 130.7C1024.6 139.7 1009.5 155.8 1001.6 168.5L998.5 173.5L997.9 169C997.5 166.5 996.7 154.1 996.1 141.5C995.5 128.8 994.7 116.4 994.4 113.7L993.8 109H941.4H889V135V161H917H945V274.5V388H917H889V416V444H1018H1147V416.5V389H1075.5H1003.9L1004.2 317.2L1004.6 245.5L1007.4 236.1C1013.1 216.6 1022.1 201 1034.9 188C1051 171.8 1069.4 163 1092.7 160.5L1099 159.8L1098.3 185.4L1097.7 211H1126.3H1155V159.5V108L1126.3 108.1C1107.4 108.2 1094.5 108.7 1088.7 109.6Z" fill="var(--icon)"/>
<path d="M1218 137.5V166H1243.5H1268.9L1269.3 255.7C1269.6 343.2 1269.7 345.8 1271.8 355.4C1282.1 402.8 1307.2 433.2 1347 446.4C1362.8 451.7 1375.1 453.3 1394.5 452.7C1407.6 452.3 1412.3 451.7 1420.4 449.6C1448.4 442.1 1470.8 424.7 1487.5 397.6L1492.4 389.7L1496.4 416.8L1500.5 444H1546.2H1592V416V388H1570.1H1548.2L1547.6 377.2C1547.3 371.3 1546.8 308.6 1546.4 237.7L1545.8 109H1486.4H1427V137.5V166H1456H1485.1L1484.8 242.2C1484.5 318.3 1484.5 318.5 1482.2 326.5C1480.9 330.9 1478.2 338.4 1476.1 343.1C1464.6 369.4 1441.8 389.3 1415 396.6C1406 399 1386.8 399 1378 396.6C1352.3 389.6 1337.5 370.5 1331.3 336.6C1329.8 328.6 1329.6 314.3 1329.3 218.2L1328.9 109H1273.4H1218V137.5Z" fill="var(--icon)"/>
<path d="M772 415.5V445H802H832L831.8 415.7L831.5 386.5L801.8 386.2L772 386V415.5Z" fill="var(--icon)"/>
</svg>
