<svg xmlns="http://www.w3.org/2000/svg" width="24" height="20" viewBox="0 0 24 20" fill="none">
  <path d="M0 20V14.7368C0 13.1384 0.283272 11.4425 0.849817 9.64912C1.4359 7.83626 2.27595 6.09162 3.36996 4.41521C4.48352 2.7193 5.82173 1.24756 7.38461 0L10.2564 2.48538C8.77167 4.20078 7.52137 6.11111 6.50549 8.21637C5.50916 10.3021 5.01099 12.4464 5.01099 14.6491V20H0ZM13.7436 20V14.7368C13.7436 13.1384 14.0269 11.4425 14.5934 9.64912C15.1795 7.83626 16.0195 6.09162 17.1136 4.41521C18.2271 2.7193 19.5653 1.24756 21.1282 0L24 2.48538C22.5153 4.20078 21.265 6.11111 20.2491 8.21637C19.2527 10.3021 18.7546 12.4464 18.7546 14.6491V20H13.7436Z" fill="#5348D1"/>
</svg>