<svg xmlns="http://www.w3.org/2000/svg" width="28" height="28" viewBox="0 0 28 28" fill="none">
  <path d="M12.834 19.8333H15.1673V12.8333H12.834V19.8333ZM14.0007 10.4999C14.3312 10.4999 14.6083 10.3881 14.8319 10.1645C15.0555 9.94089 15.1673 9.66381 15.1673 9.33325C15.1673 9.0027 15.0555 8.72561 14.8319 8.502C14.6083 8.27839 14.3312 8.16658 14.0007 8.16658C13.6701 8.16658 13.393 8.27839 13.1694 8.502C12.9458 8.72561 12.834 9.0027 12.834 9.33325C12.834 9.66381 12.9458 9.94089 13.1694 10.1645C13.393 10.3881 13.6701 10.4999 14.0007 10.4999ZM14.0007 25.6666C12.3868 25.6666 10.8701 25.3603 9.45065 24.7478C8.03121 24.1353 6.79648 23.3041 5.74648 22.2541C4.69648 21.2041 3.86523 19.9694 3.25273 18.5499C2.64023 17.1305 2.33398 15.6138 2.33398 13.9999C2.33398 12.386 2.64023 10.8694 3.25273 9.44992C3.86523 8.03047 4.69648 6.79575 5.74648 5.74575C6.79648 4.69575 8.03121 3.8645 9.45065 3.252C10.8701 2.6395 12.3868 2.33325 14.0007 2.33325C15.6145 2.33325 17.1312 2.6395 18.5506 3.252C19.9701 3.8645 21.2048 4.69575 22.2548 5.74575C23.3048 6.79575 24.1361 8.03047 24.7486 9.44992C25.3611 10.8694 25.6673 12.386 25.6673 13.9999C25.6673 15.6138 25.3611 17.1305 24.7486 18.5499C24.1361 19.9694 23.3048 21.2041 22.2548 22.2541C21.2048 23.3041 19.9701 24.1353 18.5506 24.7478C17.1312 25.3603 15.6145 25.6666 14.0007 25.6666Z" fill="#D21722"/>
</svg>