<svg xmlns="http://www.w3.org/2000/svg" width="28" height="28" viewBox="0 0 28 28" fill="none">
  <path d="M12.8333 19.8337H15.1666V12.8337H12.8333V19.8337ZM13.9999 10.5004C14.3305 10.5004 14.6076 10.3886 14.8312 10.165C15.0548 9.94138 15.1666 9.6643 15.1666 9.33374C15.1666 9.00318 15.0548 8.7261 14.8312 8.50249C14.6076 8.27888 14.3305 8.16707 13.9999 8.16707C13.6694 8.16707 13.3923 8.27888 13.1687 8.50249C12.9451 8.7261 12.8333 9.00318 12.8333 9.33374C12.8333 9.6643 12.9451 9.94138 13.1687 10.165C13.3923 10.3886 13.6694 10.5004 13.9999 10.5004ZM13.9999 25.6671C12.386 25.6671 10.8694 25.3608 9.44992 24.7483C8.03047 24.1358 6.79575 23.3046 5.74575 22.2546C4.69575 21.2046 3.8645 19.9699 3.252 18.5504C2.6395 17.131 2.33325 15.6143 2.33325 14.0004C2.33325 12.3865 2.6395 10.8699 3.252 9.45041C3.8645 8.03096 4.69575 6.79624 5.74575 5.74624C6.79575 4.69624 8.03047 3.86499 9.44992 3.25249C10.8694 2.63999 12.386 2.33374 13.9999 2.33374C15.6138 2.33374 17.1305 2.63999 18.5499 3.25249C19.9694 3.86499 21.2041 4.69624 22.2541 5.74624C23.3041 6.79624 24.1353 8.03096 24.7478 9.45041C25.3603 10.8699 25.6666 12.3865 25.6666 14.0004C25.6666 15.6143 25.3603 17.131 24.7478 18.5504C24.1353 19.9699 23.3041 21.2046 22.2541 22.2546C21.2041 23.3046 19.9694 24.1358 18.5499 24.7483C17.1305 25.3608 15.6138 25.6671 13.9999 25.6671Z" fill="#5348D1"/>
</svg>