<svg width="349" height="82" viewBox="0 0 349 82" fill="none" xmlns="http://www.w3.org/2000/svg">
<path d="M31.3472 69.3881V32.612H36.546V69.3881H31.3472ZM47.4416 69.3881V32.612H51.7047L75.7752 62.8209H73.5397V32.612H78.7385V69.3881H74.4755L50.405 39.1791H52.6405V69.3881H47.4416ZM96.8574 69.3881V37.1827H84.3802V32.612H114.481V37.1827H102.004V69.3881H96.8574ZM124.874 48.4782H143.589V52.9439H124.874V48.4782ZM125.342 64.8174H146.553V69.3881H120.143V32.612H145.825V37.1827H125.342V64.8174ZM154.971 69.3881V32.612H169.163C172.352 32.612 175.073 33.1205 177.326 34.1355C179.579 35.1516 181.312 36.6227 182.524 38.5487C183.738 40.4757 184.344 42.7695 184.344 45.4311C184.344 48.0937 183.738 50.3874 182.524 52.3135C181.312 54.2048 179.579 55.6591 177.326 56.6741C175.073 57.6901 172.352 58.1977 169.163 58.1977H157.83L160.17 55.7809V69.3881H154.971ZM179.301 69.3881L170.047 56.0436H175.61L184.968 69.3881H179.301ZM160.17 56.3063L157.83 53.732H169.007C172.335 53.732 174.848 53.0143 176.546 51.5779C178.279 50.1069 179.145 48.0579 179.145 45.4311C179.145 42.8042 178.279 40.7731 176.546 39.3367C174.848 37.9014 172.335 37.1827 169.007 37.1827H157.83L160.17 34.5558V56.3063ZM203.35 69.8084C200.577 69.8084 197.925 69.3881 195.396 68.5475C192.865 67.6723 190.873 66.5511 189.417 65.1851L191.341 61.0872C192.727 62.3134 194.494 63.3295 196.643 64.1344C198.791 64.9403 201.027 65.3427 203.35 65.3427C205.464 65.3427 207.179 65.0979 208.497 64.6072C209.813 64.1176 210.784 63.4514 211.408 62.6108C212.032 61.7355 212.344 60.7552 212.344 59.6687C212.344 58.4078 211.928 57.3928 211.096 56.6215C210.299 55.8513 209.241 55.2387 207.925 54.7827C206.642 54.2931 205.221 53.8728 203.662 53.5218C202.102 53.1719 200.525 52.7695 198.931 52.3135C197.371 51.8238 195.932 51.2102 194.616 50.4747C193.333 49.7391 192.293 48.7588 191.497 47.5326C190.699 46.2717 190.301 44.6609 190.301 42.6991C190.301 40.8078 190.785 39.0741 191.756 37.4979C192.761 35.8871 194.286 34.6084 196.331 33.6627C198.411 32.6824 201.045 32.1917 204.234 32.1917C206.347 32.1917 208.445 32.4722 210.524 33.0323C212.604 33.5934 214.406 34.3982 215.931 35.449L214.215 39.652C212.656 38.6012 211.009 37.8489 209.276 37.3928C207.543 36.9032 205.862 36.6573 204.234 36.6573C202.188 36.6573 200.507 36.92 199.191 37.4454C197.873 37.9708 196.903 38.6716 196.279 39.5469C195.69 40.4232 195.396 41.4036 195.396 42.489C195.396 43.7856 195.794 44.8185 196.591 45.5887C197.423 46.3599 198.48 46.9725 199.763 47.4275C201.079 47.8835 202.518 48.3038 204.078 48.6884C205.637 49.0393 207.197 49.4418 208.757 49.8967C210.351 50.3528 211.789 50.9475 213.072 51.683C214.388 52.4185 215.445 53.3999 216.243 54.6251C217.039 55.8513 217.439 57.4275 217.439 59.3535C217.439 61.2102 216.935 62.9439 215.931 64.5547C214.925 66.1308 213.366 67.4096 211.252 68.3899C209.172 69.3356 206.538 69.8084 203.35 69.8084ZM235.639 69.8084C232.867 69.8084 230.215 69.3881 227.684 68.5475C225.155 67.6723 223.161 66.5511 221.706 65.1851L223.629 61.0872C225.016 62.3134 226.784 63.3295 228.932 64.1344C231.081 64.9403 233.317 65.3427 235.639 65.3427C237.753 65.3427 239.469 65.0979 240.785 64.6072C242.103 64.1176 243.073 63.4514 243.697 62.6108C244.321 61.7355 244.633 60.7552 244.633 59.6687C244.633 58.4078 244.217 57.3928 243.385 56.6215C242.588 55.8513 241.531 55.2387 240.214 54.7827C238.931 54.2931 237.51 53.8728 235.95 53.5218C234.391 53.1719 232.815 52.7695 231.22 52.3135C229.66 51.8238 228.222 51.2102 226.905 50.4747C225.623 49.7391 224.583 48.7588 223.785 47.5326C222.989 46.2717 222.59 44.6609 222.59 42.6991C222.59 40.8078 223.075 39.0741 224.045 37.4979C225.051 35.8871 226.576 34.6084 228.62 33.6627C230.7 32.6824 233.334 32.1917 236.522 32.1917C238.637 32.1917 240.733 32.4722 242.813 33.0323C244.892 33.5934 246.695 34.3982 248.22 35.449L246.504 39.652C244.944 38.6012 243.298 37.8489 241.565 37.3928C239.833 36.9032 238.152 36.6573 236.522 36.6573C234.478 36.6573 232.797 36.92 231.48 37.4454C230.163 37.9708 229.192 38.6716 228.568 39.5469C227.98 40.4232 227.684 41.4036 227.684 42.489C227.684 43.7856 228.084 44.8185 228.88 45.5887C229.712 46.3599 230.769 46.9725 232.051 47.4275C233.369 47.8835 234.807 48.3038 236.366 48.6884C237.926 49.0393 239.486 49.4418 241.045 49.8967C242.64 50.3528 244.078 50.9475 245.36 51.683C246.678 52.4185 247.735 53.3999 248.532 54.6251C249.329 55.8513 249.727 57.4275 249.727 59.3535C249.727 61.2102 249.225 62.9439 248.22 64.5547C247.215 66.1308 245.656 67.4096 243.541 68.3899C241.461 69.3356 238.828 69.8084 235.639 69.8084ZM273.751 69.8084C270.978 69.8084 268.396 69.3356 266.005 68.3899C263.648 67.4442 261.604 66.1308 259.87 64.4496C258.137 62.7337 256.785 60.7373 255.815 58.4603C254.845 56.1844 254.359 53.6973 254.359 51C254.359 48.3038 254.845 45.8167 255.815 43.5397C256.785 41.2638 258.137 39.2842 259.87 37.603C261.604 35.8871 263.648 34.5558 266.005 33.6102C268.362 32.6645 270.944 32.1917 273.751 32.1917C276.524 32.1917 279.072 32.6645 281.393 33.6102C283.75 34.5212 285.795 35.8346 287.528 37.5505C289.295 39.2317 290.647 41.2113 291.583 43.4872C292.553 45.7642 293.039 48.2681 293.039 51C293.039 53.732 292.553 56.237 291.583 58.5129C290.647 60.7899 289.295 62.7863 287.528 64.5021C285.795 66.1833 283.75 67.4968 281.393 68.4424C279.072 69.3534 276.524 69.8084 273.751 69.8084ZM273.751 65.1326C275.761 65.1326 277.616 64.7827 279.314 64.0818C281.047 63.382 282.537 62.4006 283.785 61.1398C285.067 59.8442 286.055 58.3385 286.748 56.6215C287.476 54.9057 287.84 53.0322 287.84 51C287.84 48.9689 287.476 47.0955 286.748 45.3785C286.055 43.6627 285.067 42.1738 283.785 40.9129C282.537 39.6173 281.047 38.6191 279.314 37.9182C277.616 37.2184 275.761 36.8675 273.751 36.8675C271.706 36.8675 269.818 37.2184 268.084 37.9182C266.386 38.6191 264.895 39.6173 263.613 40.9129C262.331 42.1738 261.326 43.6627 260.598 45.3785C259.905 47.0955 259.558 48.9689 259.558 51C259.558 53.0322 259.905 54.9057 260.598 56.6215C261.326 58.3385 262.331 59.8442 263.613 61.1398C264.895 62.4006 266.386 63.382 268.084 64.0818C269.818 64.7827 271.706 65.1326 273.751 65.1326ZM300.984 69.3881V32.612H305.248L329.318 62.8209H327.083V32.612H332.281V69.3881H328.018L303.948 39.1791H306.183V69.3881H300.984Z" fill="white"/>
<g filter="url(#filter0_i_138_96)">
<path d="M33.9594 29.818L34.5157 26.932C35.3259 22.7294 39.1713 19.5435 43.886 19.1686C39.0938 18.4781 35.3051 15.1402 34.4306 10.8383L33.9594 8.51929L33.4881 10.8383C32.6136 15.1402 28.8249 18.4781 24.0327 19.1686C28.7479 19.5435 32.5928 22.7294 33.403 26.932L33.9594 29.818Z" fill="#A594FD"/>
</g>
<defs>
<filter id="filter0_i_138_96" x="24.0327" y="8.51929" width="19.8535" height="25.2987" filterUnits="userSpaceOnUse" color-interpolation-filters="sRGB">
<feFlood flood-opacity="0" result="BackgroundImageFix"/>
<feBlend mode="normal" in="SourceGraphic" in2="BackgroundImageFix" result="shape"/>
<feColorMatrix in="SourceAlpha" type="matrix" values="0 0 0 0 0 0 0 0 0 0 0 0 0 0 0 0 0 0 127 0" result="hardAlpha"/>
<feOffset dy="4"/>
<feGaussianBlur stdDeviation="2"/>
<feComposite in2="hardAlpha" operator="arithmetic" k2="-1" k3="1"/>
<feColorMatrix type="matrix" values="0 0 0 0 1 0 0 0 0 1 0 0 0 0 1 0 0 0 0.25 0"/>
<feBlend mode="normal" in2="shape" result="effect1_innerShadow_138_96"/>
</filter>
</defs>
</svg>
