<svg xmlns="http://www.w3.org/2000/svg" width="12" height="13" viewBox="0 0 12 13" fill="none">
  <g clip-path="url(#clip0_597_5522)">
    <path d="M11.0798 6.60414C11.0077 6.53183 10.9172 6.48054 10.8181 6.45576C10.719 6.43099 10.615 6.43367 10.5173 6.46351C9.83489 6.66953 9.10935 6.68658 8.41798 6.51284C7.72661 6.3391 7.09532 5.98108 6.59134 5.47692C6.08737 4.97275 5.72959 4.34132 5.55611 3.64988C5.38264 2.95845 5.39996 2.23291 5.60624 1.55054C5.63634 1.45281 5.63922 1.34872 5.61458 1.24947C5.58994 1.15023 5.53871 1.05957 5.4664 0.987262C5.39409 0.914953 5.30344 0.863723 5.20419 0.839083C5.10494 0.814443 5.00085 0.817324 4.90312 0.847418C3.87674 1.16288 2.97603 1.79408 2.32921 2.65117C1.76357 3.40299 1.41864 4.29757 1.3331 5.23452C1.24757 6.17147 1.42482 7.11371 1.84498 7.95553C2.26513 8.79735 2.91156 9.50543 3.71173 10.0003C4.5119 10.4952 5.43415 10.7573 6.37499 10.7573C7.47343 10.7605 8.54261 10.4033 9.41859 9.74054C10.2752 9.09307 10.9058 8.19187 11.2205 7.16523C11.25 7.06774 11.2526 6.96404 11.2278 6.86522C11.203 6.7664 11.1519 6.67616 11.0798 6.60414ZM8.74171 8.84195C7.98351 9.41273 7.04467 9.69047 6.09796 9.62404C5.15125 9.55762 4.26039 9.1515 3.58932 8.48043C2.91826 7.80936 2.51214 6.9185 2.44571 5.9718C2.37929 5.02509 2.65702 4.08625 3.22781 3.32804C3.52813 2.93074 3.90035 2.59333 4.32515 2.33336C4.31671 2.45336 4.31249 2.57382 4.31249 2.69476C4.31398 4.03696 4.84783 5.32377 5.79691 6.27285C6.74599 7.22193 8.03279 7.75577 9.37499 7.75726C9.49593 7.75726 9.6164 7.75304 9.7364 7.74461C9.47651 8.16947 9.13909 8.54171 8.74171 8.84195Z" fill="#262626"/>
  </g>
  <defs>
    <clipPath id="clip0_597_5522">
      <rect width="12" height="12" fill="white" transform="translate(0 0.0698242)"/>
    </clipPath>
  </defs>
</svg>