<svg width="16" height="16" viewBox="0 0 16 16" fill="none" xmlns="http://www.w3.org/2000/svg">
<g clip-path="url(#clip0_105_80)">
<g clip-path="url(#clip1_105_80)">
<g clip-path="url(#clip2_105_80)">
<mask id="mask0_105_80" style="mask-type:luminance" maskUnits="userSpaceOnUse" x="0" y="0" width="16" height="16">
<path d="M16 0H0V16H16V0Z" fill="white"/>
</mask>
<g mask="url(#mask0_105_80)">
<path d="M7.34447 1.8758C7.37303 1.72287 7.45418 1.58474 7.57386 1.48534C7.69355 1.38595 7.84422 1.33154 7.9998 1.33154C8.15538 1.33154 8.30605 1.38595 8.42573 1.48534C8.54542 1.58474 8.62657 1.72287 8.65513 1.8758L9.3558 5.58113C9.40556 5.84456 9.53358 6.08688 9.72315 6.27645C9.91272 6.46602 10.155 6.59404 10.4185 6.6438L14.1238 7.34447C14.2767 7.37303 14.4149 7.45418 14.5143 7.57386C14.6137 7.69355 14.6681 7.84422 14.6681 7.9998C14.6681 8.15538 14.6137 8.30605 14.5143 8.42573C14.4149 8.54542 14.2767 8.62657 14.1238 8.65513L10.4185 9.3558C10.155 9.40556 9.91272 9.53358 9.72315 9.72315C9.53358 9.91272 9.40556 10.155 9.3558 10.4185L8.65513 14.1238C8.62657 14.2767 8.54542 14.4149 8.42573 14.5143C8.30605 14.6137 8.15538 14.6681 7.9998 14.6681C7.84422 14.6681 7.69355 14.6137 7.57386 14.5143C7.45418 14.4149 7.37303 14.2767 7.34447 14.1238L6.6438 10.4185C6.59404 10.155 6.46602 9.91272 6.27645 9.72315C6.08688 9.53358 5.84456 9.40556 5.58113 9.3558L1.8758 8.65513C1.72287 8.62657 1.58474 8.54542 1.48535 8.42573C1.38595 8.30605 1.33154 8.15538 1.33154 7.9998C1.33154 7.84422 1.38595 7.69355 1.48535 7.57386C1.58474 7.45418 1.72287 7.37303 1.8758 7.34447L5.58113 6.6438C5.84456 6.59404 6.08688 6.46602 6.27645 6.27645C6.46602 6.08688 6.59404 5.84456 6.6438 5.58113L7.34447 1.8758Z" stroke="white" stroke-width="1.33333" stroke-linecap="round" stroke-linejoin="round"/>
<path d="M13.333 1.33301V3.99968" stroke="white" stroke-width="1.33333" stroke-linecap="round" stroke-linejoin="round"/>
<path d="M14.6667 2.6665H12" stroke="white" stroke-width="1.33333" stroke-linecap="round" stroke-linejoin="round"/>
<path d="M2.66635 14.6667C3.40273 14.6667 3.99968 14.0697 3.99968 13.3333C3.99968 12.597 3.40273 12 2.66635 12C1.92997 12 1.33301 12.597 1.33301 13.3333C1.33301 14.0697 1.92997 14.6667 2.66635 14.6667Z" stroke="white" stroke-width="1.33333" stroke-linecap="round" stroke-linejoin="round"/>
</g>
</g>
</g>
</g>
<defs>
<clipPath id="clip0_105_80">
<rect width="16" height="16" fill="white"/>
</clipPath>
<clipPath id="clip1_105_80">
<rect width="16" height="16" fill="white"/>
</clipPath>
<clipPath id="clip2_105_80">
<rect width="16" height="16" fill="white"/>
</clipPath>
</defs>
</svg>
