<svg xmlns="http://www.w3.org/2000/svg" width="12" height="13" viewBox="0 0 12 13" fill="none">
  <g clip-path="url(#clip0_597_5510)">
    <path d="M5.4375 1.75732V1.00732C5.4375 0.85814 5.49676 0.715066 5.60225 0.609577C5.70774 0.504087 5.85082 0.444824 6 0.444824C6.14918 0.444824 6.29226 0.504087 6.39775 0.609577C6.50324 0.715066 6.5625 0.85814 6.5625 1.00732V1.75732C6.5625 1.90651 6.50324 2.04958 6.39775 2.15507C6.29226 2.26056 6.14918 2.31982 6 2.31982C5.85082 2.31982 5.70774 2.26056 5.60225 2.15507C5.49676 2.04958 5.4375 1.90651 5.4375 1.75732ZM9.1875 6.06982C9.1875 6.70025 9.00056 7.31652 8.65031 7.8407C8.30006 8.36489 7.80224 8.77344 7.2198 9.01469C6.63736 9.25594 5.99646 9.31907 5.37815 9.19608C4.75984 9.07309 4.19188 8.76951 3.7461 8.32373C3.30032 7.87795 2.99674 7.30999 2.87375 6.69167C2.75076 6.07336 2.81388 5.43246 3.05513 4.85002C3.29639 4.26758 3.70494 3.76976 4.22912 3.41951C4.7533 3.06927 5.36957 2.88232 6 2.88232C6.84511 2.88319 7.65536 3.2193 8.25294 3.81688C8.85053 4.41446 9.18663 5.22471 9.1875 6.06982ZM8.0625 6.06982C8.0625 5.6619 7.94154 5.26314 7.71491 4.92396C7.48828 4.58478 7.16616 4.32043 6.78928 4.16432C6.41241 4.00822 5.99771 3.96737 5.59763 4.04695C5.19754 4.12654 4.83004 4.32297 4.54159 4.61142C4.25315 4.89986 4.05671 5.26736 3.97713 5.66745C3.89755 6.06754 3.93839 6.48224 4.0945 6.85911C4.2506 7.23598 4.51496 7.5581 4.85414 7.78473C5.19331 8.01136 5.59208 8.13232 6 8.13232C6.54682 8.1317 7.07106 7.91421 7.45772 7.52755C7.84438 7.14089 8.06188 6.61664 8.0625 6.06982ZM2.41453 3.28029C2.46685 3.33262 2.52897 3.37412 2.59734 3.40244C2.6657 3.43076 2.73897 3.44533 2.81297 3.44533C2.88697 3.44533 2.96024 3.43076 3.0286 3.40244C3.09697 3.37412 3.15908 3.33262 3.21141 3.28029C3.26373 3.22797 3.30524 3.16585 3.33355 3.09749C3.36187 3.02912 3.37644 2.95585 3.37644 2.88186C3.37644 2.80786 3.36187 2.73459 3.33355 2.66622C3.30524 2.59786 3.26373 2.53574 3.21141 2.48342L2.64891 1.92092C2.54323 1.81525 2.39991 1.75588 2.25047 1.75588C2.10103 1.75588 1.9577 1.81525 1.85203 1.92092C1.74636 2.02659 1.68699 2.16991 1.68699 2.31936C1.68699 2.4688 1.74636 2.61212 1.85203 2.71779L2.41453 3.28029ZM2.41453 8.85842L1.85203 9.42092C1.79971 9.47324 1.7582 9.53536 1.72988 9.60372C1.70157 9.67209 1.68699 9.74536 1.68699 9.81936C1.68699 9.89335 1.70157 9.96662 1.72988 10.035C1.7582 10.1034 1.79971 10.1655 1.85203 10.2178C1.9577 10.3235 2.10103 10.3828 2.25047 10.3828C2.32447 10.3828 2.39774 10.3683 2.4661 10.3399C2.53447 10.3116 2.59658 10.2701 2.64891 10.2178L3.21141 9.65529C3.31708 9.54962 3.37644 9.4063 3.37644 9.25686C3.37644 9.10741 3.31708 8.96409 3.21141 8.85842C3.10573 8.75275 2.96241 8.69338 2.81297 8.69338C2.66353 8.69338 2.5202 8.75275 2.41453 8.85842ZM9.1875 3.44482C9.26139 3.44488 9.33457 3.43038 9.40285 3.40215C9.47114 3.37392 9.53319 3.33251 9.58547 3.28029L10.148 2.71779C10.2003 2.66547 10.2418 2.60335 10.2701 2.53499C10.2984 2.46662 10.313 2.39335 10.313 2.31936C10.313 2.24536 10.2984 2.17209 10.2701 2.10372C10.2418 2.03536 10.2003 1.97324 10.148 1.92092C10.0956 1.86859 10.0335 1.82709 9.96516 1.79877C9.8968 1.77045 9.82353 1.75588 9.74953 1.75588C9.67554 1.75588 9.60226 1.77045 9.5339 1.79877C9.46553 1.82709 9.40342 1.86859 9.35109 1.92092L8.78859 2.48342C8.70946 2.56209 8.65551 2.66253 8.63361 2.77195C8.61171 2.88137 8.62286 2.99483 8.66562 3.0979C8.70839 3.20097 8.78084 3.28899 8.87377 3.35077C8.96671 3.41255 9.07591 3.44529 9.1875 3.44482ZM9.58547 8.85935C9.4798 8.75368 9.33647 8.69432 9.18703 8.69432C9.03759 8.69432 8.89427 8.75368 8.78859 8.85935C8.68292 8.96503 8.62356 9.10835 8.62356 9.25779C8.62356 9.40724 8.68292 9.55056 8.78859 9.65623L9.35109 10.2187C9.45677 10.3244 9.60009 10.3838 9.74953 10.3838C9.89897 10.3838 10.0423 10.3244 10.148 10.2187C10.2536 10.1131 10.313 9.96974 10.313 9.82029C10.313 9.67085 10.2536 9.52753 10.148 9.42185L9.58547 8.85935ZM2.25 6.06982C2.25 5.92064 2.19074 5.77757 2.08525 5.67208C1.97976 5.56659 1.83668 5.50732 1.6875 5.50732H0.9375C0.788316 5.50732 0.645242 5.56659 0.539752 5.67208C0.434263 5.77757 0.375 5.92064 0.375 6.06982C0.375 6.21901 0.434263 6.36208 0.539752 6.46757C0.645242 6.57306 0.788316 6.63232 0.9375 6.63232H1.6875C1.83668 6.63232 1.97976 6.57306 2.08525 6.46757C2.19074 6.36208 2.25 6.21901 2.25 6.06982ZM6 9.81982C5.85082 9.81982 5.70774 9.87909 5.60225 9.98458C5.49676 10.0901 5.4375 10.2331 5.4375 10.3823V11.1323C5.4375 11.2815 5.49676 11.4246 5.60225 11.5301C5.70774 11.6356 5.85082 11.6948 6 11.6948C6.14918 11.6948 6.29226 11.6356 6.39775 11.5301C6.50324 11.4246 6.5625 11.2815 6.5625 11.1323V10.3823C6.5625 10.2331 6.50324 10.0901 6.39775 9.98458C6.29226 9.87909 6.14918 9.81982 6 9.81982ZM11.0625 5.50732H10.3125C10.1633 5.50732 10.0202 5.56659 9.91475 5.67208C9.80926 5.77757 9.75 5.92064 9.75 6.06982C9.75 6.21901 9.80926 6.36208 9.91475 6.46757C10.0202 6.57306 10.1633 6.63232 10.3125 6.63232H11.0625C11.2117 6.63232 11.3548 6.57306 11.4602 6.46757C11.5657 6.36208 11.625 6.21901 11.625 6.06982C11.625 5.92064 11.5657 5.77757 11.4602 5.67208C11.3548 5.56659 11.2117 5.50732 11.0625 5.50732Z" fill="#DDDDDD"/>
  </g>
  <defs>
    <clipPath id="clip0_597_5510">
      <rect width="12" height="12" fill="white" transform="translate(0 0.0698242)"/>
    </clipPath>
  </defs>
</svg>