<svg xmlns="http://www.w3.org/2000/svg" width="75" height="55" viewBox="0 0 75 55" fill="none">
  <path d="M42.3087 1.90751C42.3087 2.96101 41.4643 3.81503 40.4227 3.81503C39.3811 3.81503 38.5367 2.96101 38.5367 1.90751C38.5367 0.854024 39.3811 0 40.4227 0C41.4643 0 42.3087 0.854024 42.3087 1.90751Z" fill="#fff"/>
  <path d="M42.3715 7.88444L38.5996 9.8555V22.6995H42.3715V7.88444Z" fill="#fff"/>
  <path d="M46.4579 3.81503H50.2299V7.88439H58.3397V11.5723H50.2299V18.8844H58.3397V22.6994H49.727L46.4579 19.3295V3.81503Z" fill="#fff"/>
  <path fill-rule="evenodd" clip-rule="evenodd" d="M0 26.5144V41.9653H12.0076L15.5909 38.4046V29.948L12.259 26.5144H0ZM3.9606 38.1502V30.393H11.6932V38.1502H3.9606Z" fill="#fff"/>
  <path d="M19.4258 26.5144V41.9653H23.3865V30.393H30.8047V33.6994H34.7653V26.5144H19.4258Z" fill="#fff"/>
  <path fill-rule="evenodd" clip-rule="evenodd" d="M42.3093 26.5144H51.5507L55.0713 30.0115V38.4682L51.5507 41.9653H42.3093L38.7888 38.4682V30.0115L42.3093 26.5144ZM42.6237 38.1502V30.393H51.1735V38.1502H42.6237Z" fill="#fff"/>
  <path fill-rule="evenodd" clip-rule="evenodd" d="M59.1576 26.5144V55H63.0554V41.9653H75V30.1387C74.5181 30.2659 73.2649 30.126 72.6111 29.5664C72.1585 29.1087 72.3597 27.4682 72.3597 26.5144H59.1576ZM71.1023 30.3295H63.0554V38.1502H71.1023V30.3295Z" fill="#fff"/>
  <path fill-rule="evenodd" clip-rule="evenodd" d="M2.76613 0.190866H12.1961L15.6538 3.68798V9.72846L13.8936 11.4452L15.6538 13.0348V19.266L12.1961 22.7631H3.26907L0 19.266V13.0348L2.01173 11.4452L0 9.72846V3.87872C0.565801 3.96351 1.82314 3.98047 2.32607 3.37006C2.82901 2.75965 2.82901 0.996256 2.76613 0.190866ZM4.02348 9.60123V4.00589H11.6932V9.60123H4.02348ZM4.02348 18.8845V13.4163H11.6932V18.8845H4.02348Z" fill="#fff"/>
  <path fill-rule="evenodd" clip-rule="evenodd" d="M19.4887 0.190866H23.3236V7.75734H31.4334L34.8281 11.3181V22.7631H19.4258L19.4887 0.190866ZM30.8047 11.6996H23.3236V18.8845H30.8047V11.6996Z" fill="#fff"/>
</svg>