<svg xmlns="http://www.w3.org/2000/svg" width="163" height="34" viewBox="0 0 163 34" fill="none">
  <path d="M156.577 0H150.952L150.23 5.55619H147V9.62078L150.23 10.031V16.4448C150.23 24.0519 156.691 24.9842 163 23.2689L162.468 18.5331C160.112 19.3534 156.577 19.5772 156.577 16.2957V10.031H162.164V5.55619H156.577V0Z" fill="#fff"/>
  <path d="M137.229 5.00545C132.541 5.19294 127.816 8.41767 128.005 14.9421C128.194 21.3916 132.655 24.2788 138.929 23.9789C141.349 23.8664 143.465 23.6039 145.544 22.404L145.28 17.6419C143.995 18.3168 141.5 18.9543 139.345 19.0668C136.775 19.1793 134.62 18.4293 134.205 16.0295C135.679 16.742 137.493 17.0794 139.307 16.967C142.634 16.7795 145.885 15.0921 145.998 11.3424C146.111 6.50532 141.462 4.89296 137.229 5.00545ZM134.469 12.5048C134.923 10.6675 136.132 10.03 137.342 9.91754C138.325 9.91754 139.837 10.18 139.837 11.4549C139.874 12.4673 138.929 13.1048 138.022 13.1423C136.813 13.2548 135.376 12.9173 134.469 12.5048Z" fill="#fff"/>
  <path d="M111.617 7.86022C111.617 4.39785 107.168 5.03763 105 5.52688V9.02688C106.607 9.02688 106.458 9.74194 106.458 11.1344V33H112.364V21.5215C113.224 23.3656 115.243 24.043 117.15 24.043C122.458 24.043 125 19.4516 125 14.6344C125 9.44086 122.495 5.1129 116.85 5C114.757 5 112.626 6.0914 111.617 8.01075V7.86022ZM115.43 10.6828C117.523 10.5699 118.682 12.2258 118.682 14.6344C118.682 17.0806 117.71 18.7742 115.505 18.7742C113.598 18.7742 112.626 16.9677 112.626 14.672C112.626 12.3011 113.523 10.6828 115.43 10.6828Z" fill="#fff"/>
  <path d="M95.0265 23.9718C95.0265 30.3515 88.1456 29.0063 84.327 27.0463L84.0624 31.9272C91.8129 36.1162 101 34.1946 101 23.9718V5.37082H94.6484V14.6329C94.6484 16.4776 94.1569 18.7451 92.0019 18.7451C89.8469 18.7451 89.1664 16.8619 89.1664 14.8635V10.0211C89.1664 4.98651 85.0076 4.41003 81 5.40926V9.0987C82.6257 9.0987 82.8526 9.59831 82.8526 11.0972V14.9403C82.8526 20.3976 84.9698 24.2408 90.7164 24.1255C92.569 24.1255 94.3081 23.1647 95.0265 21.3584V23.9718Z" fill="#fff"/>
  <path d="M71.5751 8.02232C71.2794 4.46747 66.4757 4.88794 64 5.49952V9.05437C65.515 9.05437 65.5889 9.7424 65.5889 11.1567V24H71.7598V14.7498C71.7598 11.9594 73.5704 10.5833 75.6767 10.4687C76.6744 10.4304 77.746 10.6598 78.7436 11.386L80 6.11111C79.0023 5.34663 77.709 4.96439 76.3788 5.00261C74.3464 5.00261 72.2771 5.99644 71.5751 8.02232Z" fill="#fff"/>
  <path d="M52.2285 5.00545C47.5414 5.19294 42.8165 8.41767 43.0055 14.9421C43.1945 21.3916 47.6548 24.2788 53.9295 23.9789C56.3487 23.8664 58.4654 23.6039 60.5444 22.404L60.2798 17.6419C58.9946 18.3168 56.4998 18.9543 54.3453 19.0668C51.7749 19.1793 49.6204 18.4293 49.2046 16.0295C50.6788 16.742 52.4931 17.0794 54.3075 16.967C57.6338 16.7795 60.8846 15.0921 60.998 11.3424C61.1114 6.50532 56.462 4.89296 52.2285 5.00545ZM49.4692 12.5048C49.9228 10.6675 51.1323 10.03 52.3419 9.91754C53.3247 9.91754 54.8367 10.18 54.8367 11.4549C54.8745 12.4673 53.9295 13.1048 53.0223 13.1423C51.8127 13.2548 50.3764 12.9173 49.4692 12.5048Z" fill="#fff"/>
  <path d="M21.7234 15.804C21.611 21.4198 25.6948 24 30.9776 24C41.543 24 41.056 13.2618 38.3584 5.52116H32.1016C33.1131 8.2152 35.3236 18.9914 30.9776 18.9914C29.1417 18.9914 28.0927 17.5874 28.1301 15.804V9.69503C28.1301 4.6105 23.7091 4.53461 20 5.44527V8.78437C21.4986 8.78437 21.7234 9.50531 21.7234 10.9092V15.804Z" fill="#fff"/>
  <path d="M9.22852 5.00545C4.54141 5.19294 -0.183509 8.41767 0.00548756 14.9421C0.194484 21.3916 4.65481 24.2788 10.9295 23.9789C13.3487 23.8664 15.4654 23.6039 17.5444 22.404L17.2798 17.6419C15.9946 18.3168 13.4998 18.9543 11.3453 19.0668C8.77493 19.1793 6.62037 18.4293 6.20458 16.0295C7.67875 16.742 9.49312 17.0794 11.3075 16.967C14.6338 16.7795 17.8846 15.0921 17.998 11.3424C18.1114 6.50532 13.462 4.89296 9.22852 5.00545ZM6.46917 12.5048C6.92276 10.6675 8.13234 10.03 9.34192 9.91754C10.3247 9.91754 11.8367 10.18 11.8367 11.4549C11.8745 12.4673 10.9295 13.1048 10.0223 13.1423C8.81273 13.2548 7.37636 12.9173 6.46917 12.5048Z" fill="#fff"/>
</svg>