<svg width="806" height="108" viewBox="0 0 806 108" fill="none" xmlns="http://www.w3.org/2000/svg">
<path d="M779.242 100.466C788.426 100.466 794.22 96.3684 794.22 89.3033C794.22 82.9447 790.546 79.5534 781.926 77.1513L770.198 74.0426C757.34 70.51 749.144 64.7166 749.144 53.4124C749.144 40.9778 759.742 33.7714 773.166 33.7714C782.35 33.7714 787.155 37.1626 790.405 37.1626C792.524 37.1626 793.231 35.7496 793.231 33.7714H798.6L802.98 57.9341H796.622C793.372 46.6299 785.459 40.6952 774.72 40.6952C765.818 40.6952 760.872 44.793 760.872 51.0103C760.872 56.2385 764.264 59.3471 773.024 61.8906L786.024 65.5644C798.176 68.9557 805.948 74.8904 805.948 86.6185C805.948 99.1945 795.774 107.39 781.079 107.39C771.046 107.39 765.959 103.575 761.579 103.575C758.894 103.575 757.764 105.129 757.764 107.39H752.394L748.014 80.4012H754.231C757.34 93.6837 767.655 100.466 779.242 100.466Z" fill="#00000F"/>
<path d="M671.907 70.9339C671.907 48.3255 685.614 33.7714 705.82 33.7714C725.037 33.7714 736.906 47.0538 735.635 68.6731H684.342C684.766 85.7707 693.527 95.9445 709.352 95.9445C722.352 95.9445 730.972 89.162 733.091 78.1404L738.602 78.7056C737.189 95.8032 725.461 107.39 706.102 107.39C684.624 107.39 671.907 92.9771 671.907 70.9339ZM684.624 61.7493C709.776 61.7493 716.276 61.608 721.928 61.1841C721.504 47.619 715.711 40.4126 704.831 40.4126C693.668 40.4126 686.179 48.0429 684.624 61.7493Z" fill="#00000F"/>
<path d="M594.528 100.89C601.028 100.89 604.702 99.7596 604.702 92.5532V13.4237C604.702 7.48904 602.441 5.08689 594.528 5.08689V0H617.419V48.6081C621.8 38.293 630.137 33.7713 640.028 33.7713C653.593 33.7713 661.647 42.3908 661.647 56.6623V92.5532C661.647 99.7596 665.462 100.89 671.962 100.89V105.977H638.897V100.89C645.539 100.89 649.071 99.7596 649.071 92.5532V56.945C649.071 46.9125 644.408 42.3908 636.354 42.3908C623.637 42.3908 617.419 54.1189 617.419 67.8252V92.5532C617.419 99.7596 621.093 100.89 627.734 100.89V105.977H594.528V100.89Z" fill="#00000F"/>
<path d="M580.029 65.1405C574.942 65.1405 572.258 61.7493 572.258 57.9341C572.258 52.7059 576.497 52.7059 576.497 48.4668C576.497 43.8038 571.551 40.6952 564.91 40.6952C551.062 40.6952 540.465 51.7168 540.465 68.9557C540.465 84.499 549.508 95.9445 565.193 95.9445C578.758 95.9445 587.094 87.8903 588.931 76.7274L594.442 77.2926C593.453 94.3902 581.866 107.39 562.084 107.39C541.171 107.39 527.889 92.6945 527.889 71.4992C527.889 48.4668 543.573 33.7714 563.497 33.7714C580.171 33.7714 589.214 44.2278 589.214 54.9668C589.214 61.0428 585.54 65.1405 580.029 65.1405Z" fill="#00000F"/>
<path d="M471.988 45.3581C471.988 43.3799 471.281 42.6734 469.586 42.6734H451.499V35.1843H457.575C471.281 35.1843 476.368 29.3909 476.51 14.4128H484.564V35.1843H519.183V42.6734H484.564V81.6729C484.564 91.7054 489.792 97.0749 499.259 97.0749C506.324 97.0749 512.259 94.6727 515.933 88.1728L521.161 90.5749C516.498 101.597 507.879 107.39 495.444 107.39C480.749 107.39 471.988 99.477 471.988 84.075V45.3581Z" fill="#00000F"/>
<path d="M447.456 93.825C447.456 96.7923 449.011 98.3466 451.554 98.3466C453.815 98.3466 455.228 97.2162 456.5 95.8032L460.598 99.3358C457.771 104.281 453.532 107.39 447.315 107.39C440.25 107.39 435.87 103.292 436.152 95.3793L436.576 89.162C432.761 100.466 423.859 107.39 411.566 107.39C399.555 107.39 391.783 101.031 391.783 90.2924C391.783 81.8142 397.153 76.0208 408.174 71.4992L425.131 64.5753C432.337 61.608 435.446 58.6406 435.446 53.2711C435.446 46.206 430.783 40.6952 419.761 40.6952C410.435 40.6952 403.653 44.6517 403.653 49.3146C403.653 52.9885 408.457 52.8472 408.457 58.2167C408.457 62.5971 405.066 65.1405 400.968 65.1405C395.457 65.1405 392.49 61.1841 392.49 54.9668C392.49 43.9452 402.946 33.7714 421.315 33.7714C437.141 33.7714 448.022 40.9778 447.88 56.6624L447.456 93.825ZM435.446 73.4774V67.2601L414.392 76.3034C408.033 79.1295 405.066 82.8034 405.066 88.3142C405.066 94.3902 408.881 98.3466 416.229 98.3466C428.239 98.3466 435.446 87.3251 435.446 73.4774Z" fill="#00000F"/>
<path d="M318.362 24.5866C317.09 15.1193 315.959 12.9998 311.579 12.8585V7.06506H339.981V12.8585C330.796 12.9998 329.666 15.1193 331.079 24.7279L338.003 75.7381L349.872 21.6192H357.22L369.937 77.8577L377.002 24.5866C378.274 15.1193 376.861 12.8585 367.818 12.8585V7.06506H392.122V12.8585C388.73 12.9998 386.893 14.2715 385.48 24.7279L373.046 106.259H364.991L351.85 47.7602L338.709 106.259H330.514L318.362 24.5866Z" fill="#00000F"/>
<path d="M272.408 93.825C272.408 96.7923 273.962 98.3466 276.505 98.3466C278.766 98.3466 280.179 97.2162 281.451 95.8032L285.549 99.3358C282.723 104.281 278.484 107.39 272.266 107.39C265.201 107.39 260.821 103.292 261.103 95.3793L261.527 89.162C257.712 100.466 248.81 107.39 236.517 107.39C224.506 107.39 216.734 101.031 216.734 90.2924C216.734 81.8142 222.104 76.0208 233.125 71.4992L250.082 64.5753C257.288 61.608 260.397 58.6406 260.397 53.2711C260.397 46.206 255.734 40.6952 244.712 40.6952C235.386 40.6952 228.604 44.6517 228.604 49.3146C228.604 52.9885 233.408 52.8472 233.408 58.2167C233.408 62.5971 230.017 65.1405 225.919 65.1405C220.408 65.1405 217.441 61.1841 217.441 54.9668C217.441 43.9452 227.897 33.7714 246.267 33.7714C262.093 33.7714 272.973 40.9778 272.832 56.6624L272.408 93.825ZM260.397 73.4774V67.2601L239.343 76.3034C232.984 79.1295 230.017 82.8034 230.017 88.3142C230.017 94.3902 233.832 98.3466 241.18 98.3466C253.19 98.3466 260.397 87.3251 260.397 73.4774Z" fill="#00000F"/>
<path d="M170.865 42.3908C159.42 42.3908 154.616 46.6298 152.072 60.1949H145.714L148.822 35.1843H206.191V40.2712L161.398 98.7705H181.746C192.485 98.7705 199.267 95.8031 202.517 80.2599H208.876L203.789 105.977H145.572V100.89L190.224 42.3908H170.865Z" fill="#00000F"/>
<path d="M128.389 93.825C128.389 96.7923 129.943 98.3466 132.487 98.3466C134.748 98.3466 136.161 97.2162 137.432 95.8032L141.53 99.3358C138.704 104.281 134.465 107.39 128.248 107.39C121.183 107.39 116.802 103.292 117.085 95.3793L117.509 89.162C113.694 100.466 104.792 107.39 92.4982 107.39C80.4875 107.39 72.7158 101.031 72.7158 90.2924C72.7158 81.8142 78.0853 76.0208 89.1069 71.4992L106.063 64.5753C113.27 61.608 116.378 58.6406 116.378 53.2711C116.378 46.206 111.715 40.6952 100.694 40.6952C91.3678 40.6952 84.5852 44.6517 84.5852 49.3146C84.5852 52.9885 89.3895 52.8472 89.3895 58.2167C89.3895 62.5971 85.9983 65.1405 81.9005 65.1405C76.3897 65.1405 73.4223 61.1841 73.4223 54.9668C73.4223 43.9452 83.8787 33.7714 102.248 33.7714C118.074 33.7714 128.954 40.9778 128.813 56.6624L128.389 93.825ZM116.378 73.4774V67.2601L95.3242 76.3034C88.9656 79.1295 85.9983 82.8034 85.9983 88.3142C85.9983 94.3902 89.8134 98.3466 97.1612 98.3466C109.172 98.3466 116.378 87.3251 116.378 73.4774Z" fill="#00000F"/>
<path d="M12.0107 23.3149C12.0107 14.2715 8.61946 12.8585 0 12.8585V7.06506H70.3687L70.7926 40.2712H63.4449C62.4558 22.7497 58.2167 13.7063 46.0647 13.7063H33.63C28.6844 13.7063 26.141 16.2497 26.141 21.1953V53.4123H35.3257C43.2386 53.4123 46.7712 49.7384 47.0538 39.2821H53.695V75.1729H47.0538C46.6299 64.8578 43.2386 60.76 35.3257 60.76H26.141V88.8793C26.141 98.4878 30.804 100.183 41.543 100.183H43.9451V105.977H0V100.183C8.61946 100.183 12.0107 98.7704 12.0107 89.7271V23.3149Z" fill="#00000F"/>
</svg>
