<?xml version="1.0" encoding="UTF-8"?>
<svg version="1.1" xmlns="http://www.w3.org/2000/svg" width="373" height="315">
<path d="M0 0 C2.92430232 1.65710465 3.54331249 4.02513401 4.875 7.0625 C5.50997851 9.503117 6.07241017 11.96371323 6.5625 14.4375 C6.81386719 15.68273437 7.06523437 16.92796875 7.32421875 18.2109375 C7.50597656 19.15195313 7.68773437 20.09296875 7.875 21.0625 C8.535 21.0625 9.195 21.0625 9.875 21.0625 C11.40089863 18.65415397 12.70776503 16.15697451 14.046875 13.640625 C16.4504262 10.25100151 18.07227054 8.84838054 21.875 7.0625 C26.17890633 6.5602772 30.42348985 6.64123299 34.75 6.75 C35.89597656 6.75966797 37.04195313 6.76933594 38.22265625 6.77929688 C44.19540374 6.85833784 49.96327348 7.24620982 55.875 8.0625 C66.86100649 8.80299325 78.97180301 8.34012206 88.6171875 2.36328125 C89.36226563 1.93402344 90.10734375 1.50476563 90.875 1.0625 C92.36 1.5575 92.36 1.5575 93.875 2.0625 C93.31242692 5.43793847 92.39558432 8.02133135 90.875 11.0625 C90.875 12.0525 90.875 13.0425 90.875 14.0625 C89.22497172 15.41636936 87.5575613 16.74928142 85.875 18.0625 C85.38 19.5475 85.38 19.5475 84.875 21.0625 C83.20833333 22.0625 81.54166667 23.0625 79.875 24.0625 C79.38 25.5475 79.38 25.5475 78.875 27.0625 C76.565 27.3925 74.255 27.7225 71.875 28.0625 C71.38 29.5475 71.38 29.5475 70.875 31.0625 C69.885 31.0625 68.895 31.0625 67.875 31.0625 C67.875 31.7225 67.875 32.3825 67.875 33.0625 C65.895 33.3925 63.915 33.7225 61.875 34.0625 C61.545 36.3725 61.215 38.6825 60.875 41.0625 C59.905625 41.330625 58.93625 41.59875 57.9375 41.875 C56.926875 42.266875 55.91625 42.65875 54.875 43.0625 C54.545 44.0525 54.215 45.0425 53.875 46.0625 C51.88776732 46.76631157 49.88722047 47.4336811 47.875 48.0625 C47.38 49.0525 47.38 49.0525 46.875 50.0625 C45.54166667 50.72916667 44.20833333 51.39583333 42.875 52.0625 C42.38 53.0525 42.38 53.0525 41.875 54.0625 C41.215 54.206875 40.555 54.35125 39.875 54.5 C39.215 54.685625 38.555 54.87125 37.875 55.0625 C37.545 56.0525 37.215 57.0425 36.875 58.0625 C35.885 58.0625 34.895 58.0625 33.875 58.0625 C33.875 59.3825 33.875 60.7025 33.875 62.0625 C33.875 63.0525 33.875 64.0425 33.875 65.0625 C34.535 65.0625 35.195 65.0625 35.875 65.0625 C39.89228744 72.71447608 42.29481395 79.41972843 42.875 88.0625 C43.72699738 83.32918125 43.70421486 79.76138422 42.875 75.0625 C42.10693234 64.4802345 42.10693234 64.4802345 45.875 60.0625 C49.00298261 57.31597869 51.33831306 55.28202671 55.5 54.6875 C60.13503332 55.2025037 63.33729845 57.06032208 66.875 60.0625 C68.375 62.875 68.375 62.875 68.875 65.0625 C64.53822198 67.54065887 60.76531632 67.51498478 55.875 67.0625 C52.8125 66.0625 52.8125 66.0625 50.875 65.0625 C50.545 65.3925 50.215 65.7225 49.875 66.0625 C50.36473391 71.09362288 50.36473391 71.09362288 51.3984375 76.02734375 C52.99730027 82.85527412 52.29179232 89.92874029 48.875 96.0625 C44.4242961 101.50224922 38.87165832 105.01977894 31.875 106.0625 C29.14081749 106.1261782 26.42528382 106.06222196 23.69140625 106 C20.87212451 105.99137987 20.87212451 105.99137987 18.125 106.546875 C13.83993781 107.2267166 9.64455412 107.28569688 5.3125 107.3125 C4.47525391 107.333125 3.63800781 107.35375 2.77539062 107.375 C-1.96452255 107.4050232 -5.35329936 107.29211411 -9.125 104.0625 C-9.4375 101.375 -9.4375 101.375 -9.125 99.0625 C-8.465 99.0625 -7.805 99.0625 -7.125 99.0625 C-6.63 97.5775 -6.63 97.5775 -6.125 96.0625 C-3.485 95.7325 -0.845 95.4025 1.875 95.0625 C0.9159375 93.9178125 0.9159375 93.9178125 -0.0625 92.75 C-3.32923534 88.49334487 -3.22373257 85.29532597 -3.125 80.0625 C-5.105 79.7325 -7.085 79.4025 -9.125 79.0625 C-9.10179687 80.01511719 -9.07859375 80.96773438 -9.0546875 81.94921875 C-9.02761719 83.83060547 -9.02761719 83.83060547 -9 85.75 C-8.97679687 86.99136719 -8.95359375 88.23273438 -8.9296875 89.51171875 C-9.11714055 92.91961515 -9.78105844 94.98307484 -11.125 98.0625 C-11.125 99.279375 -11.125 100.49625 -11.125 101.75 C-11.125 102.843125 -11.125 103.93625 -11.125 105.0625 C-12.115 106.0525 -12.115 106.0525 -13.125 107.0625 C-14.115 107.0625 -15.105 107.0625 -16.125 107.0625 C-15.795 105.4125 -15.465 103.7625 -15.125 102.0625 C-18.11526553 103.0877339 -20.16696679 104.0971226 -22.625 106.125 C-25.2435132 108.15434773 -26.87866288 108.69149004 -30.125 109.0625 C-30.125 107.0825 -30.125 105.1025 -30.125 103.0625 C-32.105 103.5575 -32.105 103.5575 -34.125 104.0625 C-34.375 101.75 -34.375 101.75 -34.125 99.0625 C-32.5 97.25 -32.5 97.25 -30.125 96.0625 C-28.12555546 96.01536669 -26.12432292 96.01046283 -24.125 96.0625 C-24.30675781 95.39089844 -24.48851562 94.71929687 -24.67578125 94.02734375 C-26.83371904 85.45092431 -28.02391952 76.88988465 -29.03442383 68.11108398 C-29.62521301 63.15741506 -30.45237517 58.78563883 -32.125 54.0625 C-31.75 50.9375 -31.75 50.9375 -31.125 48.0625 C-31.125 46.7425 -31.125 45.4225 -31.125 44.0625 C-30.81323073 37.61926841 -29.84009646 34.77759646 -25.125 30.0625 C-23.16915266 28.32243864 -21.18043196 26.68772527 -19.125 25.0625 C-20.54242503 20.81022492 -23.29033225 19.20586104 -27.125 17.0625 C-30.39210876 16.1944583 -30.39210876 16.1944583 -33.125 16.0625 C-33.125 16.7225 -33.125 17.3825 -33.125 18.0625 C-34.115 18.0625 -35.105 18.0625 -36.125 18.0625 C-36.4375 14.8125 -36.4375 14.8125 -36.125 11.0625 C-34.125 8.875 -34.125 8.875 -31.125 7.0625 C-30.61324219 6.68996094 -30.10148438 6.31742187 -29.57421875 5.93359375 C-24.27228139 2.55963361 -18.92800924 2.76682779 -12.84838867 3.12207031 C-7.56752506 3.36504503 -4.61701534 0.13579457 0 0 Z " fill="#000000" transform="translate(170.125,81.9375)"/>
<path d="M0 0 C3.96 0 7.92 0 12 0 C14.31 6.6 16.62 13.2 19 20 C21.7139104 17.2860896 22.38900846 14.14123941 23.5 10.5625 C24.69211111 6.74413199 25.75581937 3.36627094 28 0 C30.6015625 -0.29296875 30.6015625 -0.29296875 33.625 -0.1875 C35.12933594 -0.14689453 35.12933594 -0.14689453 36.6640625 -0.10546875 C37.43492187 -0.07066406 38.20578125 -0.03585938 39 0 C39 1.32 39 2.64 39 4 C38.01 4.33 37.02 4.66 36 5 C36.495 16.385 36.495 16.385 37 28 C38.65 28.33 40.3 28.66 42 29 C41.67 30.32 41.34 31.64 41 33 C36.38 33 31.76 33 27 33 C26.67 31.68 26.34 30.36 26 29 C26.99 28.67 27.98 28.34 29 28 C29.020625 26.783125 29.04125 25.56625 29.0625 24.3125 C29.07410156 23.62800781 29.08570313 22.94351563 29.09765625 22.23828125 C29.03618697 19.51712168 29.03618697 19.51712168 28 15 C25.69 20.94 23.38 26.88 21 33 C19.35 33 17.7 33 16 33 C12.535 23.595 12.535 23.595 9 14 C8.34 18.62 7.68 23.24 7 28 C8.32 28.33 9.64 28.66 11 29 C11 30.32 11 31.64 11 33 C6.71 33 2.42 33 -2 33 C-2.33 31.68 -2.66 30.36 -3 29 C-1.35 28.67 0.3 28.34 2 28 C2.33 20.41 2.66 12.82 3 5 C2.01 4.67 1.02 4.34 0 4 C0 2.68 0 1.36 0 0 Z " fill="#010101" transform="translate(99,200)"/>
<path d="M0 0 C4.95 0 9.9 0 15 0 C14.67 1.32 14.34 2.64 14 4 C13.01 4.495 13.01 4.495 12 5 C12.47603774 7.12570312 12.95592598 9.25054427 13.4375 11.375 C13.70433594 12.55835938 13.97117187 13.74171875 14.24609375 14.9609375 C14.85634695 17.89494581 14.85634695 17.89494581 16 20 C18.79308415 13.37608502 21.53267983 6.75266574 24 0 C25.98 0 27.96 0 30 0 C31.00465729 3.12352227 32.00292927 6.24904853 33 9.375 C33.28617188 10.26445312 33.57234375 11.15390625 33.8671875 12.0703125 C34.13789062 12.92109375 34.40859375 13.771875 34.6875 14.6484375 C34.93886719 15.43395996 35.19023438 16.21948242 35.44921875 17.02880859 C36 19 36 19 36 21 C36.66 21 37.32 21 38 21 C38.10957031 20.443125 38.21914062 19.88625 38.33203125 19.3125 C39.44275248 13.96658969 40.97225526 9.06936184 43 4 C42.01 4 41.02 4 40 4 C40 2.68 40 1.36 40 0 C43.96 0 47.92 0 52 0 C52 4 52 4 50.16113281 5.88378906 C49.44795898 6.58213867 48.73478516 7.28048828 48 8 C46.5647599 10.76906784 46.5647599 10.76906784 45.421875 13.859375 C44.98359375 14.97441406 44.5453125 16.08945313 44.09375 17.23828125 C43.42859375 18.97658203 43.42859375 18.97658203 42.75 20.75 C42.29109375 21.92433594 41.8321875 23.09867188 41.359375 24.30859375 C40.23015603 27.20221737 39.11078606 30.09926155 38 33 C36.35 33 34.7 33 33 33 C31.99009308 30.08666921 30.99384048 27.16884681 30 24.25 C29.71382812 23.425 29.42765625 22.6 29.1328125 21.75 C28.72675781 20.55117187 28.72675781 20.55117187 28.3125 19.328125 C28.06113281 18.5949707 27.80976562 17.86181641 27.55078125 17.10644531 C27 15 27 15 27 11 C26.34 11 25.68 11 25 11 C24.72414063 11.99128906 24.44828125 12.98257813 24.1640625 14.00390625 C23.01605396 18.02193613 21.71139268 21.97882516 20.375 25.9375 C20.03082031 26.96327148 20.03082031 26.96327148 19.6796875 28.00976562 C19.12118266 29.67364464 18.56079121 31.33689019 18 33 C16.35 33 14.7 33 13 33 C11.89342006 30.02172432 10.79019466 27.04221615 9.6875 24.0625 C9.37876953 23.23169922 9.07003906 22.40089844 8.75195312 21.54492188 C8.44580078 20.71669922 8.13964844 19.88847656 7.82421875 19.03515625 C7.51661621 18.20516113 7.20901367 17.37516602 6.89208984 16.52001953 C5.7473955 13.28643031 4.76581505 10.00942917 3.81958008 6.71264648 C3.54911865 6.14747314 3.27865723 5.5822998 3 5 C2.01 4.67 1.02 4.34 0 4 C0 2.68 0 1.36 0 0 Z " fill="#020202" transform="translate(27,200)"/>
<path d="M0 0 C3.20802233 -0.11698258 6.41549025 -0.18750607 9.625 -0.25 C10.98044922 -0.30027344 10.98044922 -0.30027344 12.36328125 -0.3515625 C18.25216729 -0.43753164 21.51512738 0.08117926 26 4 C27.3899408 6.7798816 27.18488204 8.9186326 27 12 C25.6 15.7 25.6 15.7 23 17 C25.33268023 23.60321243 25.33268023 23.60321243 30.1875 28.3125 C30.785625 28.539375 31.38375 28.76625 32 29 C31.67 30.32 31.34 31.64 31 33 C25.99614449 33.96565633 25.99614449 33.96565633 23 33 C19.61685961 29.08301807 17.30478242 24.60956483 15 20 C13.68 19.67 12.36 19.34 11 19 C11 21.97 11 24.94 11 28 C12.98 28.33 14.96 28.66 17 29 C16.67 30.32 16.34 31.64 16 33 C11.05 33 6.1 33 1 33 C0.67 31.68 0.34 30.36 0 29 C1.65 28.67 3.3 28.34 5 28 C4.67 20.41 4.34 12.82 4 5 C2.68 4.67 1.36 4.34 0 4 C0 2.68 0 1.36 0 0 Z M12 5 C12 7.97 12 10.94 12 14 C16.34184202 13.81535634 16.34184202 13.81535634 20 12 C20.2500773 9.54190002 20.2500773 9.54190002 20 7 C18.10244856 4.65026182 18.10244856 4.65026182 14.875 4.875 C13.92625 4.91625 12.9775 4.9575 12 5 Z " fill="#060606" transform="translate(217,200)"/>
<path d="M0 0 C3.24992446 -0.05819424 6.49971435 -0.09366116 9.75 -0.125 C10.67039063 -0.14175781 11.59078125 -0.15851563 12.5390625 -0.17578125 C13.42851562 -0.18222656 14.31796875 -0.18867188 15.234375 -0.1953125 C16.05131836 -0.20578613 16.86826172 -0.21625977 17.70996094 -0.22705078 C20.28793619 0.02854804 21.82603319 0.60161996 24 2 C26.45193779 5.67790669 26.71511798 8.72592275 26 13 C24 16 24 16 22 18 C22.3609375 18.55429688 22.721875 19.10859375 23.09375 19.6796875 C23.5578125 20.40414062 24.021875 21.12859375 24.5 21.875 C25.19609375 22.95394531 25.19609375 22.95394531 25.90625 24.0546875 C27 26 27 26 27 28 C28.32 28.33 29.64 28.66 31 29 C31 30.32 31 31.64 31 33 C25.94612894 33.78422137 25.94612894 33.78422137 23 33 C19.10849286 29.04081448 16.9505547 24.1315995 15 19 C13.68 19 12.36 19 11 19 C11 21.97 11 24.94 11 28 C12.65 28.33 14.3 28.66 16 29 C16 30.32 16 31.64 16 33 C10.72 33 5.44 33 0 33 C0 31.68 0 30.36 0 29 C1.65 28.67 3.3 28.34 5 28 C5 20.41 5 12.82 5 5 C3.35 4.67 1.7 4.34 0 4 C0 2.68 0 1.36 0 0 Z M11 5 C11 7.97 11 10.94 11 14 C15.7897321 14.23428313 15.7897321 14.23428313 20 12 C20.41666667 9.5 20.41666667 9.5 20 7 C18.04366025 4.58878141 18.04366025 4.58878141 14.375 4.875 C12.704375 4.936875 12.704375 4.936875 11 5 Z " fill="#0A0A0A" transform="translate(182,200)"/>
<path d="M0 0 C4.19240218 1.99703334 6.27227206 4.69615411 8.5 8.6875 C9.44031992 14.91711945 9.05625688 20.67623486 6.4375 26.4375 C2.20045384 30.89183058 -2.32345442 33.16779847 -8.5 33.5625 C-13.57193652 33.30802568 -17.23341125 31.33334262 -21 28 C-24.63619198 23.11386703 -24.80698792 17.87559744 -24 12 C-22.69381899 7.69034062 -20.71480991 4.75243148 -17.625 1.5 C-11.8127336 -0.90507575 -6.18434352 -0.94812235 0 0 Z M-16 9 C-17.85379866 12.70759732 -17.45923868 16.95373485 -17 21 C-15.00342873 24.85544798 -13.60292362 26.59805092 -10 29 C-6.61662701 29.53421679 -5.27073823 29.16370219 -2.3125 27.375 C0.99546735 23.97762813 1.93708215 21.30575425 2.06640625 16.56640625 C1.85010152 12.15510072 1.3941243 9.57959455 -1.125 5.875 C-7.39524217 1.78571163 -11.52737023 3.47498675 -16 9 Z " fill="#010101" transform="translate(297,200)"/>
<path d="M0 0 C1.65 0 3.3 0 5 0 C6.10921676 2.78975612 7.21342212 5.58124687 8.3125 8.375 C8.63645752 9.19613281 8.96041504 10.01726562 9.29418945 10.86328125 C11.26777071 15.92748976 12.99169632 20.9405884 14.19921875 26.25 C15.28235218 28.61704281 16.63386116 29.07474815 19 30 C18.505 31.485 18.505 31.485 18 33 C13.71 33 9.42 33 5 33 C4.67 31.68 4.34 30.36 4 29 C5.32 29 6.64 29 8 29 C7.67 28.236875 7.34 27.47375 7 26.6875 C6 24 6 24 6 21 C3.03 21 0.06 21 -3 21 C-3.66 23.64 -4.32 26.28 -5 29 C-4.01 29 -3.02 29 -2 29 C-2 30.32 -2 31.64 -2 33 C-6.29 33 -10.58 33 -15 33 C-15 31.68 -15 30.36 -15 29 C-14.39768555 28.79584473 -13.79537109 28.59168945 -13.17480469 28.38134766 C-10.08887442 26.42129002 -9.52890211 24.27601251 -8.203125 20.8984375 C-7.71972656 19.68671875 -7.23632812 18.475 -6.73828125 17.2265625 C-6.24188913 15.94282367 -5.74579921 14.65896794 -5.25 13.375 C-4.73954275 12.08283428 -4.22783786 10.79116068 -3.71484375 9.5 C-2.46418855 6.3379661 -1.22655322 3.17144384 0 0 Z M1 9 C0.34 11.64 -0.32 14.28 -1 17 C0.65 17 2.3 17 4 17 C3.55296014 12.52116304 3.55296014 12.52116304 1 9 Z " fill="#010101" transform="translate(159,200)"/>
<path d="M0 0 C3.96930989 -0.02465881 7.93859034 -0.04284023 11.90795898 -0.05493164 C13.25920386 -0.05997057 14.61044326 -0.06680177 15.96166992 -0.07543945 C17.90020434 -0.08752419 19.838778 -0.09269828 21.77734375 -0.09765625 C23.52905884 -0.10551147 23.52905884 -0.10551147 25.31616211 -0.11352539 C28 0 28 0 29 1 C29.07179964 2.51928038 29.08392007 4.04167482 29.0625 5.5625 C29.05347656 6.38878906 29.04445313 7.21507812 29.03515625 8.06640625 C29.02355469 8.70449219 29.01195312 9.34257812 29 10 C28.01 10.33 27.02 10.66 26 11 C23 7.25 23 7.25 23 5 C21.35 5 19.7 5 18 5 C18 12.59 18 20.18 18 28 C19.65 28.33 21.3 28.66 23 29 C22.67 30.32 22.34 31.64 22 33 C17.05 33 12.1 33 7 33 C6.67 31.68 6.34 30.36 6 29 C7.65 28.67 9.3 28.34 11 28 C11 20.41 11 12.82 11 5 C5.9777893 5.40877239 5.9777893 5.40877239 4.1875 8.5625 C3.5996875 9.7690625 3.5996875 9.7690625 3 11 C2.01 10.67 1.02 10.34 0 10 C0 6.7 0 3.4 0 0 Z " fill="#010101" transform="translate(308,200)"/>
<path d="M0 0 C3.96930989 -0.02465881 7.93859034 -0.04284023 11.90795898 -0.05493164 C13.25920386 -0.05997057 14.61044326 -0.06680177 15.96166992 -0.07543945 C17.90020434 -0.08752419 19.838778 -0.09269828 21.77734375 -0.09765625 C23.52905884 -0.10551147 23.52905884 -0.10551147 25.31616211 -0.11352539 C28 0 28 0 29 1 C29.37086093 6.8410596 29.37086093 6.8410596 29 9 C28.01 9.66 27.02 10.32 26 11 C24 10 24 10 23.1875 8 C22.795625 7.34 22.40375 6.68 22 6 C19.525 5.505 19.525 5.505 17 5 C17 12.59 17 20.18 17 28 C18.98 28.33 20.96 28.66 23 29 C22.67 30.32 22.34 31.64 22 33 C16.72 33 11.44 33 6 33 C5.505 31.515 5.505 31.515 5 30 C6.98 29.34 8.96 28.68 11 28 C11 20.41 11 12.82 11 5 C5.17244186 6.24841377 5.17244186 6.24841377 3.625 9.125 C3.41875 9.74375 3.2125 10.3625 3 11 C2.01 10.67 1.02 10.34 0 10 C0 6.7 0 3.4 0 0 Z " fill="#020202" transform="translate(339,200)"/>
<path d="M0 0 C5.28 0 10.56 0 16 0 C16 1.32 16 2.64 16 4 C14.35 4.33 12.7 4.66 11 5 C11.03927612 5.96039185 11.03927612 5.96039185 11.0793457 6.94018555 C11.18361281 9.85570502 11.24841753 12.77083198 11.3125 15.6875 C11.35439453 16.69490234 11.39628906 17.70230469 11.43945312 18.74023438 C11.56384506 26.27838589 11.56384506 26.27838589 8.54296875 30.14453125 C7.70378906 30.75683594 6.86460938 31.36914062 6 32 C5.505 32.495 5.505 32.495 5 33 C3.0390625 33.16796875 3.0390625 33.16796875 0.625 33.1875 C-0.56222656 33.20876953 -0.56222656 33.20876953 -1.7734375 33.23046875 C-4 33 -4 33 -7 31 C-7.328125 29.125 -7.328125 29.125 -7.25 27 C-7.22679687 25.948125 -7.22679687 25.948125 -7.203125 24.875 C-7 23 -7 23 -6 21 C-4.125 21.125 -4.125 21.125 -2 22 C-0.75 25.0625 -0.75 25.0625 0 28 C0.99 27.67 1.98 27.34 3 27 C4.17469444 24.65061112 4.20034889 23.04926795 4.31640625 20.4296875 C4.35830078 19.53378906 4.40019531 18.63789063 4.44335938 17.71484375 C4.50233398 16.30912109 4.50233398 16.30912109 4.5625 14.875 C4.60568359 13.93011719 4.64886719 12.98523438 4.69335938 12.01171875 C4.79959072 9.67462908 4.90163176 7.3374317 5 5 C3.35 4.67 1.7 4.34 0 4 C0 2.68 0 1.36 0 0 Z " fill="#090909" transform="translate(8,200)"/>
<path d="M0 0 C5.61 0 11.22 0 17 0 C17 1.32 17 2.64 17 4 C15.68 4.33 14.36 4.66 13 5 C12.67 12.59 12.34 20.18 12 28 C13.65 28.33 15.3 28.66 17 29 C16.67 30.32 16.34 31.64 16 33 C11.05 33 6.1 33 1 33 C0.67 31.68 0.34 30.36 0 29 C1.65 28.67 3.3 28.34 5 28 C4.67 20.41 4.34 12.82 4 5 C2.68 4.67 1.36 4.34 0 4 C0 2.68 0 1.36 0 0 Z " fill="#000000" transform="translate(253,200)"/>
<path d="M0 0 C3 0.25 3 0.25 5 2.25 C5.36796448 5.12012296 5.37509409 6.65774618 3.8125 9.125 C2 10.25 2 10.25 -0.5625 10.0625 C-3 9.25 -3 9.25 -5 7.25 C-5.25 4.75 -5.25 4.75 -5 2.25 C-3 0.25 -3 0.25 0 0 Z " fill="#050505" transform="translate(368,222.75)"/>
<path d="M0 0 C0.66 0 1.32 0 2 0 C1.67 1.32 1.34 2.64 1 4 C-1.64 4 -4.28 4 -7 4 C-7.33 3.34 -7.66 2.68 -8 2 C-5.36 2 -2.72 2 0 2 C0 1.34 0 0.68 0 0 Z " fill="#757575" transform="translate(247,229)"/>
</svg>
