<svg xmlns="http://www.w3.org/2000/svg" width="164" height="38" viewBox="0 0 164 38" fill="none">
  <path d="M0 38V14.5053C0.129366 13.1829 0.490098 11.2866 1.51508 9.23765C2.54503 7.18389 3.79142 5.87607 4.21933 5.44497C4.90099 4.762 6.15235 3.64066 8.00826 2.70581C8.41875 2.49995 10.2 1.62323 12.7699 1.23088C13.7874 1.07588 15.6981 0.799786 17.9645 1.23088C21.5146 1.90659 23.8979 3.93371 25 5.02356C24.3805 4.88794 23.4352 4.84676 22.2933 4.91942C19.7706 5.07684 18.0117 5.97779 17.2082 6.49849C16.3524 7.0531 15.0637 8.01702 14.0686 9.65906C13.1779 11.134 12.7699 12.5048 12.663 14.716V38" fill="#fff"/>
  <path d="M17.2165 25.5102C17.0722 24.6574 17 23.7923 17 22.9271V13.9637C17.0124 13.4033 17.1145 12.2162 17.8658 10.9701C18.8113 9.39962 20.1922 8.72374 20.6798 8.50991C22.2598 7.82174 23.6605 8.00116 24.2502 8.08472C24.907 8.17566 26.1934 8.37228 27.3901 9.36767C27.5792 9.52497 28.4625 10.2795 29.0123 11.6116C29.3134 12.3391 29.4129 12.9879 29.4453 13.4303V22.846C29.4453 24.1634 29.7289 25.4684 30.2987 26.658C30.3036 26.6678 30.3086 26.6777 30.3111 26.6875C31.264 28.6635 32.5305 29.8826 33.0181 30.3225C33.8392 31.0623 35.4937 32.5198 38.1062 32.9941C39.7807 33.3013 41.1839 33.0801 42 32.8884C41.4576 33.3578 40.6614 33.9846 39.6214 34.599C38.2455 35.4125 34.8941 37.3296 30.4206 36.9511C25.5888 36.5406 22.424 33.7044 21.2197 32.4608C18.657 29.8088 17.5449 26.8964 17.2165 25.5102Z" fill="#fff"/>
  <path d="M34 21.812V12.7279C34.0597 11.7265 34.2687 10.2388 34.9752 8.57692C36.1594 5.79448 38.0452 4.1851 38.8711 3.49604C41.7296 1.10939 44.715 0.43703 45.4713 0.282053C46.1131 0.148534 48.9169 -0.380774 52.3998 0.4871C55.6788 1.30729 57.8904 2.95243 59 3.91091C58.3631 3.81554 57.4675 3.73447 56.4027 3.80838C53.8254 3.98243 52.0292 4.94091 51.6411 5.15549C49.5389 6.31425 48.4243 7.84971 48.0711 8.37187C47.7004 8.91787 46.954 10.0432 46.663 11.6908C46.5361 12.4037 46.5311 13.0164 46.556 13.4527L46.4465 22.4772C46.4515 23.0518 46.3818 24.4847 45.3643 25.7961C43.8617 27.7297 41.4485 27.9109 40.6026 27.9729C39.7344 28.0397 37.5252 28.1088 35.841 26.5209C34.9056 25.6411 34.4578 24.7017 34.3259 24.1366C34.1095 23.3784 34 22.5988 34 21.812Z" fill="#fff"/>
  <path d="M50 37V14.681C50 13.2955 50.3749 11.9298 51.1224 10.7826C51.158 10.7237 51.1983 10.6647 51.2386 10.6057C51.6064 10.0776 52.1736 9.27191 53.201 8.68237C54.9 7.70717 56.6227 8.02651 57.2254 8.14933C57.8258 8.26969 59.1688 8.55955 60.3221 9.75091C61.4373 10.903 61.7411 12.2368 61.8716 12.8509C62.078 13.8237 61.9736 14.5606 61.9736 15.2017V37" fill="#fff"/>
  <path d="M89 37H85.6233V29.1236C85.6233 27.6283 85.5214 26.7182 85.3175 26.3931C85.0941 26.028 84.5722 25.848 83.7541 25.848H83.5599C82.7394 25.848 82.22 26.028 81.9966 26.3931C81.7903 26.7182 81.6883 27.6283 81.6883 29.1236V37H78.3117V29.1236C78.3117 27.6283 78.2097 26.7182 78.0058 26.3931C77.7825 26.028 77.2606 25.848 76.4425 25.848H76.2483C75.4278 25.848 74.9083 26.028 74.6825 26.3931C74.4786 26.7182 74.3767 27.6283 74.3767 29.1236V37H71V28.5485C71 26.6707 71.2233 25.3679 71.67 24.6403C72.34 23.5476 73.6606 23 75.6341 23H77.1392C77.865 23 78.4428 23.0925 78.87 23.275C79.2972 23.4576 79.6784 23.7676 80.0158 24.2077C80.7222 23.4026 81.698 23 82.9458 23H84.3683C86.3394 23 87.6624 23.5476 88.33 24.6403C88.7791 25.3679 89 26.6607 89 28.521" fill="#fff"/>
  <path d="M99.5366 28.5674V27.7424C99.5366 26.4555 98.9365 25.8133 97.7362 25.8133H97.459C96.6275 25.8133 96.0828 26.0579 95.8249 26.5519C95.6394 26.873 95.5188 27.6189 95.4634 28.7946H99.3438C99.4715 28.7946 99.5366 28.7181 99.5366 28.5674ZM103 34.8412C102.429 35.6193 101.783 36.1725 101.062 36.5035C100.342 36.8345 99.4354 37 98.346 37H97.0156C95.4273 37 94.2463 36.6023 93.4702 35.807C92.9159 35.2586 92.5326 34.5498 92.3181 33.6778C92.106 32.8084 92 31.5857 92 30.0148C92 28.4439 92.106 27.2188 92.3181 26.337C92.5326 25.4577 92.9159 24.7438 93.4702 24.193C94.2463 23.3977 95.4273 23 97.0156 23H98.0977C99.5366 23 100.691 23.3804 101.559 24.1362C102.429 24.8945 102.863 26.0505 102.863 27.6016V28.9083C102.863 29.7604 102.682 30.3878 102.323 30.7953C101.961 31.2029 101.301 31.4054 100.342 31.4054H95.4634C95.5188 32.3712 95.649 33.0529 95.8514 33.4506C96.1093 33.9421 96.6661 34.1891 97.5145 34.1891H98.346C99.3799 34.1891 100.267 33.7544 101.007 32.8825" fill="#fff"/>
  <path d="M112 25.848H110.576C109.707 25.848 109.153 26.0305 108.915 26.3931C108.699 26.7182 108.59 27.6283 108.59 29.1236V37H105V28.5485C105 26.6707 105.24 25.3679 105.712 24.6403C106.426 23.5476 107.829 23 109.924 23H112" fill="#fff"/>
  <path d="M119 37H117.93C116.521 37 115.514 36.7097 114.909 36.1242C114.302 35.5412 114 34.575 114 33.2256V17H117.235V32.2118C117.235 33.0876 117.305 33.6349 117.449 33.8539C117.644 34.1466 118 34.2918 118.516 34.2918H119" fill="#fff"/>
  <path d="M124.851 37H121.212V23.3759H124.851V37ZM124.43 18.5418C124.809 18.9005 125 19.3483 125 19.8777C125 20.4096 124.809 20.8599 124.43 21.2285C124.048 21.5996 123.577 21.7852 123.014 21.7852C122.455 21.7852 121.978 21.5996 121.586 21.2285C121.196 20.8599 121 20.4096 121 19.8777C121 19.3483 121.196 18.9005 121.586 18.5418C121.978 18.1806 122.455 18 123.014 18C123.577 18 124.048 18.1806 124.43 18.5418Z" fill="#fff"/>
  <path d="M139 37H135.578V29.1236C135.578 27.6283 135.475 26.7182 135.266 26.3931C135.04 26.028 134.513 25.848 133.684 25.848H133.316C132.487 25.848 131.958 26.028 131.731 26.3931C131.525 26.7182 131.422 27.6283 131.422 29.1236V37H128V28.5485C128 26.6707 128.226 25.3679 128.679 24.6403C129.358 23.5476 130.696 23 132.693 23H134.307C136.304 23 137.642 23.5476 138.321 24.6403C138.774 25.3679 139 26.6607 139 28.521" fill="#fff"/>
  <path d="M148.537 28.5674V27.7424C148.537 26.4555 147.934 25.8133 146.736 25.8133H146.459C145.628 25.8133 145.08 26.0579 144.823 26.5519C144.639 26.873 144.519 27.6189 144.463 28.7946H148.344C148.472 28.7946 148.537 28.7181 148.537 28.5674ZM152 34.8412C151.429 35.6193 150.78 36.1725 150.06 36.5035C149.342 36.8345 148.435 37 147.346 37H146.016C144.427 37 143.244 36.6023 142.468 35.807C141.913 35.2586 141.53 34.5498 141.318 33.6778C141.106 32.8084 141 31.5857 141 30.0148C141 28.4439 141.106 27.2188 141.318 26.337C141.53 25.4577 141.913 24.7438 142.468 24.193C143.244 23.3977 144.427 23 146.016 23H147.095C148.537 23 149.691 23.3804 150.559 24.1362C151.429 24.8945 151.863 26.0505 151.863 27.6016V28.9083C151.863 29.7604 151.682 30.3878 151.323 30.7953C150.961 31.2029 150.298 31.4054 149.342 31.4054H144.463C144.519 32.3712 144.649 33.0529 144.851 33.4506C145.109 33.9421 145.664 34.1891 146.514 34.1891H147.346C148.38 34.1891 149.267 33.7544 150.004 32.8825" fill="#fff"/>
  <path d="M164 33.1394C164 34.3126 163.604 35.2488 162.811 35.9502C162.02 36.6493 160.84 37 159.276 37H158.503C157.397 37 156.552 36.8765 155.961 36.632C155.372 36.385 154.718 35.8663 154 35.0685L155.795 32.8553C156.256 33.3864 156.669 33.7396 157.039 33.9199C157.407 34.1002 157.904 34.1891 158.529 34.1891H159.221C160.271 34.1891 160.795 33.7643 160.795 32.9121C160.795 32.6478 160.783 32.4428 160.754 32.2996C160.728 32.1588 160.648 32.018 160.519 31.8747C160.391 31.7339 160.206 31.6253 159.966 31.5487L157.203 30.6965C156.21 30.3927 155.497 30 155.064 29.5183C154.63 29.0342 154.413 28.3303 154.413 27.4016V26.8063C154.413 25.5565 154.805 24.6104 155.588 23.9658C156.371 23.3236 157.371 23 158.584 23H159.745C160.74 23 161.513 23.1235 162.066 23.3705C162.618 23.6175 163.207 24.109 163.834 24.8476L161.871 26.9767C161.448 26.5025 161.107 26.1912 160.85 26.0406C160.593 25.8874 160.233 25.8133 159.774 25.8133H158.834C158.005 25.8133 157.59 26.1443 157.59 26.8063C157.59 27.1471 157.64 27.4016 157.743 27.572C157.844 27.7424 158.077 27.8857 158.447 27.9993L161.21 28.8514C162.203 29.1528 162.916 29.5505 163.349 30.0445C163.781 30.536 164 31.2449 164 32.1736" fill="#fff"/>
</svg>