<?xml version="1.0" encoding="UTF-8"?>
<svg version="1.1" xmlns="http://www.w3.org/2000/svg" width="582" height="190">
<path d="M0 0 C7.31330034 5.90946755 11.80981147 12.86605533 13.88671875 22.0390625 C14.79622642 35.45430061 13.8884878 45.99326084 5.13671875 56.7265625 C-1.06392751 63.41353396 -9.79016016 68.25463844 -18.9296875 68.96484375 C-29.74853065 69.19451752 -39.74297738 67.37760258 -47.86328125 59.7265625 C-56.45109044 50.4542178 -59.19321307 39.66314818 -59.078125 27.3359375 C-58.58406162 19.03567278 -55.73392082 12.39092202 -50.86328125 5.7265625 C-50.27289063 4.90285156 -49.6825 4.07914063 -49.07421875 3.23046875 C-46.58674864 0.41338687 -44.18416922 -1.16619744 -40.92578125 -3.0234375 C-39.90613281 -3.61640625 -38.88648438 -4.209375 -37.8359375 -4.8203125 C-25.49129769 -10.85474878 -10.76132914 -7.62495573 0 0 Z " fill="#060606" transform="translate(463.86328125,34.2734375)"/>
<path d="M0 0 C8.29887819 5.61098242 14.04506127 13.50611921 16.45703125 23.21875 C17.83562345 31.9798967 17.65601633 40.78149919 13.875 48.875 C13.52308594 49.63425781 13.17117187 50.39351562 12.80859375 51.17578125 C7.67748657 61.25171779 0.70278218 66.59907261 -9.875 70.125 C-20.61668183 72.4327832 -30.83749145 70.91134733 -40.4453125 65.58984375 C-48.41195499 60.15253452 -52.88461716 52.11080854 -55.125 42.875 C-55.54075509 39.38366716 -55.60273309 35.95087041 -55.5625 32.4375 C-55.55492676 31.51171143 -55.54735352 30.58592285 -55.53955078 29.63208008 C-55.37979626 23.02908752 -54.68727726 17.5701768 -51.125 11.875 C-50.72410156 11.17632812 -50.32320313 10.47765625 -49.91015625 9.7578125 C-38.97084818 -7.04750134 -16.56478894 -9.2775659 0 0 Z " fill="#060606" transform="translate(158.125,32.125)"/>
<path d="M0 0 C11.88 0 23.76 0 36 0 C36 0.99 36 1.98 36 3 C33.36 3 30.72 3 28 3 C28.33 12.9 28.66 22.8 29 33 C31.31 30.36 33.62 27.72 36 25 C37.49570227 23.32947538 38.99504266 21.66219168 40.5 20 C43.32544666 16.86544464 46.14504403 13.72650936 48.9375 10.5625 C49.48277344 9.94503906 50.02804687 9.32757813 50.58984375 8.69140625 C52.18122039 6.84382494 52.18122039 6.84382494 54 4 C51.69 3.67 49.38 3.34 47 3 C47 2.01 47 1.02 47 0 C54.92 0 62.84 0 71 0 C71 0.99 71 1.98 71 3 C69.82244141 2.9690625 69.82244141 2.9690625 68.62109375 2.9375 C62.44948284 2.95717878 62.44948284 2.95717878 56.99609375 5.4609375 C55.33251639 7.37669861 55.33251639 7.37669861 53.8046875 9.5390625 C50.8799821 13.52729714 47.28542849 16.94147067 43.84375 20.484375 C41.81895629 22.7429195 41.81895629 22.7429195 41.95703125 24.953125 C43.4296642 27.8432361 45.25724015 30.40616639 47.1875 33 C48.09354221 34.24269247 48.99841974 35.48623467 49.90234375 36.73046875 C50.39589355 37.40770996 50.88944336 38.08495117 51.39794922 38.78271484 C54.39303081 42.92799541 57.31884232 47.12190012 60.25 51.3125 C61.11661255 52.54709961 61.11661255 52.54709961 62.00073242 53.80664062 C62.56252197 54.60908203 63.12431152 55.41152344 63.703125 56.23828125 C64.52659424 57.413302 64.52659424 57.413302 65.36669922 58.61206055 C66.48435137 60.24610475 67.57341601 61.8999707 68.63720703 63.56958008 C69.41620361 64.79197388 69.41620361 64.79197388 70.2109375 66.0390625 C70.66774902 66.77463379 71.12456055 67.51020508 71.59521484 68.26806641 C73.01696821 70.34639103 73.01696821 70.34639103 76.375 71.0625 C77.24125 71.041875 78.1075 71.02125 79 71 C79 71.99 79 72.98 79 74 C67.12 74 55.24 74 43 74 C43 73.01 43 72.02 43 71 C44.65 71 46.3 71 48 71 C41.93855438 61.46112639 35.78526299 52.04701733 29 43 C28.67 52.24 28.34 61.48 28 71 C30.64 71 33.28 71 36 71 C36 71.99 36 72.98 36 74 C24.12 74 12.24 74 0 74 C0 73.01 0 72.02 0 71 C2.64 71 5.28 71 8 71 C8 48.56 8 26.12 8 3 C5.36 3 2.72 3 0 3 C0 2.01 0 1.02 0 0 Z " fill="#060606" transform="translate(315,28)"/>
<path d="M0 0 C6.06114037 -0.46328095 12.10415583 -0.72400657 18.18359375 -0.6015625 C19.68877563 -0.57570068 19.68877563 -0.57570068 21.22436523 -0.54931641 C24.70012396 0.13855914 26.15471304 1.44798523 28.5625 4 C29.0678125 4.90621094 29.573125 5.81242187 30.09375 6.74609375 C32.66307227 11.13184262 36.02721926 14.44009546 39.5625 18.0625 C44.20925901 22.93504464 48.62602425 27.82127046 52.64453125 33.234375 C54.56352173 35.73403983 56.70906395 37.83997458 59 40 C59.66 40.66 60.32 41.32 61 42 C61.33 29.13 61.66 16.26 62 3 C59.36 3 56.72 3 54 3 C54 2.01 54 1.02 54 0 C60.6 0 67.2 0 74 0 C74 0.99 74 1.98 74 3 C71.03 3 68.06 3 65 3 C65 26.43 65 49.86 65 74 C60.43499708 72.85874927 58.81755708 71.01638617 55.875 67.625 C54.89846541 66.52862097 53.92190228 65.43226736 52.9453125 64.3359375 C52.45450195 63.77874023 51.96369141 63.22154297 51.45800781 62.64746094 C49.25153632 60.15428116 46.99877943 57.70508947 44.75 55.25 C41.37923238 51.53950147 38.05189543 47.7970723 34.765625 44.01171875 C32.76589316 41.73326323 30.72708706 39.49283262 28.6875 37.25 C24.31515157 32.41938137 20.17851915 27.42275045 16.06640625 22.37109375 C14.22400225 19.95347178 14.22400225 19.95347178 12 19 C12 36.16 12 53.32 12 71 C14.64 71 17.28 71 20 71 C20 71.99 20 72.98 20 74 C13.4 74 6.8 74 0 74 C0 73.01 0 72.02 0 71 C2.97 71 5.94 71 9 71 C9 48.56 9 26.12 9 3 C6.03 3 3.06 3 0 3 C0 2.01 0 1.02 0 0 Z " fill="#040404" transform="translate(16,28)"/>
<path d="M0 0 C4.5958362 3.25538397 7.14988139 7.73276954 8.56542969 13.1730957 C9.13223276 16.86018153 9.18209807 20.50907653 9.203125 24.23046875 C9.20882507 25.02093094 9.21452515 25.81139313 9.22039795 26.62580872 C9.22981888 28.29585444 9.23637034 29.9659185 9.24023438 31.63598633 C9.24990225 34.16196093 9.28093696 36.68710793 9.3125 39.21289062 C9.37558166 48.81662711 9.37581717 57.59869252 4.125 66 C-0.16382455 70.03654075 -4.16320506 70.2264347 -9.81640625 70.265625 C-12.36924948 69.95508235 -13.86283445 69.4394958 -16 68 C-17.44921875 65.8984375 -17.44921875 65.8984375 -18.6875 63.375 C-19.10386719 62.55773437 -19.52023437 61.74046875 -19.94921875 60.8984375 C-22.77339467 53.10833144 -22.21766072 44.56673938 -22.24023438 36.38378906 C-22.24991544 34.26847621 -22.28100502 32.15414751 -22.3125 30.0390625 C-22.47637648 9.15260726 -22.47637648 9.15260726 -16.5 2.8125 C-11.51914566 -0.7986194 -5.94417906 -0.76699085 0 0 Z " fill="#FBFBFB" transform="translate(448,30)"/>
<path d="M0 0 C5.71120345 5.43260816 6.39934375 12.44168015 6.70776367 19.99511719 C6.72808133 23.3411946 6.74818402 26.68706413 6.74780273 30.03320312 C6.74998029 32.16817441 6.76815346 34.30262038 6.78710938 36.4375 C6.87744714 58.00815043 6.87744714 58.00815043 0.5625 65.4375 C-3.38850647 69.01058412 -6.57807625 69.00602233 -11.7421875 68.84765625 C-16.11923338 68.18158405 -17.56356503 66.81437359 -20.4375 63.4375 C-25.27547636 54.59568114 -24.6506677 44.63295781 -24.67773438 34.82128906 C-24.68741544 32.70597621 -24.71850502 30.59164751 -24.75 28.4765625 C-24.91387648 7.59010726 -24.91387648 7.59010726 -18.9375 1.25 C-13.3168569 -2.82496625 -6.18396883 -2.81089492 0 0 Z " fill="#FBFBFB" transform="translate(147.4375,31.5625)"/>
<path d="M0 0 C12.87 0 25.74 0 39 0 C39 0.99 39 1.98 39 3 C36.36 3.33 33.72 3.66 31 4 C31.45890625 5.03898437 31.9178125 6.07796875 32.390625 7.1484375 C35.34868281 13.86520614 38.275155 20.57892685 40.9609375 27.41015625 C42.32614578 30.81291222 43.75105504 34.18938524 45.1875 37.5625 C45.69667969 38.76003906 46.20585938 39.95757812 46.73046875 41.19140625 C47.73384412 43.85153974 47.73384412 43.85153974 49 45 C49.21092285 44.43716309 49.4218457 43.87432617 49.63916016 43.29443359 C53.46894881 33.09759532 57.31360304 22.94900776 61.7734375 13.0078125 C63.12133364 9.7024621 64.07602219 6.44548733 65 3 C62.69 3 60.38 3 58 3 C58 2.01 58 1.02 58 0 C64.6 0 71.2 0 78 0 C78 0.99 78 1.98 78 3 C73.545 3.495 73.545 3.495 69 4 C59.9629533 27.38153647 59.9629533 27.38153647 51.22265625 50.875 C50.91545654 51.71619385 50.60825684 52.5573877 50.29174805 53.42407227 C49.70305386 55.03808203 49.11704526 56.65307529 48.53442383 58.26928711 C46.58232659 63.62207317 44.37384646 68.82090761 42 74 C40.68 74 39.36 74 38 74 C37.10333458 71.91702466 36.20772431 69.83359511 35.3125 67.75 C35.04066895 67.11755371 34.76883789 66.48510742 34.48876953 65.83349609 C32.74968767 61.77766886 31.05080678 57.70749503 29.375 53.625 C28.0091591 50.32167232 26.58962939 47.10675988 24.9375 43.9375 C22.93759815 40.05769041 21.51834604 36.04066998 20.06640625 31.9296875 C17.11010406 23.80797819 13.62259057 15.8463097 10 8 C9.71769531 7.27296875 9.43539063 6.5459375 9.14453125 5.796875 C8.15630884 3.81958085 8.15630884 3.81958085 6.0546875 3.390625 C4.03645833 3.26041667 2.01822917 3.13020833 0 3 C0 2.01 0 1.02 0 0 Z " fill="#050505" transform="translate(485,28)"/>
<path d="M0 0 C12.87 0 25.74 0 39 0 C39 0.99 39 1.98 39 3 C36.36 3.33 33.72 3.66 31 4 C31.45890625 5.03898437 31.9178125 6.07796875 32.390625 7.1484375 C35.39959896 13.98119621 38.36870061 20.81277505 41.1015625 27.76171875 C43.46246135 33.64343633 46.14700685 39.3425065 49 45 C54.48659888 31.38932742 59.94837191 17.77903435 65 4 C62.69 3.67 60.38 3.34 58 3 C58 2.01 58 1.02 58 0 C64.6 0 71.2 0 78 0 C78 0.99 78 1.98 78 3 C73.545 3.495 73.545 3.495 69 4 C68.52433594 5.28003906 68.52433594 5.28003906 68.0390625 6.5859375 C64.73198673 15.4558526 61.34882189 24.29465443 57.9375 33.125 C54.87582696 41.05132503 51.8994901 48.98882185 49.08984375 57.0078125 C46.99499227 62.75926853 44.73944609 68.52110783 42 74 C40.68 74 39.36 74 38 74 C37.78384033 73.48203857 37.56768066 72.96407715 37.3449707 72.43041992 C32.58146758 60.92689102 32.58146758 60.92689102 27.5 49.5625 C24.71919588 43.56727485 22.33840368 37.4105563 19.94140625 31.25415039 C18.12648704 26.63654219 16.16012692 22.18472994 13.89477539 17.77075195 C12.72479479 15.45537153 11.71717924 13.09393406 10.75 10.6875 C10.41484375 9.86636719 10.0796875 9.04523437 9.734375 8.19921875 C9 6 9 6 9 3 C6.03 3 3.06 3 0 3 C0 2.01 0 1.02 0 0 Z " fill="#050505" transform="translate(182,28)"/>
<path d="M0 0 C11.88 0 23.76 0 36 0 C36 0.99 36 1.98 36 3 C33.03 3 30.06 3 27 3 C27 25.44 27 47.88 27 71 C29.97 71 32.94 71 36 71 C36 71.99 36 72.98 36 74 C23.79 74 11.58 74 -1 74 C-1 73.01 -1 72.02 -1 71 C1.97 71 4.94 71 8 71 C8 48.56 8 26.12 8 3 C5.36 3 2.72 3 0 3 C0 2.01 0 1.02 0 0 Z " fill="#030303" transform="translate(267,28)"/>
<path d="M0 0 C25.41 0 50.82 0 77 0 C77 0.99 77 1.98 77 3 C51.59 3 26.18 3 0 3 C0 2.01 0 1.02 0 0 Z " fill="#5E5E5E" transform="translate(486,136)"/>
<path d="M0 0 C25.41 0 50.82 0 77 0 C77 0.99 77 1.98 77 3 C51.59 3 26.18 3 0 3 C0 2.01 0 1.02 0 0 Z " fill="#5E5E5E" transform="translate(16,136)"/>
<path d="M0 0 C0.66 0.33 1.32 0.66 2 1 C1.67 18.16 1.34 35.32 1 53 C3.64 53 6.28 53 9 53 C9 53.99 9 54.98 9 56 C2.4 56 -4.2 56 -11 56 C-11 55.01 -11 54.02 -11 53 C-8.03 53 -5.06 53 -2 53 C-2 35.84 -2 18.68 -2 1 C-1.34 0.67 -0.68 0.34 0 0 Z " fill="#1A1A1A" transform="translate(27,46)"/>
<path d="M0 0 C6.6 0 13.2 0 20 0 C20 0.99 20 1.98 20 3 C15.545 3.495 15.545 3.495 11 4 C9.91543109 6.81151158 8.83150211 9.62326766 7.74829102 12.43530273 C6.83037734 14.81796187 5.91159016 17.20028466 4.99194336 19.58227539 C2.99303852 24.76979982 0.99904859 29.95655722 -0.89453125 35.18359375 C-1.16120605 35.91642578 -1.42788086 36.64925781 -1.70263672 37.40429688 C-2.3905071 39.30748111 -3.06866043 41.21416952 -3.74609375 43.12109375 C-4.89896947 45.76803894 -5.78848818 47.20113178 -8 49 C-8.66 48.67 -9.32 48.34 -10 48 C-8.33926615 42.76360448 -6.31397964 37.71107881 -4.25 32.625 C1.67851956 17.92619139 1.67851956 17.92619139 7 3 C4.69 3 2.38 3 0 3 C0 2.01 0 1.02 0 0 Z " fill="#1C1C1C" transform="translate(543,28)"/>
<path d="M0 0 C6.6 0 13.2 0 20 0 C20 0.99 20 1.98 20 3 C15.545 3.495 15.545 3.495 11 4 C10.67128906 4.8765625 10.34257812 5.753125 10.00390625 6.65625 C5.3359375 19.10416667 0.66796875 31.55208333 -4 44 C-5.32 44 -6.64 44 -8 44 C-6.26376311 37.61968231 -4.07324231 31.591612 -1.47265625 25.515625 C0.36729286 21.12317353 2.09359255 16.69094629 3.8125 12.25 C4.12670898 11.43853516 4.44091797 10.62707031 4.76464844 9.79101562 C5.51092763 7.86112602 6.25563532 5.93062884 7 4 C4.69 3.67 2.38 3.34 0 3 C0 2.01 0 1.02 0 0 Z " fill="#1B1B1B" transform="translate(240,28)"/>
<path d="M0 0 C3 0.5625 3 0.5625 5.375 2.125 C7.62340519 5.49760779 7.56783945 7.58762383 7 11.5625 C5.375 14 5.375 14 3 15.5625 C-0.6717087 16.17445145 -2.28813568 16.04956506 -5.375 13.9375 C-7.49970879 10.83215639 -7.60386292 9.2611604 -7 5.5625 C-5.00082867 2.02550457 -4.03889466 0.75729275 0 0 Z " fill="#F4F4F4" transform="translate(313,129.4375)"/>
<path d="M0 0 C0 0.66 0 1.32 0 2 C0.66 2 1.32 2 2 2 C2.48372093 9.25581395 2.48372093 9.25581395 0.375 12.5 C-2.74326051 14.46942769 -4.37720527 14.67927401 -8 14 C-10.4375 11.9375 -10.4375 11.9375 -12 9 C-12 5.19715329 -11.7968187 2.98069994 -9.375 0 C-6.01155688 -1.41618658 -3.50376557 -0.74118118 0 0 Z " fill="#F4F4F4" transform="translate(243,131)"/>
<path d="M0 0 C4.91511194 1.34048507 4.91511194 1.34048507 6.4375 3.9375 C7.14291917 7.9936602 6.75870577 9.48002512 4.375 12.875 C1.4375 14.9375 1.4375 14.9375 -2.25 14.9375 C-5.5625 13.9375 -5.5625 13.9375 -7.5625 10.9375 C-7.9877996 7.03892037 -8.10201751 4.80072801 -6 1.4375 C-3.5625 -0.0625 -3.5625 -0.0625 0 0 Z " fill="#F5F5F5" transform="translate(158.5625,130.0625)"/>
<path d="M0 0 C7.92 0 15.84 0 24 0 C24 0.99 24 1.98 24 3 C22.82244141 2.9690625 22.82244141 2.9690625 21.62109375 2.9375 C15.44948284 2.95717878 15.44948284 2.95717878 9.99609375 5.4609375 C8.21286072 7.56644156 6.62307299 9.76871666 5 12 C3.24545655 13.95688837 1.48087358 15.89235457 -0.3125 17.8125 C-2.77818609 20.4896385 -4.9799588 22.96993819 -7 26 C-9.95264073 28.04413589 -11.36672806 29 -15 29 C-14.59910156 28.62230469 -14.19820313 28.24460937 -13.78515625 27.85546875 C-9.19498406 23.41101631 -5.16224382 18.64116313 -1.15625 13.66796875 C1.49677479 10.38533119 4.23594513 7.18929408 7 4 C4.69 3.67 2.38 3.34 0 3 C0 2.01 0 1.02 0 0 Z " fill="#222222" transform="translate(362,28)"/>
<path d="M0 0 C2.97 0 5.94 0 9 0 C9.19397476 1.97854258 9.38001321 3.9578648 9.5625 5.9375 C9.66691406 7.03964844 9.77132813 8.14179688 9.87890625 9.27734375 C9.91886719 10.17582031 9.95882813 11.07429687 10 12 C9 13 9 13 6.71484375 13.09765625 C5.34005859 13.08025391 5.34005859 13.08025391 3.9375 13.0625 C3.01839844 13.05347656 2.09929687 13.04445312 1.15234375 13.03515625 C0.44207031 13.02355469 -0.26820313 13.01195312 -1 13 C-0.34 12.67 0.32 12.34 1 12 C0.67 8.04 0.34 4.08 0 0 Z " fill="#CECECE" transform="translate(298,163)"/>
<path d="M0 0 C6.6 0 13.2 0 20 0 C20 0.99 20 1.98 20 3 C15.545 3.495 15.545 3.495 11 4 C10.67386719 4.92683594 10.34773437 5.85367188 10.01171875 6.80859375 C9.57472656 8.00613281 9.13773438 9.20367187 8.6875 10.4375 C8.25824219 11.63246094 7.82898438 12.82742187 7.38671875 14.05859375 C6.92910156 15.02925781 6.47148438 15.99992187 6 17 C5.01 17.33 4.02 17.66 3 18 C3.67415387 12.7415998 5.24265549 7.97361654 7 3 C4.69 3 2.38 3 0 3 C0 2.01 0 1.02 0 0 Z " fill="#0F0F0F" transform="translate(543,28)"/>
<path d="M0 0 C6.6 0 13.2 0 20 0 C20 0.99 20 1.98 20 3 C16.37 3.33 12.74 3.66 9 4 C9 17.2 9 30.4 9 44 C8.34 43.67 7.68 43.34 7 43 C7.33 29.8 7.66 16.6 8 3 C5.36 3 2.72 3 0 3 C0 2.01 0 1.02 0 0 Z " fill="#1E1E1E" transform="translate(70,28)"/>
<path d="M0 0 C0.99 0 1.98 0 3 0 C6 5.75 6 5.75 6 8 C7.98180213 6.20694093 9.20358221 4.6498386 10.5625 2.3125 C11.2740625 1.1678125 11.2740625 1.1678125 12 0 C12.66 0 13.32 0 14 0 C14.06058594 0.84304687 14.12117188 1.68609375 14.18359375 2.5546875 C14.30927734 4.19824219 14.30927734 4.19824219 14.4375 5.875 C14.51871094 6.96554688 14.59992188 8.05609375 14.68359375 9.1796875 C14.83001703 11.94728971 14.83001703 11.94728971 16 14 C14.02 14 12.04 14 10 14 C10.33 13.34 10.66 12.68 11 12 C11.039992 10.00039988 11.04346799 7.99952758 11 6 C9.68 8.31 8.36 10.62 7 13 C3.75267068 11.37633534 3.29844864 8.24612161 2 5 C1.67 7.31 1.34 9.62 1 12 C1.66 12 2.32 12 3 12 C3 12.66 3 13.32 3 14 C1.02 14 -0.96 14 -3 14 C-2.34 13.34 -1.68 12.68 -1 12 C-0.53603307 9.10776497 -0.53603307 9.10776497 -0.375 5.875 C-0.30023438 4.77929688 -0.22546875 3.68359375 -0.1484375 2.5546875 C-0.09945313 1.71164063 -0.05046875 0.86859375 0 0 Z " fill="#1B1B1B" transform="translate(333,131)"/>
<path d="M0 0 C7.75 -0.125 7.75 -0.125 10 1 C9.7525 2.216875 9.505 3.43375 9.25 4.6875 C8.77449455 8.25696088 8.86144326 8.78546053 10.9375 12 C11.618125 12.66 12.29875 13.32 13 14 C8.75177626 13.52797514 6.80010291 11.03344482 4 8 C4 9.65 4 11.3 4 13 C3.01 13 2.02 13 1 13 C0.67 8.71 0.34 4.42 0 0 Z " fill="#494949" transform="translate(128,131)"/>
<path d="M0 0 C1.65 0 3.3 0 5 0 C5.33 0.66 5.66 1.32 6 2 C5.34 2 4.68 2 4 2 C4 6.29 4 10.58 4 15 C0.51127585 13.83709195 -0.09976864 12.86032391 -2.1875 9.9375 C-2.71730469 9.20402344 -3.24710937 8.47054687 -3.79296875 7.71484375 C-4.19128906 7.14894531 -4.58960938 6.58304688 -5 6 C-5.33 8.64 -5.66 11.28 -6 14 C-5.34 14.33 -4.68 14.66 -4 15 C-5.98 15 -7.96 15 -10 15 C-9.34 14.67 -8.68 14.34 -8 14 C-8 10.04 -8 6.08 -8 2 C-8.66 1.67 -9.32 1.34 -10 1 C-7.70703125 0.75 -7.70703125 0.75 -5 1 C-3.19921875 2.75 -3.19921875 2.75 -1.6875 5 C-1.17574219 5.7425 -0.66398437 6.485 -0.13671875 7.25 C0.23839844 7.8275 0.61351562 8.405 1 9 C1.33 6.69 1.66 4.38 2 2 C1.34 2 0.68 2 0 2 C0 1.34 0 0.68 0 0 Z " fill="#424242" transform="translate(413,130)"/>
<path d="M0 0 C6.15234375 -0.09765625 6.15234375 -0.09765625 8 0 C9 1 9 1 9.1875 3.4375 C9 6 9 6 7 8 C5.68 8 4.36 8 3 8 C3 9.65 3 11.3 3 13 C3.66 13.33 4.32 13.66 5 14 C2.69 14 0.38 14 -2 14 C-1.34 13.67 -0.68 13.34 0 13 C0 8.71 0 4.42 0 0 Z " fill="#616161" transform="translate(202,131)"/>
<path d="M0 0 C0.66 0.33 1.32 0.66 2 1 C1.67 1.99 1.34 2.98 1 4 C0.67 3.67 0.34 3.34 0 3 C-3 2.83333333 -3 2.83333333 -6 3 C-7.39287806 4.17036305 -7.39287806 4.17036305 -7.1875 7.4375 C-7.39564928 11.05032721 -7.39564928 11.05032721 -5 13 C-2.93125966 13.6425235 -2.93125966 13.6425235 -1 14 C-1 12.68 -1 11.36 -1 10 C-1.66 10 -2.32 10 -3 10 C-3 9.34 -3 8.68 -3 8 C-1.02 8 0.96 8 3 8 C2.34 10.31 1.68 12.62 1 15 C-3.31255674 15.42279968 -5.37309762 15.43099539 -9 12.9375 C-11 10 -11 10 -11.0625 6.375 C-10 3 -10 3 -8.3125 1.0625 C-5.37084049 -0.28907329 -3.20371381 -0.27858381 0 0 Z " fill="#535353" transform="translate(114,130)"/>
<path d="M0 0 C3 0.5625 3 0.5625 5.375 2.125 C7.62340519 5.49760779 7.56783945 7.58762383 7 11.5625 C5.375 14 5.375 14 3 15.5625 C-0.6717087 16.17445145 -2.28813568 16.04956506 -5.375 13.9375 C-7.49970879 10.83215639 -7.60386292 9.2611604 -7 5.5625 C-5.00082867 2.02550457 -4.03889466 0.75729275 0 0 Z M-4 3.5625 C-4.48901727 8.8293166 -4.48901727 8.8293166 -2.8125 13.625 C-0.94965101 14.78824079 -0.94965101 14.78824079 1.625 14.375 C4.16552003 13.81605766 4.16552003 13.81605766 5 11.5625 C5.25 8.0625 5.25 8.0625 5 4.5625 C3.10892859 2.22971267 3.10892859 2.22971267 -0.0625 2.375 C-2.88833136 2.23062207 -2.88833136 2.23062207 -4 3.5625 Z " fill="#414141" transform="translate(313,129.4375)"/>
<path d="M0 0 C0 0.66 0 1.32 0 2 C0.66 2 1.32 2 2 2 C2.48372093 9.25581395 2.48372093 9.25581395 0.375 12.5 C-2.74326051 14.46942769 -4.37720527 14.67927401 -8 14 C-10.4375 11.9375 -10.4375 11.9375 -12 9 C-12 5.19715329 -11.7968187 2.98069994 -9.375 0 C-6.01155688 -1.41618658 -3.50376557 -0.74118118 0 0 Z M-9 2 C-9.46331437 7.87646031 -9.46331437 7.87646031 -7 13 C-4.02934491 12.65772428 -4.02934491 12.65772428 -1 12 C0.50662097 8.98675805 0.17770373 6.31713623 0 3 C-1.89107141 0.66721267 -1.89107141 0.66721267 -5.0625 0.8125 C-7.88833136 0.66812207 -7.88833136 0.66812207 -9 2 Z " fill="#3B3B3B" transform="translate(243,131)"/>
<path d="M0 0 C4.91511194 1.34048507 4.91511194 1.34048507 6.4375 3.9375 C7.14291917 7.9936602 6.75870577 9.48002512 4.375 12.875 C1.4375 14.9375 1.4375 14.9375 -2.25 14.9375 C-5.5625 13.9375 -5.5625 13.9375 -7.5625 10.9375 C-7.9877996 7.03892037 -8.10201751 4.80072801 -6 1.4375 C-3.5625 -0.0625 -3.5625 -0.0625 0 0 Z M-5.5625 3.9375 C-6.02748298 8.64446153 -6.02748298 8.64446153 -4.375 12.9375 C-2.52115763 14.18251278 -2.52115763 14.18251278 0.0625 13.6875 C2.3687407 13.16004355 2.3687407 13.16004355 3.4375 11.9375 C3.66668242 7.92092857 3.66668242 7.92092857 3.4375 3.9375 C1.61046773 1.6883092 1.61046773 1.6883092 -1.0625 1.6875 C-3.73546773 1.6883092 -3.73546773 1.6883092 -5.5625 3.9375 Z " fill="#4D4D4D" transform="translate(158.5625,130.0625)"/>
<path d="M0 0 C0.66 0 1.32 0 2 0 C2.34933594 0.84304687 2.69867188 1.68609375 3.05859375 2.5546875 C3.51363281 3.65039062 3.96867187 4.74609375 4.4375 5.875 C5.11619141 7.51082031 5.11619141 7.51082031 5.80859375 9.1796875 C6.49543463 10.80558624 7.21065887 12.42131774 8 14 C6.02 14 4.04 14 2 14 C2.33 12.02 2.66 10.04 3 8 C1.35 8 -0.3 8 -2 8 C-1.67 9.98 -1.34 11.96 -1 14 C-2.98 14 -4.96 14 -7 14 C-4.66666667 9.33333333 -2.33333333 4.66666667 0 0 Z " fill="#747474" transform="translate(386,131)"/>
<path d="M0 0 C5.17469679 1.2936742 5.91755537 2.80445036 9 7 C9 7.66 9 8.32 9 9 C9.66 9 10.32 9 11 9 C11 6.36 11 3.72 11 1 C11.33 1 11.66 1 12 1 C12 4.96 12 8.92 12 13 C8.28631113 11.76210371 7.22645819 10.14775123 5 7 C5 6.34 5 5.68 5 5 C4.34 5 3.68 5 3 5 C3 7.31 3 9.62 3 12 C3.66 12.33 4.32 12.66 5 13 C3.35 13 1.7 13 0 13 C0 8.71 0 4.42 0 0 Z " fill="#494949" transform="translate(254,163)"/>
<path d="M0 0 C2.4375 0.1875 2.4375 0.1875 3.4375 1.1875 C3.8125 4.4375 3.8125 4.4375 3.4375 8.1875 C0.9375 11.125 0.9375 11.125 -1.5625 13.1875 C-2.2225 12.8575 -2.8825 12.5275 -3.5625 12.1875 C-2.2425 10.8675 -0.9225 9.5475 0.4375 8.1875 C-0.8825 7.8575 -2.2025 7.5275 -3.5625 7.1875 C-4.1875 4.8125 -4.1875 4.8125 -4.5625 2.1875 C-2.5625 0.1875 -2.5625 0.1875 0 0 Z " fill="#474747" transform="translate(344.5625,163.8125)"/>
<path d="M0 0 C2.5625 0.1875 2.5625 0.1875 4.5625 2.1875 C4.22552652 8.36534711 4.22552652 8.36534711 2 11.125 C1.525625 11.475625 1.05125 11.82625 0.5625 12.1875 C-0.0975 11.8575 -0.7575 11.5275 -1.4375 11.1875 C-0.7775 10.5275 -0.1175 9.8675 0.5625 9.1875 C-0.7575 8.5275 -2.0775 7.8675 -3.4375 7.1875 C-3.48004356 5.18795254 -3.47830783 3.18708364 -3.4375 1.1875 C-2.4375 0.1875 -2.4375 0.1875 0 0 Z " fill="#404040" transform="translate(334.4375,163.8125)"/>
<path d="M0 0 C2.64 0 5.28 0 8 0 C7.67 0.99 7.34 1.98 7 3 C7 2.34 7 1.68 7 1 C5.35 1 3.7 1 2 1 C2 2.65 2 4.3 2 6 C3.65 5.67 5.3 5.34 7 5 C6.67 6.32 6.34 7.64 6 9 C6 8.34 6 7.68 6 7 C4.68 7 3.36 7 2 7 C2 8.65 2 10.3 2 12 C3.98 12 5.96 12 8 12 C8.33 11.34 8.66 10.68 9 10 C8.67 11.32 8.34 12.64 8 14 C4.37 14 0.74 14 -3 14 C-2.67 13.34 -2.34 12.68 -2 12 C-1.34 12 -0.68 12 0 12 C0 8.04 0 4.08 0 0 Z " fill="#343434" transform="translate(447,131)"/>
<path d="M0 0 C2.97 0 5.94 0 9 0 C8.67 0.99 8.34 1.98 8 3 C8 2.34 8 1.68 8 1 C6.35 1 4.7 1 3 1 C3 2.65 3 4.3 3 6 C4.65 5.67 6.3 5.34 8 5 C7.67 6.32 7.34 7.64 7 9 C5.68 8.67 4.36 8.34 3 8 C3 9.65 3 11.3 3 13 C3.66 13.33 4.32 13.66 5 14 C3.02 14 1.04 14 -1 14 C-0.67 13.34 -0.34 12.68 0 12 C0.07065617 9.95944995 0.08421976 7.91665743 0.0625 5.875 C0.05347656 4.77929688 0.04445312 3.68359375 0.03515625 2.5546875 C0.02355469 1.71164063 0.01195312 0.86859375 0 0 Z " fill="#343434" transform="translate(253,131)"/>
<path d="M0 0 C0.99 0 1.98 0 3 0 C3.33 3.63 3.66 7.26 4 11 C6.97 11.495 6.97 11.495 10 12 C9.67 12.66 9.34 13.32 9 14 C6.1875 14.25 6.1875 14.25 3 14 C0.8194961 11.8194961 0.05717287 10.50312129 -0.29296875 7.421875 C-0.25816406 6.54015625 -0.22335938 5.6584375 -0.1875 4.75 C-0.16042969 3.85796875 -0.13335937 2.9659375 -0.10546875 2.046875 C-0.07066406 1.37140625 -0.03585938 0.6959375 0 0 Z " fill="#3F3F3F" transform="translate(177,131)"/>
<path d="M0 0 C0.66 0 1.32 0 2 0 C2.06058594 0.84304687 2.12117188 1.68609375 2.18359375 2.5546875 C2.26738281 3.65039062 2.35117187 4.74609375 2.4375 5.875 C2.51871094 6.96554688 2.59992188 8.05609375 2.68359375 9.1796875 C2.83001703 11.94728971 2.83001703 11.94728971 4 14 C2.02 14 0.04 14 -2 14 C-1.67 13.34 -1.34 12.68 -1 12 C-0.960008 10.00039988 -0.95653201 7.99952758 -1 6 C-1.66 7.32 -2.32 8.64 -3 10 C-3.99 9.67 -4.98 9.34 -6 9 C-5.05016642 7.49460339 -4.08988109 5.99579653 -3.125 4.5 C-2.59132813 3.6646875 -2.05765625 2.829375 -1.5078125 1.96875 C-0.76144531 0.99421875 -0.76144531 0.99421875 0 0 Z " fill="#3B3B3B" transform="translate(345,131)"/>
<path d="M0 0 C0.825 0.639375 1.65 1.27875 2.5 1.9375 C5.10277507 3.70565598 7.06027134 4.29659886 10.1875 4.5625 C14.14863687 5.01705669 14.59434833 5.19216508 17 8 C4.33029613 8.3690205 4.33029613 8.3690205 -1 6 C-0.67 4.02 -0.34 2.04 0 0 Z " fill="#232323" transform="translate(127,95)"/>
<path d="M0 0 C0.99 0.33 1.98 0.66 3 1 C2.01 1.495 2.01 1.495 1 2 C0.95875 3.27875 0.9175 4.5575 0.875 5.875 C0.85179687 6.59429687 0.82859375 7.31359375 0.8046875 8.0546875 C0.81668311 10.23863645 0.81668311 10.23863645 3 12 C5.61580479 11.6730244 7.64078137 11.17960932 10 10 C9.34 11.32 8.68 12.64 8 14 C3.98313013 14.46707789 2.43498188 14.32150834 -0.875 11.875 C-3 9 -3 9 -3.5 5.875 C-2.96567755 2.80264589 -2.45179712 1.83884784 0 0 Z " fill="#393939" transform="translate(285,131)"/>
<path d="M0 0 C1.31712811 3.62210231 0.68301982 5.67244777 -0.75 9.1875 C-1.26820313 10.50814453 -1.26820313 10.50814453 -1.796875 11.85546875 C-3 14 -3 14 -6 15 C-6 10.86602932 -5.42079548 9.37642646 -3.5625 5.8125 C-2.88380859 4.49185547 -2.88380859 4.49185547 -2.19140625 3.14453125 C-1 1 -1 1 0 0 Z " fill="#191919" transform="translate(540,62)"/>
<path d="M0 0 C1.4540625 0.0309375 1.4540625 0.0309375 2.9375 0.0625 C2.6075 1.3825 2.2775 2.7025 1.9375 4.0625 C1.9375 3.4025 1.9375 2.7425 1.9375 2.0625 C0.9475 2.0625 -0.0425 2.0625 -1.0625 2.0625 C-1.3925 3.3825 -1.7225 4.7025 -2.0625 6.0625 C-0.4125 6.3925 1.2375 6.7225 2.9375 7.0625 C2.9375 9.3725 2.9375 11.6825 2.9375 14.0625 C2.2775 13.7325 1.6175 13.4025 0.9375 13.0625 C0.9375 12.0725 0.9375 11.0825 0.9375 10.0625 C0.1125 9.629375 -0.7125 9.19625 -1.5625 8.75 C-2.3875 8.193125 -3.2125 7.63625 -4.0625 7.0625 C-4.4375 3.9375 -4.4375 3.9375 -4.0625 1.0625 C-3.0625 0.0625 -3.0625 0.0625 0 0 Z " fill="#2C2C2C" transform="translate(472.0625,129.9375)"/>
<path d="M0 0 C1.2065625 0.0309375 1.2065625 0.0309375 2.4375 0.0625 C2.1075 1.0525 1.7775 2.0425 1.4375 3.0625 C1.4375 2.4025 1.4375 1.7425 1.4375 1.0625 C0.4475 1.3925 -0.5425 1.7225 -1.5625 2.0625 C-0.42945008 5.46164975 0.56268475 6.11504451 3.4375 8.0625 C3.1075 9.7125 2.7775 11.3625 2.4375 13.0625 C0.1275 13.0625 -2.1825 13.0625 -4.5625 13.0625 C-4.2325 12.0725 -3.9025 11.0825 -3.5625 10.0625 C-1.0875 11.0525 -1.0875 11.0525 1.4375 12.0625 C0.74538391 8.96291737 0.74538391 8.96291737 -1.625 7.6875 C-3.5625 6.0625 -3.5625 6.0625 -3.875 3.4375 C-3.44213713 0.1477422 -3.34981931 0.08170291 0 0 Z " fill="#3B3B3B" transform="translate(226.5625,162.9375)"/>
<path d="M0 0 C0.66 0.99 1.32 1.98 2 3 C2.99 3.66 3.98 4.32 5 5 C-0.87883349 7.61281488 -6.70731728 7.18328202 -13 7 C-13 6.67 -13 6.34 -13 6 C-12.31292969 5.81824219 -11.62585938 5.63648437 -10.91796875 5.44921875 C-10.01691406 5.19785156 -9.11585938 4.94648437 -8.1875 4.6875 C-7.29417969 4.44386719 -6.40085938 4.20023437 -5.48046875 3.94921875 C-2.94752262 2.9799181 -1.7283504 2.04990396 0 0 Z " fill="#141414" transform="translate(149,95)"/>
<path d="M0 0 C0.66 0 1.32 0 2 0 C2 1.65 2 3.3 2 5 C3.32 4.67 4.64 4.34 6 4 C5.67 5.32 5.34 6.64 5 8 C5 7.34 5 6.68 5 6 C4.01 6 3.02 6 2 6 C2 7.65 2 9.3 2 11 C3.98 10.34 5.96 9.68 8 9 C7.67 9.99 7.34 10.98 7 12 C3.7 12 0.4 12 -3 12 C-2.01 11.67 -1.02 11.34 0 11 C0 7.37 0 3.74 0 0 Z " fill="#323232" transform="translate(300,164)"/>
<path d="M0 0 C1.65 0.33 3.3 0.66 5 1 C4.625 3.4375 4.625 3.4375 4 6 C3.01 6.495 3.01 6.495 2 7 C2 8.98 2 10.96 2 13 C0.02 13 -1.96 13 -4 13 C-3.34 12.34 -2.68 11.68 -2 11 C-1.34 11.33 -0.68 11.66 0 12 C0 8.04 0 4.08 0 0 Z " fill="#CBCBCB" transform="translate(363,132)"/>
<path d="M0 0 C-1.98 0.99 -1.98 0.99 -4 2 C-3.34 2.66 -2.68 3.32 -2 4 C-4.29141286 4.05384521 -6.58318188 4.09272087 -8.875 4.125 C-10.78925781 4.15980469 -10.78925781 4.15980469 -12.7421875 4.1953125 C-16 4 -16 4 -18 2 C-15.37638987 1.47109454 -12.75151775 0.95157912 -10.125 0.4375 C-9.37863281 0.28603516 -8.63226563 0.13457031 -7.86328125 -0.02148438 C-2.2265625 -1.11328125 -2.2265625 -1.11328125 0 0 Z " fill="#363636" transform="translate(450,99)"/>
<path d="M0 0 C0.33 0.66 0.66 1.32 1 2 C1.66 2 2.32 2 3 2 C2.54803755 3.60597325 2.08817673 5.20972508 1.625 6.8125 C1.36976563 7.70582031 1.11453125 8.59914063 0.8515625 9.51953125 C0 12 0 12 -2 15 C-2.66 15 -3.32 15 -4 15 C-3.32584613 9.7415998 -1.75734451 4.97361654 0 0 Z " fill="#171717" transform="translate(550,31)"/>
<path d="M0 0 C3.96 0 7.92 0 12 0 C12 0.99 12 1.98 12 3 C7.71 3 3.42 3 -1 3 C-0.67 2.01 -0.34 1.02 0 0 Z " fill="#040404" transform="translate(374,28)"/>
<path d="M0 0 C1.65 0 3.3 0 5 0 C5.33 0.66 5.66 1.32 6 2 C5.34 2 4.68 2 4 2 C4 6.29 4 10.58 4 15 C1 11 1 11 0.92578125 8.640625 C1.11720703 7.45726562 1.11720703 7.45726562 1.3125 6.25 C1.43238281 5.45078125 1.55226563 4.6515625 1.67578125 3.828125 C1.78277344 3.22484375 1.88976562 2.6215625 2 2 C1.34 2 0.68 2 0 2 C0 1.34 0 0.68 0 0 Z " fill="#737373" transform="translate(413,130)"/>
<path d="M0 0 C0.66 0 1.32 0 2 0 C2.34933594 0.84304687 2.69867188 1.68609375 3.05859375 2.5546875 C3.51363281 3.65039062 3.96867187 4.74609375 4.4375 5.875 C5.11619141 7.51082031 5.11619141 7.51082031 5.80859375 9.1796875 C6.49543463 10.80558624 7.21065887 12.42131774 8 14 C6.02 14 4.04 14 2 14 C1.93941406 13.40832031 1.87882812 12.81664062 1.81640625 12.20703125 C1.37987629 8.09021792 0.91328654 4.04455467 0 0 Z " fill="#323232" transform="translate(386,131)"/>
<path d="M0 0 C4.62 0 9.24 0 14 0 C10.6133629 3.3866371 9.8662468 3.41963254 5.3125 3.6875 C4.31863281 3.75324219 3.32476562 3.81898437 2.30078125 3.88671875 C1.54152344 3.92410156 0.78226562 3.96148438 0 4 C0 2.68 0 1.36 0 0 Z " fill="#272727" transform="translate(434,27)"/>
<path d="M0 0 C0.99 0.33 1.98 0.66 3 1 C2.01 4.3 1.02 7.6 0 11 C-1.32 11 -2.64 11 -4 11 C-3.5247412 9.35303396 -3.04468109 7.70745272 -2.5625 6.0625 C-2.29566406 5.14597656 -2.02882812 4.22945313 -1.75390625 3.28515625 C-1 1 -1 1 0 0 Z " fill="#272727" transform="translate(236,61)"/>
<path d="M0 0 C1.98 0 3.96 0 6 0 C6 0.66 6 1.32 6 2 C6.66 2 7.32 2 8 2 C7.67 2.99 7.34 3.98 7 5 C4.69 5 2.38 5 0 5 C0 3.35 0 1.7 0 0 Z " fill="#F3F3F3" transform="translate(449,138)"/>
<path d="M0 0 C1.65 0 3.3 0 5 0 C6.4783226 2.95664519 6.06032783 5.74229737 6 9 C5.34 8.67 4.68 8.34 4 8 C4 7.01 4 6.02 4 5 C2.68 5 1.36 5 0 5 C0 3.35 0 1.7 0 0 Z " fill="#EBEBEB" transform="translate(256,132)"/>
<path d="M0 0 C1.32 0.33 2.64 0.66 4 1 C3.38302681 2.48253267 2.75616104 3.96095174 2.125 5.4375 C1.77695313 6.26121094 1.42890625 7.08492187 1.0703125 7.93359375 C0 10 0 10 -2 11 C-2.19622241 6.78121808 -1.80230168 3.82989106 0 0 Z " fill="#1B1B1B" transform="translate(239,52)"/>
<path d="M0 0 C4.62 0 9.24 0 14 0 C12 3 12 3 9.6171875 3.51171875 C8.25980469 3.59873047 8.25980469 3.59873047 6.875 3.6875 C5.50988281 3.78611328 5.50988281 3.78611328 4.1171875 3.88671875 C3.06917969 3.94279297 3.06917969 3.94279297 2 4 C2.33 3.34 2.66 2.68 3 2 C2.01 1.34 1.02 0.68 0 0 Z " fill="#2F2F2F" transform="translate(130,27)"/>
<path d="M0 0 C2 3.75 2 3.75 2 6 C-0.40545638 7.20272819 -1.94996953 7.10071472 -4.625 7.0625 C-5.85089844 7.04896484 -5.85089844 7.04896484 -7.1015625 7.03515625 C-8.04128906 7.01775391 -8.04128906 7.01775391 -9 7 C-6 5 -6 5 -3 4 C-1.31461399 2.00334686 -1.31461399 2.00334686 0 0 Z " fill="#191919" transform="translate(452,95)"/>
<path d="M0 0 C0 3.99711412 -1.32141544 5.1042329 -4 8 C-6.99506543 10.11846092 -8.30650564 11 -12 11 C-10.75323147 9.72599623 -9.5024352 8.45593346 -8.25 7.1875 C-7.55390625 6.47980469 -6.8578125 5.77210937 -6.140625 5.04296875 C-4.18571355 3.17724121 -2.19661447 1.56830358 0 0 Z " fill="#161616" transform="translate(359,46)"/>
<path d="M0 0 C0.33 0 0.66 0 1 0 C1.1953125 2.01822917 1.390625 4.03645833 1.5859375 6.0546875 C1.86374749 8.22668245 1.86374749 8.22668245 4 10 C5.31747324 10.69748583 6.64914193 11.36959957 8 12 C4.625 11.6875 4.625 11.6875 1 11 C-1.43769218 7.34346173 -1.23944439 5.30999899 -1 1 C-0.67 0.67 -0.34 0.34 0 0 Z " fill="#181818" transform="translate(152,133)"/>
<path d="M0 0 C1.65 0 3.3 0 5 0 C5.33 1.32 5.66 2.64 6 4 C4.02 4.33 2.04 4.66 0 5 C0 3.35 0 1.7 0 0 Z " fill="#F0F0F0" transform="translate(449,132)"/>
<path d="M0 0 C0.99 0.33 1.98 0.66 3 1 C-0.63 4.63 -4.26 8.26 -8 12 C-8.66 11.67 -9.32 11.34 -10 11 C-9.44570313 10.45730469 -8.89140625 9.91460937 -8.3203125 9.35546875 C-7.23363281 8.28232422 -7.23363281 8.28232422 -6.125 7.1875 C-5.40570313 6.47980469 -4.68640625 5.77210937 -3.9453125 5.04296875 C-1.84641063 2.95600806 -1.84641063 2.95600806 0 0 Z " fill="#CECECE" transform="translate(374,31)"/>
<path d="M0 0 C6.15234375 -0.09765625 6.15234375 -0.09765625 8 0 C9 1 9 1 9.0625 3.5625 C9.041875 4.366875 9.02125 5.17125 9 6 C8.01 6.495 8.01 6.495 7 7 C6.67 5.35 6.34 3.7 6 2 C4.68 1.67 3.36 1.34 2 1 C2 2.65 2 4.3 2 6 C1.67 6 1.34 6 1 6 C0.67 4.02 0.34 2.04 0 0 Z " fill="#212121" transform="translate(202,131)"/>
<path d="M0 0 C2.875 0.3125 2.875 0.3125 4.875 1.3125 C4.545 2.3025 4.215 3.2925 3.875 4.3125 C3.545 3.9825 3.215 3.6525 2.875 3.3125 C-0.65137472 3.15577223 -3.74405851 3.27221031 -7.125 4.3125 C-4.78015899 1.42654183 -3.77942612 0.37794261 0 0 Z " fill="#626262" transform="translate(111.125,129.6875)"/>
<path d="M0 0 C3.3 0 6.6 0 10 0 C5.78492722 3.16130459 4.93928888 3.3367697 0 3 C0 2.01 0 1.02 0 0 Z " fill="#040404" transform="translate(543,28)"/>
<path d="M0 0 C2.97 0 5.94 0 9 0 C8.01 1.485 8.01 1.485 7 3 C3.375 3.1875 3.375 3.1875 0 3 C0 2.01 0 1.02 0 0 Z " fill="#0D0D0D" transform="translate(362,28)"/>
<path d="M0 0 C2.97 0 5.94 0 9 0 C8.01 1.485 8.01 1.485 7 3 C3.375 3.1875 3.375 3.1875 0 3 C0 2.01 0 1.02 0 0 Z " fill="#010101" transform="translate(240,28)"/>
<path d="M0 0 C3.375 -0.1875 3.375 -0.1875 7 0 C7.66 0.99 8.32 1.98 9 3 C6.03 3 3.06 3 0 3 C0 2.01 0 1.02 0 0 Z " fill="#0C0C0C" transform="translate(16,28)"/>
<path d="M0 0 C2.78637633 4.1795645 1.79562512 6.14668677 1 11 C1.66 11 2.32 11 3 11 C3 11.66 3 12.32 3 13 C1.02 13 -0.96 13 -3 13 C-2.34 12.34 -1.68 11.68 -1 11 C-0.53709779 8.33757179 -0.53709779 8.33757179 -0.375 5.375 C-0.30023438 4.37210938 -0.22546875 3.36921875 -0.1484375 2.3359375 C-0.09945313 1.56507813 -0.05046875 0.79421875 0 0 Z " fill="#5A5A5A" transform="translate(333,132)"/>
<path d="M0 0 C1.32 0.33 2.64 0.66 4 1 C3.67 2.65 3.34 4.3 3 6 C2.01 6 1.02 6 0 6 C0 4.02 0 2.04 0 0 Z " fill="#FCFCFC" transform="translate(205,132)"/>
<path d="M0 0 C0.66 0 1.32 0 2 0 C2 2.64 2 5.28 2 8 C1.34 8 0.68 8 0 8 C-0.38063221 5.6739143 -0.71269945 3.33944736 -1 1 C-0.67 0.67 -0.34 0.34 0 0 Z " fill="#2C2C2C" transform="translate(104,134)"/>
<path d="M0 0 C0.33 0.66 0.66 1.32 1 2 C1.66 2 2.32 2 3 2 C2.34 4.31 1.68 6.62 1 9 C0.01 8.67 -0.98 8.34 -2 8 C-1.34 5.36 -0.68 2.72 0 0 Z " fill="#1F1F1F" transform="translate(545,44)"/>
<path d="M0 0 C2.31 0 4.62 0 7 0 C7.33 0.99 7.66 1.98 8 3 C5.36 3 2.72 3 0 3 C0 2.01 0 1.02 0 0 Z " fill="#090909" transform="translate(315,28)"/>
<path d="M0 0 C3.125 -0.1875 3.125 -0.1875 6 0 C6 0.99 6 1.98 6 3 C3.36 3 0.72 3 -2 3 C-1.34 2.01 -0.68 1.02 0 0 Z " fill="#191919" transform="translate(297,28)"/>
<path d="M0 0 C1.32 0.33 2.64 0.66 4 1 C4 2.32 4 3.64 4 5 C2.68 5 1.36 5 0 5 C0 3.35 0 1.7 0 0 Z " fill="#F2F2F2" transform="translate(333,165)"/>
<path d="M0 0 C0.66 0 1.32 0 2 0 C2.625 2.375 2.625 2.375 3 5 C2.34 5.66 1.68 6.32 1 7 C0.01 7 -0.98 7 -2 7 C-1.34 4.69 -0.68 2.38 0 0 Z " fill="#323232" transform="translate(540,57)"/>
<path d="M0 0 C0.99 0.33 1.98 0.66 3 1 C3 2.32 3 3.64 3 5 C1.68 5 0.36 5 -1 5 C-0.67 3.35 -0.34 1.7 0 0 Z " fill="#F5F5F5" transform="translate(343,165)"/>
<path d="M0 0 C1.32 0.33 2.64 0.66 4 1 C3.67 2.32 3.34 3.64 3 5 C2.01 5 1.02 5 0 5 C0 3.35 0 1.7 0 0 Z " fill="#EEEEEE" transform="translate(132,132)"/>
<path d="M0 0 C0.33 0 0.66 0 1 0 C0.67 2.31 0.34 4.62 0 7 C-0.99 7.33 -1.98 7.66 -3 8 C-2.45276317 4.62537285 -1.9451 2.91765 0 0 Z " fill="#0A0A0A" transform="translate(243,45)"/>
<path d="M0 0 C2.31 1.98 4.62 3.96 7 6 C6.01 6.33 5.02 6.66 4 7 C0 2.25 0 2.25 0 0 Z " fill="#2E2E2E" transform="translate(134,138)"/>
<path d="M0 0 C0.66 0 1.32 0 2 0 C2.33 2.64 2.66 5.28 3 8 C2.01 7.34 1.02 6.68 0 6 C-0.1875 2.875 -0.1875 2.875 0 0 Z " fill="#272727" transform="translate(306,135)"/>
<path d="M0 0 C1.4540625 0.0309375 1.4540625 0.0309375 2.9375 0.0625 C2.6075 1.3825 2.2775 2.7025 1.9375 4.0625 C1.9375 3.4025 1.9375 2.7425 1.9375 2.0625 C0.9475 2.0625 -0.0425 2.0625 -1.0625 2.0625 C-2.0525 3.5475 -2.0525 3.5475 -3.0625 5.0625 C-3.625 3.125 -3.625 3.125 -4.0625 1.0625 C-3.0625 0.0625 -3.0625 0.0625 0 0 Z " fill="#666666" transform="translate(472.0625,129.9375)"/>
</svg>
