<?xml version="1.0" encoding="UTF-8"?>
<svg version="1.1" xmlns="http://www.w3.org/2000/svg" width="582" height="190">
<path d="M0 0 C0.77070328 -0.0033284 1.54140656 -0.0066568 2.33546448 -0.01008606 C3.96883546 -0.01515835 5.60221685 -0.01749429 7.2355957 -0.01733398 C9.73991924 -0.01951905 12.24380146 -0.0376672 14.74804688 -0.05664062 C16.33202974 -0.05957472 17.9160147 -0.06155941 19.5 -0.0625 C20.25212265 -0.06968552 21.0042453 -0.07687103 21.77915955 -0.08427429 C27.08758346 -0.06085404 27.08758346 -0.06085404 29.31640625 2.16796875 C29.31640625 2.82796875 29.31640625 3.48796875 29.31640625 4.16796875 C26.67640625 4.49796875 24.03640625 4.82796875 21.31640625 5.16796875 C21.31640625 14.40796875 21.31640625 23.64796875 21.31640625 33.16796875 C23.62640625 30.52796875 25.93640625 27.88796875 28.31640625 25.16796875 C29.81210852 23.49744413 31.31144891 21.83016043 32.81640625 20.16796875 C35.64185291 17.03341339 38.46145028 13.89447811 41.25390625 10.73046875 C41.79917969 10.11300781 42.34445312 9.49554688 42.90625 8.859375 C44.49762664 7.01179369 44.49762664 7.01179369 46.31640625 4.16796875 C44.00640625 4.49796875 41.69640625 4.82796875 39.31640625 5.16796875 C38.82140625 3.18796875 38.82140625 3.18796875 38.31640625 1.16796875 C41.40102131 0.13976373 43.21325864 0.12214026 46.421875 0.2890625 C47.40478516 0.33740234 48.38769531 0.38574219 49.40039062 0.43554688 C50.93663086 0.5196582 50.93663086 0.5196582 52.50390625 0.60546875 C53.53966797 0.65767578 54.57542969 0.70988281 55.64257812 0.76367188 C58.20082674 0.89335268 60.75868563 1.02831853 63.31640625 1.16796875 C63.81140625 2.65296875 63.81140625 2.65296875 64.31640625 4.16796875 C63.22972656 4.15443359 63.22972656 4.15443359 62.12109375 4.140625 C56.41091129 4.20100253 56.41091129 4.20100253 51.42578125 6.6171875 C49.94930127 8.40839084 48.63251875 10.2569571 47.31640625 12.16796875 C45.64973958 13.83463542 43.98307292 15.50130208 42.31640625 17.16796875 C41.4123329 18.26539883 40.51650541 19.36967214 39.62890625 20.48046875 C38.86578125 21.36734375 38.10265625 22.25421875 37.31640625 23.16796875 C36.65640625 23.16796875 35.99640625 23.16796875 35.31640625 23.16796875 C35.796795 28.27577569 38.35594711 31.55791407 41.25390625 35.60546875 C41.74536133 36.30559082 42.23681641 37.00571289 42.74316406 37.72705078 C44.25855742 39.88058124 45.78585262 42.02519367 47.31640625 44.16796875 C48.21881762 45.43745193 49.12116461 46.70698089 50.0234375 47.9765625 C53.15837783 52.37760501 56.31049807 56.76629342 59.4609375 61.15625 C60.09386719 62.04699219 60.72679687 62.93773437 61.37890625 63.85546875 C61.92675781 64.62246094 62.47460938 65.38945313 63.0390625 66.1796875 C64.31640625 68.16796875 64.31640625 68.16796875 65.31640625 71.16796875 C67.29640625 71.16796875 69.27640625 71.16796875 71.31640625 71.16796875 C71.64640625 71.82796875 71.97640625 72.48796875 72.31640625 73.16796875 C71.29956055 74.6496582 71.29956055 74.6496582 69.31640625 76.16796875 C66.65805997 76.42950998 64.23955521 76.51735997 61.5859375 76.4609375 C60.83551682 76.45669266 60.08509613 76.45244781 59.31193542 76.44807434 C56.91722599 76.43129325 54.52336091 76.39364365 52.12890625 76.35546875 C50.50456945 76.3404211 48.88021945 76.32673284 47.25585938 76.31445312 C43.27571677 76.2813918 39.29620462 76.22961469 35.31640625 76.16796875 C34.98640625 74.84796875 34.65640625 73.52796875 34.31640625 72.16796875 C36.29640625 71.17796875 36.29640625 71.17796875 38.31640625 70.16796875 C37.87248535 69.51723389 37.42856445 68.86649902 36.97119141 68.19604492 C34.96110056 65.24929698 32.95125066 62.30238478 30.94140625 59.35546875 C30.24273437 58.33130859 29.5440625 57.30714844 28.82421875 56.25195312 C28.15390625 55.26904297 27.48359375 54.28613281 26.79296875 53.2734375 C26.17502441 52.36746826 25.55708008 51.46149902 24.92041016 50.52807617 C23.71019186 48.74737903 22.51068887 46.95939267 21.31640625 45.16796875 C20.98640625 53.74796875 20.65640625 62.32796875 20.31640625 71.16796875 C22.95640625 71.16796875 25.59640625 71.16796875 28.31640625 71.16796875 C28.64640625 72.48796875 28.97640625 73.80796875 29.31640625 75.16796875 C25.10507072 76.19158184 21.15450761 76.28286158 16.828125 76.265625 C16.1249263 76.26421005 15.4217276 76.2627951 14.69721985 76.26133728 C12.46607081 76.25576984 10.23502461 76.2432235 8.00390625 76.23046875 C6.4850275 76.22544954 4.96614716 76.22088737 3.44726562 76.21679688 C-0.26305387 76.20581111 -3.97331376 76.18856909 -7.68359375 76.16796875 C-8.17859375 73.69296875 -8.17859375 73.69296875 -8.68359375 71.16796875 C-6.04359375 71.16796875 -3.40359375 71.16796875 -0.68359375 71.16796875 C-0.68359375 49.05796875 -0.68359375 26.94796875 -0.68359375 4.16796875 C-2.99359375 4.49796875 -5.30359375 4.82796875 -7.68359375 5.16796875 C-8.24609375 3.23046875 -8.24609375 3.23046875 -8.68359375 1.16796875 C-6.68974596 -0.82587904 -2.73054363 0.00402921 0 0 Z " fill="#010101" transform="translate(322.68359375,26.83203125)"/>
<path d="M0 0 C7.26771277 6.01089026 12.16851797 13.80941125 14.16015625 23.0859375 C14.82833287 36.16677972 15.01504001 47.5058603 6.171875 57.98046875 C-1.73523944 66.25607007 -9.2115936 69.99643693 -20.68969727 70.4855957 C-30.68981975 70.66686327 -40.02045899 68.66132923 -47.83984375 62.0859375 C-57.08867244 52.34818395 -59.4296673 42.53927372 -59.31713867 29.44360352 C-59.09269818 22.75148361 -58.00673388 17.05684494 -54.83984375 11.0859375 C-54.26234375 9.9928125 -53.68484375 8.8996875 -53.08984375 7.7734375 C-50.08706252 4.18678214 -46.71171941 1.67694692 -42.83984375 -0.9140625 C-42.27136719 -1.30851562 -41.70289062 -1.70296875 -41.1171875 -2.109375 C-28.37633332 -10.24183511 -12.08975418 -8.14852758 0 0 Z M-30.83984375 -0.9140625 C-37.80514499 8.37300583 -37.18700458 20.13088281 -37.15551758 31.24462891 C-37.15234973 33.58152637 -37.17591642 35.91716366 -37.20117188 38.25390625 C-37.52017958 51.17905018 -37.52017958 51.17905018 -32.56469727 62.75219727 C-29.02304122 66.10507442 -25.62173359 67.0859375 -20.83984375 67.0859375 C-16.72701763 65.71499546 -13.65211214 64.39294603 -10.83984375 61.0859375 C-7.97543705 55.16139665 -7.39217401 49.26131622 -7.44140625 42.7734375 C-7.43853607 41.91967529 -7.43566589 41.06591309 -7.43270874 40.1862793 C-7.43068196 38.3946872 -7.43611393 36.60307226 -7.44873047 34.81152344 C-7.46480443 32.09258844 -7.44883461 29.37513959 -7.4296875 26.65625 C-7.43167018 24.9036426 -7.43551436 23.15103612 -7.44140625 21.3984375 C-7.43533356 20.59817139 -7.42926086 19.79790527 -7.42300415 18.97338867 C-7.50192065 12.53837448 -8.95684787 6.85192925 -11.83984375 1.0859375 C-12.49984375 1.0859375 -13.15984375 1.0859375 -13.83984375 1.0859375 C-13.83984375 0.4259375 -13.83984375 -0.2340625 -13.83984375 -0.9140625 C-20.04281724 -3.22214566 -24.73722292 -3.90045142 -30.83984375 -0.9140625 Z " fill="#010101" transform="translate(160.83984375,32.9140625)"/>
<path d="M0 0 C0.79470703 -0.01160156 1.58941406 -0.02320312 2.40820312 -0.03515625 C10.39600422 0.00384034 19.31569076 2.14156203 25.5625 7.375 C35.21270924 18.17230959 38.51704026 28.79193189 37.93359375 42.99609375 C37.15512897 54.24624365 32.92557768 61.86614113 24.5625 69.375 C14.80234481 76.90325038 4.45824071 77.42850728 -7.4375 76.375 C-15.37546075 74.82454451 -20.89384086 71.1459618 -26.4375 65.375 C-27.17806641 64.63056641 -27.17806641 64.63056641 -27.93359375 63.87109375 C-36.12331995 54.95231181 -35.95085902 42.8953753 -35.56933594 31.515625 C-34.95244839 21.49919902 -30.00267675 14.39769926 -22.6875 7.875 C-19.73537234 5.375 -19.73537234 5.375 -17.4375 5.375 C-17.4375 4.715 -17.4375 4.055 -17.4375 3.375 C-11.40143667 0.76144681 -6.54869848 -0.09513848 0 0 Z M-8.625 7.25 C-13.7730636 13.28566077 -13.59889714 20.37704627 -13.640625 27.95703125 C-13.64632507 28.77064621 -13.65202515 29.58426117 -13.65789795 30.42253113 C-13.66730683 32.13787553 -13.67386549 33.85323767 -13.67773438 35.56860352 C-13.68743142 38.16910902 -13.71848992 40.76882042 -13.75 43.36914062 C-13.75653238 45.04426619 -13.76178193 46.71939735 -13.765625 48.39453125 C-13.7779718 49.16046097 -13.7903186 49.92639069 -13.80303955 50.7155304 C-13.77432246 57.80359358 -11.87347589 64.17212019 -8.4375 70.375 C-4.51606011 73.06452472 -0.38604499 73.70500578 4.25 72.9375 C8.86564372 71.63238695 11.00601897 69.48086347 13.5625 65.375 C15.49224881 59.90681137 15.88266829 55.01394384 15.8984375 49.29296875 C15.9084227 48.01163811 15.9084227 48.01163811 15.91860962 46.704422 C15.92868812 44.9051019 15.93342813 43.10574478 15.93310547 41.30639648 C15.93747105 38.58057814 15.97381971 35.85639118 16.01171875 33.13085938 C16.077613 22.85412402 15.68234446 14.6310601 9.875 5.8125 C3.73680929 1.99686794 -3.21607549 2.61377899 -8.625 7.25 Z " fill="#010101" transform="translate(440.4375,26.625)"/>
<path d="M0 0 C0.8962207 0.95616211 0.8962207 0.95616211 1.81054688 1.93164062 C6.1875 6.67875893 6.1875 6.67875893 6.1875 8.9375 C7.1775 9.2675 8.1675 9.5975 9.1875 9.9375 C10.79296875 11.49609375 10.79296875 11.49609375 12.375 13.375 C12.90480469 13.99246094 13.43460938 14.60992187 13.98046875 15.24609375 C15.1875 16.9375 15.1875 16.9375 15.1875 18.9375 C15.8475 18.9375 16.5075 18.9375 17.1875 18.9375 C18.74476398 20.70104335 20.23510233 22.52413608 21.6875 24.375 C24.47089344 28.214446 24.47089344 28.214446 28.1875 30.9375 C28.1875 19.0575 28.1875 7.1775 28.1875 -5.0625 C25.8775 -5.0625 23.5675 -5.0625 21.1875 -5.0625 C20.6925 -7.0425 20.6925 -7.0425 20.1875 -9.0625 C22.53602528 -10.23676264 23.92524065 -10.17758173 26.5390625 -10.16015625 C27.81523438 -10.15532227 27.81523438 -10.15532227 29.1171875 -10.15039062 C30.00664063 -10.14201172 30.89609375 -10.13363281 31.8125 -10.125 C32.7096875 -10.12048828 33.606875 -10.11597656 34.53125 -10.11132812 C36.75006648 -10.09952591 38.96875018 -10.08306155 41.1875 -10.0625 C41.6825 -8.5775 41.6825 -8.5775 42.1875 -7.0625 C41.8575 -6.7325 41.5275 -6.4025 41.1875 -6.0625 C38.5475 -6.0625 35.9075 -6.0625 33.1875 -6.0625 C33.1875 17.3675 33.1875 40.7975 33.1875 64.9375 C31.7025 65.4325 31.7025 65.4325 30.1875 65.9375 C25.8456166 62.87844578 22.5267105 59.18362171 19.08984375 55.16015625 C17.07299707 52.80371732 15.01302161 50.49240189 12.9375 48.1875 C11.81794922 46.94226563 11.81794922 46.94226563 10.67578125 45.671875 C8.85275943 43.66855432 7.01853675 41.68065261 5.16796875 39.703125 C4.66233398 39.16010742 4.15669922 38.61708984 3.63574219 38.05761719 C2.64190458 36.99182754 1.64395576 35.92985424 0.64160156 34.87207031 C-2.8125 31.16082733 -2.8125 31.16082733 -2.8125 28.9375 C-3.4725 28.9375 -4.1325 28.9375 -4.8125 28.9375 C-6.28766321 27.27941655 -7.693213 25.55903953 -9.0625 23.8125 C-12.46761178 19.4797888 -15.85760274 15.89239726 -19.8125 11.9375 C-20.1425 28.1075 -20.4725 44.2775 -20.8125 60.9375 C-18.1725 60.9375 -15.5325 60.9375 -12.8125 60.9375 C-12.4825 62.2575 -12.1525 63.5775 -11.8125 64.9375 C-14.21685006 66.13967503 -15.49631369 65.97647118 -18.1640625 65.81640625 C-19.01484375 65.76806641 -19.865625 65.71972656 -20.7421875 65.66992188 C-21.63164062 65.61384766 -22.52109375 65.55777344 -23.4375 65.5 C-24.3346875 65.44779297 -25.231875 65.39558594 -26.15625 65.34179688 C-28.37534012 65.2119565 -30.59399871 65.07698661 -32.8125 64.9375 C-32.8125 63.6175 -32.8125 62.2975 -32.8125 60.9375 C-30.1725 60.9375 -27.5325 60.9375 -24.8125 60.9375 C-24.8125 38.8275 -24.8125 16.7175 -24.8125 -6.0625 C-27.4525 -6.0625 -30.0925 -6.0625 -32.8125 -6.0625 C-32.8125 -7.0525 -32.8125 -8.0425 -32.8125 -9.0625 C-29.41813431 -9.3185009 -26.02234604 -9.53752609 -22.625 -9.75 C-21.66529297 -9.82283203 -20.70558594 -9.89566406 -19.71679688 -9.97070312 C-9.96179958 -10.5445265 -6.32906368 -6.93586355 0 0 Z " fill="#010101" transform="translate(48.8125,37.0625)"/>
<path d="M0 0 C0.74473572 0.00202423 1.48947144 0.00404846 2.2567749 0.00613403 C3.02036316 0.00517731 3.78395142 0.00422058 4.57067871 0.00323486 C6.19146812 0.0025528 7.81226024 0.0044089 9.43304443 0.00857544 C11.90429921 0.01389413 14.37536979 0.00864661 16.84661865 0.00222778 C18.4208378 0.00288914 19.99505684 0.00417148 21.5692749 0.00613403 C22.3059137 0.0041098 23.04255249 0.00208557 23.80151367 0 C27.55240498 0.01696034 31.03169159 0.23926818 34.6786499 1.13894653 C34.6786499 2.12894653 34.6786499 3.11894653 34.6786499 4.13894653 C31.20041875 5.29835692 29.21969412 4.84715538 25.6786499 4.13894653 C26.1736499 5.06707153 26.6686499 5.99519653 27.1786499 6.95144653 C28.6786499 10.13894653 28.6786499 10.13894653 28.6786499 13.13894653 C29.3386499 13.46894653 29.9986499 13.79894653 30.6786499 14.13894653 C31.64830104 16.52554918 32.5251363 18.89473498 33.3661499 21.32644653 C36.21505862 29.27672183 39.73595024 36.67347972 43.6786499 44.13894653 C43.87200928 43.53566528 44.06536865 42.93238403 44.2645874 42.31082153 C44.52497803 41.51160278 44.78536865 40.71238403 45.0536499 39.88894653 C45.30888428 39.10004028 45.56411865 38.31113403 45.8270874 37.49832153 C46.63565023 35.25808325 47.60985427 33.26528733 48.6786499 31.13894653 C49.86071112 28.42472317 50.98970274 25.68914467 52.1161499 22.95144653 C52.42818359 22.19420288 52.74021729 21.43695923 53.06170654 20.6567688 C55.15053484 15.54251387 57.0464711 10.41952503 58.6786499 5.13894653 C56.3686499 4.80894653 54.0586499 4.47894653 51.6786499 4.13894653 C52.0086499 2.81894653 52.3386499 1.49894653 52.6786499 0.13894653 C55.80357242 0.08102809 58.92835756 0.04537907 62.0536499 0.01394653 C62.94310303 -0.00281128 63.83255615 -0.01956909 64.7489624 -0.03683472 C65.59974365 -0.04328003 66.4505249 -0.04972534 67.3270874 -0.05636597 C68.50537109 -0.07207642 68.50537109 -0.07207642 69.7074585 -0.08810425 C71.6786499 0.13894653 71.6786499 0.13894653 73.6786499 2.13894653 C73.6786499 2.79894653 73.6786499 3.45894653 73.6786499 4.13894653 C69.2236499 4.63394653 69.2236499 4.63394653 64.6786499 5.13894653 C63.57386453 7.97203997 62.46980661 10.80541343 61.3661499 13.63894653 C61.05741943 14.43043091 60.74868896 15.22191528 60.43060303 16.03738403 C58.76227829 20.3223444 57.12011165 24.61528754 55.51190186 28.92312622 C53.2444848 34.95274157 50.9185418 40.96059233 48.59002686 46.96682739 C46.55228411 52.22856103 44.53512802 57.49068818 42.64349365 62.80691528 C42.33959717 63.64238892 42.03570068 64.47786255 41.72259521 65.33865356 C41.16508937 66.87672127 40.62319346 68.42056666 40.09954834 69.9704895 C39.34661865 72.01785278 39.34661865 72.01785278 37.6786499 75.13894653 C35.07440186 75.83401489 35.07440186 75.83401489 32.6786499 76.13894653 C28.2843402 67.75923794 24.56354706 59.25243959 21.06951904 50.47009277 C19.6601885 46.92937305 18.23344396 43.39568009 16.80755615 39.86160278 C16.53239166 39.1787471 16.25722717 38.49589142 15.97372437 37.79234314 C13.02995132 30.50265816 9.91969771 23.30104401 6.6786499 16.13894653 C6.17462646 15.02132935 5.67060303 13.90371216 5.15130615 12.75222778 C4.00041088 10.21133158 2.84381764 7.67332059 1.6786499 5.13894653 C-0.6313501 5.13894653 -2.9413501 5.13894653 -5.3213501 5.13894653 C-5.8838501 3.20144653 -5.8838501 3.20144653 -6.3213501 1.13894653 C-4.57939812 -0.60300545 -2.32094924 0.01068791 0 0 Z " fill="#010101" transform="translate(490.32135009765625,26.861053466796875)"/>
<path d="M0 0 C1.60279192 0.00015914 3.20558896 0.00585476 4.80834961 0.01586914 C5.65038437 0.01728409 6.49241913 0.01869904 7.35997009 0.02015686 C10.06024671 0.02577276 12.76044163 0.03832791 15.46069336 0.05102539 C17.28686404 0.05603834 19.11303602 0.06060161 20.93920898 0.06469727 C25.42556878 0.07574735 29.9118672 0.0930226 34.39819336 0.11352539 C35.05819336 1.43352539 35.71819336 2.75352539 36.39819336 4.11352539 C33.46994684 5.08960756 31.4420606 5.19579207 28.39819336 5.11352539 C36.09288307 24.97565864 36.09288307 24.97565864 45.39819336 44.11352539 C53.30318533 24.7663322 53.30318533 24.7663322 60.39819336 5.11352539 C59.26381836 4.98977539 58.12944336 4.86602539 56.96069336 4.73852539 C55.78506836 4.53227539 54.60944336 4.32602539 53.39819336 4.11352539 C52.90319336 3.12352539 52.90319336 3.12352539 52.39819336 2.11352539 C54.39819336 0.11352539 54.39819336 0.11352539 56.55297852 -0.02172852 C57.42229004 0.03063965 58.29160156 0.08300781 59.18725586 0.13696289 C60.5987793 0.21430664 60.5987793 0.21430664 62.03881836 0.29321289 C63.02366211 0.35766602 64.00850586 0.42211914 65.02319336 0.48852539 C66.01577148 0.54524414 67.00834961 0.60196289 68.03100586 0.66040039 C70.48744102 0.8021178 72.94289071 0.95354816 75.39819336 1.11352539 C75.39819336 2.10352539 75.39819336 3.09352539 75.39819336 4.11352539 C70.94319336 4.60852539 70.94319336 4.60852539 66.39819336 5.11352539 C64.43101214 10.21301949 62.46514851 15.31301902 60.50064087 20.4135437 C59.80872853 22.20993306 59.11665155 24.00625902 58.42440796 25.80252075 C53.93407328 37.45741451 49.46560716 49.11810395 45.18945312 60.85375977 C43.23830735 66.14156842 41.00955989 71.11660894 38.39819336 76.11352539 C36.14819336 76.16821289 36.14819336 76.16821289 33.39819336 75.11352539 C31.62007082 72.34202934 30.54947026 69.31294157 29.39819336 66.23852539 C28.70276577 64.48154469 28.00615883 62.72503031 27.30834961 60.96899414 C26.97851074 60.12256348 26.64867187 59.27613281 26.30883789 58.40405273 C25.24842567 55.73681749 24.06847212 53.14270879 22.83569336 50.55102539 C20.66065194 45.8578991 18.80738472 41.06725915 16.96069336 36.23852539 C14.07483796 28.69740787 10.8576647 21.41131509 7.39819336 14.11352539 C6.04813222 11.12082021 4.7186098 8.11941458 3.39819336 5.11352539 C1.08819336 5.11352539 -1.22180664 5.11352539 -3.60180664 5.11352539 C-4.16430664 3.17602539 -4.16430664 3.17602539 -4.60180664 1.11352539 C-3.60180664 0.11352539 -3.60180664 0.11352539 0 0 Z " fill="#010101" transform="translate(185.601806640625,26.886474609375)"/>
<path d="M0 0 C0.76928833 -0.0033284 1.53857666 -0.0066568 2.33117676 -0.01008606 C3.95857138 -0.01515129 5.5859764 -0.01749451 7.21337891 -0.01733398 C9.70883175 -0.01952255 12.20384405 -0.03768779 14.69921875 -0.05664062 C16.27864432 -0.05957416 17.85807199 -0.06155922 19.4375 -0.0625 C20.1864856 -0.06968552 20.93547119 -0.07687103 21.70715332 -0.08427429 C26.9899224 -0.06085885 26.9899224 -0.06085885 29.21875 2.16796875 C28.88875 2.82796875 28.55875 3.48796875 28.21875 4.16796875 C25.90875 4.49796875 23.59875 4.82796875 21.21875 5.16796875 C20.88875 26.94796875 20.55875 48.72796875 20.21875 71.16796875 C22.85875 71.16796875 25.49875 71.16796875 28.21875 71.16796875 C28.54875 72.48796875 28.87875 73.80796875 29.21875 75.16796875 C17.00875 75.49796875 4.79875 75.82796875 -7.78125 76.16796875 C-8.27625 73.69296875 -8.27625 73.69296875 -8.78125 71.16796875 C-6.14125 71.16796875 -3.50125 71.16796875 -0.78125 71.16796875 C-1.11125 49.38796875 -1.44125 27.60796875 -1.78125 5.16796875 C-3.76125 5.16796875 -5.74125 5.16796875 -7.78125 5.16796875 C-8.44125 4.83796875 -9.10125 4.50796875 -9.78125 4.16796875 C-9.78125 3.17796875 -9.78125 2.18796875 -9.78125 1.16796875 C-6.68181455 -0.38174898 -3.40181402 0.00505433 0 0 Z " fill="#010101" transform="translate(274.78125,26.83203125)"/>
<path d="M0 0 C25.41 0 50.82 0 77 0 C77.495 0.99 77.495 0.99 78 2 C75.55866763 4.44133237 74.25891189 4.23458132 70.92810059 4.24884033 C70.22463501 4.24164978 69.52116943 4.23445923 68.79638672 4.22705078 C68.0548233 4.22734283 67.31325989 4.22763489 66.54922485 4.22793579 C64.09259429 4.22653994 61.63626522 4.21096698 59.1796875 4.1953125 C57.47860886 4.19158327 55.77752808 4.18873587 54.07644653 4.18673706 C49.59489024 4.17909349 45.11346317 4.15943884 40.63195801 4.1373291 C36.06064604 4.11688622 31.48931323 4.10773868 26.91796875 4.09765625 C17.94525566 4.07619359 8.97263857 4.04204896 0 4 C0 2.68 0 1.36 0 0 Z " fill="#050505" transform="translate(486,136)"/>
<path d="M0 0 C25.41 0 50.82 0 77 0 C77 0.99 77 1.98 77 3 C51.59 3 26.18 3 0 3 C0 2.01 0 1.02 0 0 Z " fill="#050505" transform="translate(16,136)"/>
<path d="M0 0 C0.66 0.99 1.32 1.98 2 3 C1.01 3.495 1.01 3.495 0 4 C-0.17835515 8.54805635 0.00214565 11.8794254 2 16 C-0.46278801 17.231394 -2.2795055 17.07159196 -5 17 C-5.33 16.34 -5.66 15.68 -6 15 C-5.67 14.34 -5.34 13.68 -5 13 C-4.34 13 -3.68 13 -3 13 C-3.33 11.68 -3.66 10.36 -4 9 C-5.32 11.64 -6.64 14.28 -8 17 C-9.89213369 14.61426621 -11.02391783 12.92824652 -12 10 C-12.33 10.99 -12.66 11.98 -13 13 C-12.01 14.485 -12.01 14.485 -11 16 C-13.31 16 -15.62 16 -18 16 C-17.690625 15.34 -17.38125 14.68 -17.0625 14 C-15.75039745 10.29523985 -15.39735865 6.90736009 -15 3 C-15.99 2.67 -16.98 2.34 -18 2 C-17 1 -17 1 -14.4375 0.9375 C-13.2309375 0.9684375 -13.2309375 0.9684375 -12 1 C-10.68 3.64 -9.36 6.28 -8 9 C-7.67386719 8.43410156 -7.34773438 7.86820313 -7.01171875 7.28515625 C-6.57472656 6.55167969 -6.13773437 5.81820312 -5.6875 5.0625 C-5.25824219 4.33160156 -4.82898438 3.60070312 -4.38671875 2.84765625 C-3 1 -3 1 0 0 Z " fill="#050505" transform="translate(348,129)"/>
<path d="M0 0 C2.95003206 0.13257824 2.95003206 0.13257824 5.5 -0.6875 C8 -1 8 -1 9.75 0.25 C11 2 11 2 12 5 C10.56366523 9.05553346 9.56203371 10.66939193 5.8125 12.875 C4.884375 13.24625 3.95625 13.6175 3 14 C3 11 3 11 5 9 C4.01 8.34 3.02 7.68 2 7 C1.4225 7.78375 0.845 8.5675 0.25 9.375 C-1.82897637 11.80047244 -3.09040333 12.85694417 -6 14 C-6.66 13.34 -7.32 12.68 -8 12 C-7.01 11.34 -6.02 10.68 -5 10 C-5.515625 9.649375 -6.03125 9.29875 -6.5625 8.9375 C-8 7 -8 7 -7.8125 3.375 C-7.544375 2.26125 -7.27625 1.1475 -7 0 C-4.31581667 -1.34209166 -2.88064523 -0.63233676 0 0 Z M-4 1 C-4.33 2.32 -4.66 3.64 -5 5 C-3.68 5 -2.36 5 -1 5 C-1.66 3.68 -2.32 2.36 -3 1 C-3.33 1 -3.66 1 -4 1 Z M5 1 C4.67 1.99 4.34 2.98 4 4 C4.33 4.66 4.66 5.32 5 6 C5.99 6 6.98 6 8 6 C7.67 4.35 7.34 2.7 7 1 C6.34 1 5.68 1 5 1 Z " fill="#060606" transform="translate(338,164)"/>
<path d="M0 0 C1.98 0 3.96 0 6 0 C6.33 0.99 6.66 1.98 7 3 C6.01 3.495 6.01 3.495 5 4 C5 7.96 5 11.92 5 16 C3.68 16 2.36 16 1 16 C-0.703125 14.25 -0.703125 14.25 -2.25 12 C-2.77078125 11.2575 -3.2915625 10.515 -3.828125 9.75 C-4.21484375 9.1725 -4.6015625 8.595 -5 8 C-5.33 9.98 -5.66 11.96 -6 14 C-5.01 14.33 -4.02 14.66 -3 15 C-3 15.33 -3 15.66 -3 16 C-5.31 16.33 -7.62 16.66 -10 17 C-10.33 16.01 -10.66 15.02 -11 14 C-10.34 13.67 -9.68 13.34 -9 13 C-8.94600264 11.54207116 -8.90720823 10.08357288 -8.875 8.625 C-8.85179687 7.81289062 -8.82859375 7.00078125 -8.8046875 6.1640625 C-8.78629949 3.78657757 -8.78629949 3.78657757 -11 2 C-9.35 1.67 -7.7 1.34 -6 1 C-3.69 3.64 -1.38 6.28 1 9 C1 7.35 1 5.7 1 4 C0.34 3.34 -0.32 2.68 -1 2 C-0.67 1.34 -0.34 0.68 0 0 Z " fill="#050505" transform="translate(413,129)"/>
<path d="M0 0 C1.81242052 -0.02687279 3.62495233 -0.04633715 5.4375 -0.0625 C6.44683594 -0.07410156 7.45617187 -0.08570313 8.49609375 -0.09765625 C11 0 11 0 12 1 C12.04346799 2.99952758 12.039992 5.00039988 12 7 C12 7.99 12 8.98 12 10 C13.31337396 11.0260734 14.64664105 12.02727325 16 13 C16 13.66 16 14.32 16 15 C13.8125 15.3125 13.8125 15.3125 11 15 C8.1875 12.5 8.1875 12.5 6 10 C6.99 11.65 7.98 13.3 9 15 C2.25 16.125 2.25 16.125 0 15 C0.33 14.01 0.66 13.02 1 12 C1.33 12 1.66 12 2 12 C2.33 9.69 2.66 7.38 3 5 C2.34 4.67 1.68 4.34 1 4 C1.33 3.67 1.66 3.34 2 3 C1.34 2.67 0.68 2.34 0 2 C0 1.34 0 0.68 0 0 Z M6 2 C6 3.65 6 5.3 6 7 C6.99 7 7.98 7 9 7 C8.67 5.35 8.34 3.7 8 2 C7.34 2 6.68 2 6 2 Z " fill="#050505" transform="translate(126,130)"/>
<path d="M0 0 C2.9375 1.625 2.9375 1.625 5 4 C5.07046732 7.94616986 4.60380008 10.15020729 2.3125 13.375 C-0.61045689 15.4289697 -2.42038372 16 -6 16 C-9.12794532 14.19274271 -10.63400914 12.95157623 -11.9375 9.5625 C-12.03603715 5.52247673 -10.99805862 3.06934852 -8.25 0.125 C-5.05775709 -1.47112145 -3.37928173 -1.034474 0 0 Z M-6 2 C-6.66 2.66 -7.32 3.32 -8 4 C-7.58984222 8.65624995 -7.58984222 8.65624995 -6 13 C-3.97536745 13.65213292 -3.97536745 13.65213292 -2 14 C0.51012785 10.4985745 0.51012785 10.4985745 0.8125 6.3125 C0.13259902 3.84411164 0.13259902 3.84411164 -2 2 C-3.32 2 -4.64 2 -6 2 Z " fill="#080707" transform="translate(317,130)"/>
<path d="M0 0 C3.0625 1.375 3.0625 1.375 5.0625 3.5625 C6.46342611 7.50260468 5.67841352 9.58111609 4.0625 13.375 C2.375 15.375 2.375 15.375 0.0625 16.375 C-3.68995951 16.30916738 -6.00062483 16.19098805 -8.875 13.6875 C-10.2988395 10.5885552 -10.48903827 8.75317188 -9.9375 5.375 C-4.57637776 -0.97369739 -4.57637776 -0.97369739 0 0 Z M-3.9375 2.375 C-5.69401531 3.99194804 -5.69401531 3.99194804 -6.9375 6.375 C-6.22526153 9.59674544 -6.22526153 9.59674544 -4.9375 12.375 C-3.2875 12.705 -1.6375 13.035 0.0625 13.375 C1.86661967 10.61575815 2.0752245 9.48527897 1.6875 6.125 C1.48125 5.2175 1.275 4.31 1.0625 3.375 C-0.5875 3.045 -2.2375 2.715 -3.9375 2.375 Z " fill="#030303" transform="translate(159.9375,129.625)"/>
<path d="M0 0 C3.5 1.25 3.5 1.25 5.5 4.25 C6.0682849 8.63391211 5.96835665 10.56875396 3.4375 14.25 C0.5 16.25 0.5 16.25 -3.0625 16.375 C-7.11808807 15.04771663 -8.40599656 13.93544605 -10.5 10.25 C-11.0625 7.75 -11.0625 7.75 -10.5 5.25 C-5.03424658 -1.07876712 -5.03424658 -1.07876712 0 0 Z M-4.5 2.25 C-6.6610211 5.49153166 -7.14247553 6.48692901 -6.5 10.25 C-4.10140956 12.58630748 -4.10140956 12.58630748 -1.5 14.25 C0.68712805 12.64795381 0.68712805 12.64795381 2.5 10.25 C2.35205998 6.5514996 2.14194427 4.89194427 -0.5 2.25 C-1.82 2.25 -3.14 2.25 -4.5 2.25 Z " fill="#060505" transform="translate(240.5,129.75)"/>
<path d="M0 0 C0 2.31 0 4.62 0 7 C-0.391875 6.484375 -0.78375 5.96875 -1.1875 5.4375 C-2.0846875 4.7259375 -2.0846875 4.7259375 -3 4 C-5.65466049 4.23043864 -5.65466049 4.23043864 -8 5 C-8.77802187 7.3015411 -8.77802187 7.3015411 -9 10 C-7.26635169 13.12056696 -6.44004627 13.85331791 -3 15 C-3 13.68 -3 12.36 -3 11 C-3.99 10.67 -4.98 10.34 -6 10 C-6 9.67 -6 9.34 -6 9 C-2.535 8.505 -2.535 8.505 1 8 C1 10.31 1 12.62 1 15 C-5.24050633 17.20253165 -5.24050633 17.20253165 -8.8125 16.25 C-12.10333087 14.36952522 -12.88703195 13.39915379 -13.9375 9.6875 C-14 6 -14 6 -11.6875 3.125 C-7.53423877 -0.158974 -5.26727635 -0.09754215 0 0 Z " fill="#060505" transform="translate(116,129)"/>
<path d="M0 0 C3.3 0.33 6.6 0.66 10 1 C11.00000429 5.00001715 10.80688405 7.05523353 10 11 C10.99 11.33 11.98 11.66 13 12 C11.515 14.475 11.515 14.475 10 17 C6.04 16.67 2.08 16.34 -2 16 C-1.34 15.01 -0.68 14.02 0 13 C0.66 13 1.32 13 2 13 C1.88637738 11.5199159 1.75877092 10.04089926 1.625 8.5625 C1.55539062 7.73878906 1.48578125 6.91507813 1.4140625 6.06640625 C1.27742188 5.38449219 1.14078125 4.70257813 1 4 C0.34 3.67 -0.32 3.34 -1 3 C-0.67 2.01 -0.34 1.02 0 0 Z M5 3 C4.67 4.32 4.34 5.64 4 7 C4.99 7.33 5.98 7.66 7 8 C7.33 6.35 7.66 4.7 8 3 C7.01 3 6.02 3 5 3 Z M5 9 C4.67 10.32 4.34 11.64 4 13 C6.475 13.495 6.475 13.495 9 14 C8.34 12.35 7.68 10.7 7 9 C6.34 9 5.68 9 5 9 Z " fill="#040404" transform="translate(445,129)"/>
<path d="M0 0 C2.42190135 2.14245119 2.3536469 4.3169393 2.625 7.4375 C-1 10.4375 -1 10.4375 -4.375 10.4375 C-4.375 11.4275 -4.375 12.4175 -4.375 13.4375 C-3.715 13.4375 -3.055 13.4375 -2.375 13.4375 C-2.375 14.0975 -2.375 14.7575 -2.375 15.4375 C-4.685 15.7675 -6.995 16.0975 -9.375 16.4375 C-9.375 15.1175 -9.375 13.7975 -9.375 12.4375 C-9.045 12.4375 -8.715 12.4375 -8.375 12.4375 C-8.32100264 10.97957116 -8.28220823 9.52107288 -8.25 8.0625 C-8.22679687 7.25039062 -8.20359375 6.43828125 -8.1796875 5.6015625 C-8.16129949 3.22407757 -8.16129949 3.22407757 -10.375 1.4375 C-7.88292757 -1.05457243 -3.20272864 -0.75854099 0 0 Z M-4.375 2.4375 C-4.375 4.4175 -4.375 6.3975 -4.375 8.4375 C-3.385 8.1075 -2.395 7.7775 -1.375 7.4375 C-1.705 5.7875 -2.035 4.1375 -2.375 2.4375 C-3.035 2.4375 -3.695 2.4375 -4.375 2.4375 Z " fill="#050505" transform="translate(368.375,129.5625)"/>
<path d="M0 0 C2.64 0 5.28 0 8 0 C7.67 0.99 7.34 1.98 7 3 C6.93334624 4.39439664 6.91461801 5.79169875 6.9375 7.1875 C6.958125 8.445625 6.97875 9.70375 7 11 C8.65 11.33 10.3 11.66 12 12 C12.33 8.7 12.66 5.4 13 2 C12.34 2 11.68 2 11 2 C11 1.34 11 0.68 11 0 C12.98 0 14.96 0 17 0 C16.71848084 2.12636813 16.42446737 4.25108528 16.125 6.375 C15.96257812 7.55835938 15.80015625 8.74171875 15.6328125 9.9609375 C15 13 15 13 13 15 C7.84395604 16.45714286 7.84395604 16.45714286 4.84375 14.83203125 C2.47196772 12.47532386 2.4806169 11.16832698 2.375 7.875 C2.31560616 5.25986007 2.31560616 5.25986007 2 3 C1.34 2.67 0.68 2.34 0 2 C0 1.34 0 0.68 0 0 Z " fill="#060505" transform="translate(174,130)"/>
<path d="M0 0 C2.1875 -0.375 2.1875 -0.375 5 0 C6.99022836 1.83961648 8.38989899 3.79186148 10 6 C9.67 4.02 9.34 2.04 9 0 C10.98 0 12.96 0 15 0 C14.34 4.29 13.68 8.58 13 13 C8.80825346 11.95206337 7.78407039 11.08236365 5 8 C5.33 9.65 5.66 11.3 6 13 C4.02 13 2.04 13 0 13 C0.33 12.34 0.66 11.68 1 11 C1.22467831 9.46331135 1.40796805 7.92031946 1.5625 6.375 C1.64628906 5.55773437 1.73007813 4.74046875 1.81640625 3.8984375 C1.87699219 3.27195313 1.93757812 2.64546875 2 2 C1.34 2 0.68 2 0 2 C0 1.34 0 0.68 0 0 Z M4 5 C5 7 5 7 5 7 Z " fill="#060606" transform="translate(253,163)"/>
<path d="M0 0 C3.63 0 7.26 0 11 0 C11.66 1.32 12.32 2.64 13 4 C12.34 4 11.68 4 11 4 C11 6.31 11 8.62 11 11 C9.02 10.34 7.04 9.68 5 9 C5.99 10.98 6.98 12.96 8 15 C5.53721199 16.231394 3.7204945 16.07159196 1 16 C1 12.83772601 1.17014788 9.88359512 1.5 6.75 C1.5928125 5.85796875 1.685625 4.9659375 1.78125 4.046875 C1.8534375 3.37140625 1.925625 2.6959375 2 2 C1.34 2 0.68 2 0 2 C0 1.34 0 0.68 0 0 Z M5 2 C5 3.65 5 5.3 5 7 C5.99 7 6.98 7 8 7 C8 6.34 8 5.68 8 5 C8.66 4.67 9.32 4.34 10 4 C9.34 3.34 8.68 2.68 8 2 C7.01 2 6.02 2 5 2 Z " fill="#090808" transform="translate(251,130)"/>
<path d="M0 0 C0.99 0.33 1.98 0.66 3 1 C4.31035007 4.17242648 5 6.55881664 5 10 C5.66 10.33 6.32 10.66 7 11 C8.125 13.0625 8.125 13.0625 9 15 C6.3333581 16.33332095 4.83319697 15.67102033 2 15 C2 13.68 2 12.36 2 11 C0.68 10.67 -0.64 10.34 -2 10 C-2 10.99 -2 11.98 -2 13 C-1.34 13 -0.68 13 0 13 C-0.33 13.99 -0.66 14.98 -1 16 C-3.31 15.67 -5.62 15.34 -8 15 C-8 14.34 -8 13.68 -8 13 C-7.01 13 -6.02 13 -5 13 C-4.80664062 12.39671875 -4.61328125 11.7934375 -4.4140625 11.171875 C-4.15367187 10.37265625 -3.89328125 9.5734375 -3.625 8.75 C-3.36976563 7.96109375 -3.11453125 7.1721875 -2.8515625 6.359375 C-2.04826333 4.13372042 -1.10288338 2.09068328 0 0 Z M0 5 C1 8 1 8 1 8 Z " fill="#060606" transform="translate(386,130)"/>
<path d="M0 0 C1.4370809 -0.05422947 2.87475462 -0.09289723 4.3125 -0.125 C5.11300781 -0.14820313 5.91351563 -0.17140625 6.73828125 -0.1953125 C9 0 9 0 12 2 C12.45192646 4.93752198 12.44914337 6.37975439 10.6875 8.8125 C9 10 9 10 6 10 C6.33 11.98 6.66 13.96 7 16 C4.69 15.67 2.38 15.34 0 15 C0 14.34 0 13.68 0 13 C0.66 13 1.32 13 2 13 C2 9.37 2 5.74 2 2 C1.34 2 0.68 2 0 2 C0 1.34 0 0.68 0 0 Z M5 2 C5 3.98 5 5.96 5 8 C5.99 8 6.98 8 8 8 C8.33 6.68 8.66 5.36 9 4 C7.68 3.34 6.36 2.68 5 2 Z " fill="#070506" transform="translate(200,130)"/>
<path d="M0 0 C2.00948183 0.01778303 4.01668765 0.16786374 6.01953125 0.33203125 C5.35953125 1.98203125 4.69953125 3.63203125 4.01953125 5.33203125 C3.35953125 5.00203125 2.69953125 4.67203125 2.01953125 4.33203125 C2.01953125 3.67203125 2.01953125 3.01203125 2.01953125 2.33203125 C1.02953125 2.33203125 0.03953125 2.33203125 -0.98046875 2.33203125 C-0.86740178 4.29097486 -0.86740178 4.29097486 0.01953125 6.33203125 C2.50987511 7.62863559 2.50987511 7.62863559 5.01953125 8.33203125 C5.26953125 10.64453125 5.26953125 10.64453125 5.01953125 13.33203125 C3.39453125 15.20703125 3.39453125 15.20703125 1.01953125 16.33203125 C-2.23046875 16.01953125 -2.23046875 16.01953125 -4.98046875 15.33203125 C-4.98046875 13.68203125 -4.98046875 12.03203125 -4.98046875 10.33203125 C-3.99046875 10.66203125 -3.00046875 10.99203125 -1.98046875 11.33203125 C-1.98046875 11.99203125 -1.98046875 12.65203125 -1.98046875 13.33203125 C-0.66046875 13.33203125 0.65953125 13.33203125 2.01953125 13.33203125 C-0.29046875 10.69203125 -2.60046875 8.05203125 -4.98046875 5.33203125 C-3.05235036 0.51173527 -3.05235036 0.51173527 0 0 Z " fill="#070707" transform="translate(470.98046875,129.66796875)"/>
<path d="M0 0 C0 1.65 0 3.3 0 5 C-0.66 5 -1.32 5 -2 5 C-2.33 4.34 -2.66 3.68 -3 3 C-4.66611905 2.957279 -6.33382885 2.95936168 -8 3 C-9.31120653 4.10796961 -9.31120653 4.10796961 -9.375 6.875 C-9.25125 7.90625 -9.1275 8.9375 -9 10 C-6.60943058 11.9354148 -6.60943058 11.9354148 -4 13 C-2.68 12.01 -1.36 11.02 0 10 C-0.33 11.65 -0.66 13.3 -1 15 C-2.43655854 15.08131463 -3.8744483 15.13933559 -5.3125 15.1875 C-6.51326172 15.23970703 -6.51326172 15.23970703 -7.73828125 15.29296875 C-10 15 -10 15 -11.73046875 13.69921875 C-13.86234271 10.84578745 -14 8.50766583 -14 5 C-10.31580576 -0.77190431 -6.23850251 -0.61161789 0 0 Z " fill="#060505" transform="translate(295,130)"/>
<path d="M0 0 C2.97 0.33 5.94 0.66 9 1 C9.36220266 2.79005941 9.71452469 4.58212057 10.0625 6.375 C10.25972656 7.37273437 10.45695312 8.37046875 10.66015625 9.3984375 C11 12 11 12 10 14 C6.37 14 2.74 14 -1 14 C-0.67 13.34 -0.34 12.68 0 12 C0.07009733 10.52234834 0.08435939 9.04165186 0.0625 7.5625 C0.05347656 6.78003906 0.04445313 5.99757812 0.03515625 5.19140625 C0.02355469 4.46824219 0.01195312 3.74507812 0 3 C0 2.01 0 1.02 0 0 Z M4 3 C4.33 4.32 4.66 5.64 5 7 C5.99 6.01 6.98 5.02 8 4 C6.68 3.67 5.36 3.34 4 3 Z M4 9 C4.33 10.32 4.66 11.64 5 13 C5.99 12.67 6.98 12.34 8 12 C7.67 11.01 7.34 10.02 7 9 C6.01 9 5.02 9 4 9 Z " fill="#080607" transform="translate(298,162)"/>
<path d="M0 0 C0 1.65 0 3.3 0 5 C-0.66 4.67 -1.32 4.34 -2 4 C-2 3.34 -2 2.68 -2 2 C-3.94999129 2.19471111 -3.94999129 2.19471111 -6 3 C-7.40854666 4.81701858 -7.40854666 4.81701858 -8 7 C-7.67 7.99 -7.34 8.98 -7 10 C-4.03 10.495 -4.03 10.495 -1 11 C-1 10.34 -1 9.68 -1 9 C-0.01 9.33 0.98 9.66 2 10 C0.875 12 0.875 12 -1 14 C-4.36247778 14.50079456 -6.28107465 14.36917788 -9.3125 12.8125 C-11.46657771 10.49886098 -11.85008899 9.14813112 -12 6 C-11.1875 3.25 -11.1875 3.25 -10 1 C-6.78548731 -0.60725635 -3.56387464 -0.05748185 0 0 Z " fill="#070607" transform="translate(288,163)"/>
<path d="M0 0 C0 1.32 0 2.64 0 4 C-1.32 3.34 -2.64 2.68 -4 2 C-3.24849977 5.27773504 -3.24849977 5.27773504 0 7 C0.3125 9.5 0.3125 9.5 0 12 C-2.36556709 14.36556709 -3.74303521 14.58244041 -7 15 C-8 14 -8 14 -8.0625 10.9375 C-8.041875 9.968125 -8.02125 8.99875 -8 8 C-7.34 9.32 -6.68 10.64 -6 12 C-5.01 12 -4.02 12 -3 12 C-3.75416282 8.90061901 -3.75416282 8.90061901 -6.125 7.125 C-6.74375 6.42375 -7.3625 5.7225 -8 5 C-7.75 2.25 -7.75 2.25 -7 0 C-3.86650268 -1.04449911 -3.01031744 -0.93423645 0 0 Z " fill="#070707" transform="translate(230,163)"/>
<path d="M0 0 C2.31 0 4.62 0 7 0 C6.67 0.99 6.34 1.98 6 3 C5.93259135 4.56118428 5.91485544 6.1250252 5.9375 7.6875 C5.94652344 8.49574219 5.95554687 9.30398437 5.96484375 10.13671875 C5.97644531 10.75160156 5.98804688 11.36648437 6 12 C6.66 12.33 7.32 12.66 8 13 C7.67 13.99 7.34 14.98 7 16 C5.02 16 3.04 16 1 16 C1 13.91533165 1.00264371 11.83050856 1.03515625 9.74609375 C1.04417969 8.98425781 1.05320312 8.22242188 1.0625 7.4375 C1.07410156 6.67308594 1.08570313 5.90867188 1.09765625 5.12109375 C1.08767007 2.80924107 1.08767007 2.80924107 0 0 Z " fill="#030303" transform="translate(428,130)"/>
<path d="M0 0 C1.98 0 3.96 0 6 0 C5.34 3.3 4.68 6.6 4 10 C4.66 10.33 5.32 10.66 6 11 C6 11.99 6 12.98 6 14 C3.69 14 1.38 14 -1 14 C-0.67 12.68 -0.34 11.36 0 10 C0.66 10 1.32 10 2 10 C2 7.69 2 5.38 2 3 C1.01 3 0.02 3 -1 3 C-0.67 2.01 -0.34 1.02 0 0 Z " fill="#060606" transform="translate(239,162)"/>
<path d="M0 0 C0.99 0.33 1.98 0.66 3 1 C4.15774508 4.47323524 4 7.35812299 4 11 C4.33 11.66 4.66 12.32 5 13 C2.36 13 -0.28 13 -3 13 C-2.34 12.34 -1.68 11.68 -1 11 C-0.54188325 9.02764667 -0.54188325 9.02764667 -0.375 6.875 C-0.25125 5.59625 -0.1275 4.3175 0 3 C-0.66 3 -1.32 3 -2 3 C-2 2.34 -2 1.68 -2 1 C-1.34 0.67 -0.68 0.34 0 0 Z " fill="#070707" transform="translate(324,163)"/>
<path d="M0 0 C0.99 0.33 1.98 0.66 3 1 C2.67 4.3 2.34 7.6 2 11 C2.99 11.33 3.98 11.66 5 12 C5 12.33 5 12.66 5 13 C2.69 13 0.38 13 -2 13 C-2 12.34 -2 11.68 -2 11 C-1.34 11 -0.68 11 0 11 C0 8.36 0 5.72 0 3 C-0.66 3 -1.32 3 -2 3 C-2 2.34 -2 1.68 -2 1 C-1.34 0.67 -0.68 0.34 0 0 Z " fill="#090909" transform="translate(353,163)"/>
<path d="M0 0 C1.22589844 0.01353516 1.22589844 0.01353516 2.4765625 0.02734375 C3.41628906 0.04474609 3.41628906 0.04474609 4.375 0.0625 C4.375 1.7125 4.375 3.3625 4.375 5.0625 C3.715 5.0625 3.055 5.0625 2.375 5.0625 C2.045 4.4025 1.715 3.7425 1.375 3.0625 C-3.08 3.5575 -3.08 3.5575 -7.625 4.0625 C-7.295 3.0725 -6.965 2.0825 -6.625 1.0625 C-4.21954362 -0.14022819 -2.67503047 -0.03821472 0 0 Z " fill="#0C0B0B" transform="translate(290.625,129.9375)"/>
<path d="M0 0 C2.625 0.375 2.625 0.375 5 1 C5 1.99 5 2.98 5 4 C4.01 4.495 4.01 4.495 3 5 C3 4.34 3 3.68 3 3 C1.35 2.67 -0.3 2.34 -2 2 C-1.34 1.34 -0.68 0.68 0 0 Z " fill="#0C0C0C" transform="translate(158,130)"/>
<path d="M0 0 C0.99 0.33 1.98 0.66 3 1 C2.01 1 1.02 1 0 1 C0 0.67 0 0.34 0 0 Z " fill="#0B060B" transform="translate(312,133)"/>
<path d="M0 0 C0.66 0.33 1.32 0.66 2 1 C1.01 1 0.02 1 -1 1 C-0.67 0.67 -0.34 0.34 0 0 Z " fill="#000000" transform="translate(156,133)"/>
<path d="M0 0 C0.66 0 1.32 0 2 0 C1.67 0.66 1.34 1.32 1 2 C0.67 1.34 0.34 0.68 0 0 Z " fill="#000000" transform="translate(258,172)"/>
<path d="" fill="#000000" transform="translate(0,0)"/>
<path d="" fill="#0D0D0D" transform="translate(0,0)"/>
<path d="" fill="#000000" transform="translate(0,0)"/>
<path d="M0 0 C2 1 2 1 2 1 Z " fill="#000000" transform="translate(237,166)"/>
<path d="" fill="#000000" transform="translate(0,0)"/>
<path d="" fill="#000000" transform="translate(0,0)"/>
<path d="M0 0 C2 1 2 1 2 1 Z " fill="#060606" transform="translate(450,140)"/>
<path d="M0 0 C2 1 2 1 2 1 Z " fill="#000000" transform="translate(311,140)"/>
<path d="" fill="#000000" transform="translate(0,0)"/>
<path d="" fill="#000000" transform="translate(0,0)"/>
<path d="" fill="#000000" transform="translate(0,0)"/>
<path d="" fill="#000000" transform="translate(0,0)"/>
<path d="M0 0 C2 1 2 1 2 1 Z " fill="#000000" transform="translate(237,133)"/>
<path d="M0 0 C2 1 2 1 2 1 Z " fill="#000000" transform="translate(233,129)"/>
<path d="M0 0 C2 1 2 1 2 1 Z " fill="#000000" transform="translate(105,129)"/>
<path d="" fill="#000000" transform="translate(0,0)"/>
<path d="" fill="#000000" transform="translate(0,0)"/>
<path d="M0 0 C2 1 2 1 2 1 Z " fill="#000000" transform="translate(262,29)"/>
<path d="" fill="#000000" transform="translate(0,0)"/>
<path d="" fill="#000000" transform="translate(0,0)"/>
<path d="" fill="#000000" transform="translate(0,0)"/>
<path d="" fill="#000000" transform="translate(0,0)"/>
<path d="" fill="#000000" transform="translate(0,0)"/>
<path d="" fill="#000000" transform="translate(0,0)"/>
<path d="" fill="#000000" transform="translate(0,0)"/>
<path d="" fill="#000000" transform="translate(0,0)"/>
<path d="" fill="#000000" transform="translate(0,0)"/>
<path d="" fill="#000000" transform="translate(0,0)"/>
<path d="" fill="#000000" transform="translate(0,0)"/>
<path d="" fill="#000000" transform="translate(0,0)"/>
<path d="" fill="#000000" transform="translate(0,0)"/>
<path d="" fill="#171717" transform="translate(0,0)"/>
<path d="" fill="#000000" transform="translate(0,0)"/>
<path d="" fill="#000000" transform="translate(0,0)"/>
<path d="" fill="#000000" transform="translate(0,0)"/>
<path d="" fill="#000000" transform="translate(0,0)"/>
<path d="" fill="#000000" transform="translate(0,0)"/>
<path d="" fill="#000000" transform="translate(0,0)"/>
<path d="" fill="#000000" transform="translate(0,0)"/>
<path d="" fill="#000000" transform="translate(0,0)"/>
<path d="" fill="#000000" transform="translate(0,0)"/>
<path d="" fill="#000000" transform="translate(0,0)"/>
<path d="" fill="#000000" transform="translate(0,0)"/>
<path d="" fill="#000000" transform="translate(0,0)"/>
<path d="" fill="#000000" transform="translate(0,0)"/>
<path d="" fill="#000000" transform="translate(0,0)"/>
<path d="" fill="#000000" transform="translate(0,0)"/>
<path d="" fill="#000000" transform="translate(0,0)"/>
<path d="" fill="#000000" transform="translate(0,0)"/>
<path d="" fill="#000000" transform="translate(0,0)"/>
<path d="" fill="#000000" transform="translate(0,0)"/>
<path d="" fill="#000000" transform="translate(0,0)"/>
<path d="" fill="#000000" transform="translate(0,0)"/>
<path d="" fill="#000000" transform="translate(0,0)"/>
<path d="" fill="#000000" transform="translate(0,0)"/>
<path d="" fill="#000000" transform="translate(0,0)"/>
<path d="" fill="#000000" transform="translate(0,0)"/>
<path d="" fill="#000000" transform="translate(0,0)"/>
<path d="" fill="#000000" transform="translate(0,0)"/>
<path d="" fill="#000000" transform="translate(0,0)"/>
<path d="" fill="#000000" transform="translate(0,0)"/>
<path d="" fill="#000000" transform="translate(0,0)"/>
<path d="" fill="#000000" transform="translate(0,0)"/>
<path d="" fill="#000000" transform="translate(0,0)"/>
<path d="" fill="#000000" transform="translate(0,0)"/>
<path d="" fill="#000000" transform="translate(0,0)"/>
<path d="" fill="#101010" transform="translate(0,0)"/>
<path d="" fill="#000000" transform="translate(0,0)"/>
<path d="" fill="#000000" transform="translate(0,0)"/>
<path d="" fill="#000000" transform="translate(0,0)"/>
<path d="" fill="#000000" transform="translate(0,0)"/>
<path d="" fill="#000000" transform="translate(0,0)"/>
<path d="" fill="#000000" transform="translate(0,0)"/>
<path d="" fill="#000000" transform="translate(0,0)"/>
<path d="" fill="#000000" transform="translate(0,0)"/>
<path d="" fill="#000000" transform="translate(0,0)"/>
<path d="" fill="#000000" transform="translate(0,0)"/>
<path d="" fill="#000000" transform="translate(0,0)"/>
<path d="" fill="#000000" transform="translate(0,0)"/>
<path d="" fill="#000000" transform="translate(0,0)"/>
<path d="" fill="#000000" transform="translate(0,0)"/>
<path d="" fill="#000000" transform="translate(0,0)"/>
<path d="" fill="#000000" transform="translate(0,0)"/>
<path d="" fill="#000000" transform="translate(0,0)"/>
<path d="" fill="#000000" transform="translate(0,0)"/>
<path d="" fill="#000000" transform="translate(0,0)"/>
<path d="" fill="#000000" transform="translate(0,0)"/>
<path d="" fill="#000000" transform="translate(0,0)"/>
<path d="" fill="#000000" transform="translate(0,0)"/>
<path d="" fill="#000000" transform="translate(0,0)"/>
<path d="" fill="#000000" transform="translate(0,0)"/>
<path d="" fill="#000000" transform="translate(0,0)"/>
<path d="" fill="#000000" transform="translate(0,0)"/>
<path d="" fill="#000000" transform="translate(0,0)"/>
<path d="" fill="#000000" transform="translate(0,0)"/>
<path d="" fill="#000000" transform="translate(0,0)"/>
<path d="" fill="#000000" transform="translate(0,0)"/>
<path d="" fill="#000000" transform="translate(0,0)"/>
<path d="" fill="#000000" transform="translate(0,0)"/>
<path d="" fill="#000000" transform="translate(0,0)"/>
<path d="" fill="#000000" transform="translate(0,0)"/>
<path d="" fill="#000000" transform="translate(0,0)"/>
<path d="" fill="#000000" transform="translate(0,0)"/>
<path d="" fill="#000000" transform="translate(0,0)"/>
<path d="" fill="#000000" transform="translate(0,0)"/>
<path d="" fill="#000000" transform="translate(0,0)"/>
<path d="" fill="#000000" transform="translate(0,0)"/>
<path d="" fill="#151515" transform="translate(0,0)"/>
<path d="" fill="#000000" transform="translate(0,0)"/>
<path d="" fill="#000000" transform="translate(0,0)"/>
<path d="" fill="#000000" transform="translate(0,0)"/>
<path d="" fill="#000000" transform="translate(0,0)"/>
<path d="" fill="#000000" transform="translate(0,0)"/>
<path d="" fill="#000000" transform="translate(0,0)"/>
<path d="" fill="#000000" transform="translate(0,0)"/>
<path d="" fill="#000000" transform="translate(0,0)"/>
<path d="" fill="#000000" transform="translate(0,0)"/>
<path d="" fill="#000000" transform="translate(0,0)"/>
<path d="" fill="#000000" transform="translate(0,0)"/>
<path d="" fill="#000000" transform="translate(0,0)"/>
<path d="" fill="#000000" transform="translate(0,0)"/>
<path d="" fill="#000000" transform="translate(0,0)"/>
<path d="" fill="#000000" transform="translate(0,0)"/>
<path d="" fill="#000000" transform="translate(0,0)"/>
<path d="" fill="#000000" transform="translate(0,0)"/>
<path d="" fill="#000000" transform="translate(0,0)"/>
<path d="" fill="#000000" transform="translate(0,0)"/>
<path d="" fill="#000000" transform="translate(0,0)"/>
<path d="" fill="#000000" transform="translate(0,0)"/>
<path d="" fill="#000000" transform="translate(0,0)"/>
<path d="" fill="#000000" transform="translate(0,0)"/>
<path d="" fill="#000000" transform="translate(0,0)"/>
<path d="" fill="#000000" transform="translate(0,0)"/>
<path d="" fill="#000000" transform="translate(0,0)"/>
<path d="" fill="#000000" transform="translate(0,0)"/>
<path d="" fill="#000000" transform="translate(0,0)"/>
<path d="" fill="#000000" transform="translate(0,0)"/>
<path d="" fill="#000000" transform="translate(0,0)"/>
<path d="" fill="#000000" transform="translate(0,0)"/>
<path d="" fill="#000000" transform="translate(0,0)"/>
<path d="" fill="#000000" transform="translate(0,0)"/>
<path d="" fill="#000000" transform="translate(0,0)"/>
<path d="" fill="#000000" transform="translate(0,0)"/>
<path d="" fill="#000000" transform="translate(0,0)"/>
<path d="" fill="#000000" transform="translate(0,0)"/>
<path d="" fill="#000000" transform="translate(0,0)"/>
<path d="" fill="#000000" transform="translate(0,0)"/>
<path d="" fill="#000000" transform="translate(0,0)"/>
<path d="" fill="#000000" transform="translate(0,0)"/>
<path d="" fill="#000000" transform="translate(0,0)"/>
<path d="" fill="#000000" transform="translate(0,0)"/>
<path d="" fill="#000000" transform="translate(0,0)"/>
<path d="" fill="#000000" transform="translate(0,0)"/>
<path d="" fill="#000000" transform="translate(0,0)"/>
<path d="" fill="#000000" transform="translate(0,0)"/>
<path d="" fill="#000000" transform="translate(0,0)"/>
<path d="" fill="#000000" transform="translate(0,0)"/>
<path d="" fill="#000000" transform="translate(0,0)"/>
<path d="" fill="#000000" transform="translate(0,0)"/>
<path d="" fill="#000000" transform="translate(0,0)"/>
<path d="" fill="#000000" transform="translate(0,0)"/>
<path d="" fill="#000000" transform="translate(0,0)"/>
<path d="" fill="#000000" transform="translate(0,0)"/>
<path d="" fill="#000000" transform="translate(0,0)"/>
<path d="" fill="#000000" transform="translate(0,0)"/>
<path d="" fill="#000000" transform="translate(0,0)"/>
<path d="" fill="#000000" transform="translate(0,0)"/>
<path d="" fill="#000000" transform="translate(0,0)"/>
<path d="" fill="#000000" transform="translate(0,0)"/>
<path d="" fill="#000000" transform="translate(0,0)"/>
<path d="" fill="#000000" transform="translate(0,0)"/>
<path d="" fill="#000000" transform="translate(0,0)"/>
<path d="" fill="#000000" transform="translate(0,0)"/>
<path d="" fill="#000000" transform="translate(0,0)"/>
<path d="" fill="#000000" transform="translate(0,0)"/>
<path d="" fill="#000000" transform="translate(0,0)"/>
<path d="" fill="#000000" transform="translate(0,0)"/>
<path d="" fill="#000000" transform="translate(0,0)"/>
<path d="" fill="#000000" transform="translate(0,0)"/>
<path d="" fill="#000000" transform="translate(0,0)"/>
<path d="" fill="#000000" transform="translate(0,0)"/>
<path d="" fill="#000000" transform="translate(0,0)"/>
<path d="" fill="#000000" transform="translate(0,0)"/>
<path d="" fill="#000000" transform="translate(0,0)"/>
<path d="" fill="#000000" transform="translate(0,0)"/>
<path d="" fill="#000000" transform="translate(0,0)"/>
<path d="" fill="#000000" transform="translate(0,0)"/>
<path d="" fill="#000000" transform="translate(0,0)"/>
<path d="" fill="#000000" transform="translate(0,0)"/>
<path d="" fill="#000000" transform="translate(0,0)"/>
<path d="" fill="#000000" transform="translate(0,0)"/>
<path d="" fill="#000000" transform="translate(0,0)"/>
<path d="" fill="#000000" transform="translate(0,0)"/>
<path d="" fill="#000000" transform="translate(0,0)"/>
<path d="" fill="#000000" transform="translate(0,0)"/>
<path d="" fill="#000000" transform="translate(0,0)"/>
<path d="" fill="#000000" transform="translate(0,0)"/>
<path d="" fill="#000000" transform="translate(0,0)"/>
<path d="" fill="#000000" transform="translate(0,0)"/>
<path d="" fill="#000000" transform="translate(0,0)"/>
<path d="" fill="#000000" transform="translate(0,0)"/>
<path d="" fill="#000000" transform="translate(0,0)"/>
<path d="" fill="#000000" transform="translate(0,0)"/>
<path d="" fill="#000000" transform="translate(0,0)"/>
<path d="" fill="#000000" transform="translate(0,0)"/>
<path d="" fill="#000000" transform="translate(0,0)"/>
<path d="" fill="#000000" transform="translate(0,0)"/>
<path d="" fill="#000000" transform="translate(0,0)"/>
<path d="" fill="#000000" transform="translate(0,0)"/>
<path d="" fill="#000000" transform="translate(0,0)"/>
<path d="" fill="#000000" transform="translate(0,0)"/>
<path d="" fill="#000000" transform="translate(0,0)"/>
<path d="" fill="#000000" transform="translate(0,0)"/>
</svg>
