<svg xmlns="http://www.w3.org/2000/svg" width="151" height="40" viewBox="0 0 151 40" fill="none">
  <path d="M35.9513 1.84C38.5559 1.84 40.704 2.16 42.3957 2.8C44.0873 3.41333 45.3494 4.36 46.1818 5.64C47.0142 6.89333 47.4303 8.48 47.4303 10.4C47.4303 11.7067 47.1753 12.8533 46.6651 13.84C46.1818 14.8 45.5239 15.6267 44.6915 16.32C43.8859 16.9867 43.0133 17.5333 42.0735 17.96L50.5317 30.4H43.7651L36.918 19.44H33.6555V30.4H27.5736V1.84H35.9513ZM35.5083 6.8H33.6555V14.52H35.6291C36.9717 14.52 38.0592 14.3733 38.8916 14.08C39.724 13.7867 40.3281 13.3467 40.704 12.76C41.08 12.1467 41.2679 11.4133 41.2679 10.56C41.2679 9.65333 41.0531 8.93333 40.6235 8.4C40.2207 7.84 39.5897 7.44 38.7304 7.2C37.8981 6.93333 36.824 6.8 35.5083 6.8Z" fill="#fff"/>
  <path d="M71.4419 8.56V30.4H66.8503L66.0448 27.6H65.7225C65.2661 28.3467 64.6753 28.96 63.9503 29.44C63.2522 29.8933 62.4735 30.2267 61.6143 30.44C60.755 30.68 59.8689 30.8 58.956 30.8C57.3986 30.8 56.0291 30.52 54.8477 29.96C53.6662 29.4 52.7532 28.5333 52.1088 27.36C51.4644 26.1867 51.1422 24.6667 51.1422 22.8V8.56H57.1435V21.32C57.1435 22.8667 57.4254 24.04 57.9893 24.84C58.5532 25.64 59.4527 26.04 60.6879 26.04C61.9231 26.04 62.8763 25.76 63.5476 25.2C64.2457 24.64 64.729 23.8267 64.9976 22.76C65.2929 21.6933 65.4406 20.3867 65.4406 18.84V8.56H71.4419Z" fill="#fff"/>
  <path d="M81.319 13.6C81.319 14.4267 81.2787 15.2533 81.1982 16.08C81.1445 16.88 81.0773 17.6933 80.9968 18.52H81.0773C81.3458 18.1467 81.6144 17.7733 81.8829 17.4C82.1782 17.0267 82.4736 16.6533 82.769 16.28C83.0643 15.9067 83.3731 15.5467 83.6954 15.2L89.8578 8.56H96.6244L87.8842 18.04L97.148 30.4H90.2203L83.8967 21.56L81.319 23.6V30.4H75.3177V0H81.319V13.6Z" fill="#fff"/>
  <path d="M103.879 8.56V30.4H97.8777V8.56H103.879ZM100.898 0C101.785 0 102.55 0.213334 103.194 0.640001C103.839 1.04 104.161 1.8 104.161 2.92C104.161 4.01333 103.839 4.77333 103.194 5.2C102.55 5.62667 101.785 5.84 100.898 5.84C99.9855 5.84 99.2068 5.62667 98.5624 5.2C97.9448 4.77333 97.636 4.01333 97.636 2.92C97.636 1.8 97.9448 1.04 98.5624 0.640001C99.2068 0.213334 99.9855 0 100.898 0Z" fill="#fff"/>
  <path d="M120.219 8.16C122.582 8.16 124.475 8.8 125.898 10.08C127.321 11.3333 128.033 13.36 128.033 16.16V30.4H122.031V17.64C122.031 16.0667 121.75 14.8933 121.186 14.12C120.622 13.32 119.722 12.92 118.487 12.92C116.661 12.92 115.413 13.5467 114.741 14.8C114.07 16.0267 113.734 17.8 113.734 20.12V30.4H107.733V8.56H112.325L113.13 11.36H113.452C113.936 10.6133 114.526 10.0133 115.225 9.56C115.923 9.08 116.701 8.73333 117.561 8.52C118.42 8.28 119.306 8.16 120.219 8.16Z" fill="#fff"/>
  <path d="M138.917 8.16C140.259 8.16 141.468 8.42667 142.542 8.96C143.616 9.49333 144.529 10.2933 145.281 11.36H145.442L145.925 8.56H151V30.44C151 32.52 150.584 34.2667 149.751 35.68C148.946 37.0933 147.724 38.16 146.086 38.88C144.448 39.6267 142.421 40 140.004 40C138.447 40 136.997 39.9067 135.654 39.72C134.339 39.5333 133.05 39.2 131.788 38.72V33.96C132.701 34.3333 133.614 34.64 134.527 34.88C135.466 35.1467 136.42 35.3333 137.386 35.44C138.38 35.5733 139.373 35.64 140.367 35.64C141.924 35.64 143.079 35.2267 143.831 34.4C144.609 33.5733 144.999 32.3333 144.999 30.68V30.24C144.999 29.7867 145.012 29.32 145.039 28.84C145.093 28.36 145.133 27.9333 145.16 27.56H144.999C144.247 28.7067 143.347 29.5333 142.3 30.04C141.253 30.5467 140.071 30.8 138.756 30.8C136.151 30.8 134.11 29.8133 132.634 27.84C131.184 25.84 130.459 23.0667 130.459 19.52C130.459 17.12 130.794 15.08 131.466 13.4C132.137 11.6933 133.103 10.4 134.365 9.52C135.654 8.61333 137.171 8.16 138.917 8.16ZM140.81 13C139.87 13 139.078 13.2533 138.433 13.76C137.816 14.24 137.346 14.9733 137.024 15.96C136.728 16.92 136.581 18.1333 136.581 19.6C136.581 21.7867 136.93 23.4267 137.628 24.52C138.326 25.5867 139.414 26.12 140.89 26.12C141.669 26.12 142.34 26.0267 142.904 25.84C143.468 25.6267 143.925 25.2933 144.274 24.84C144.65 24.36 144.932 23.7467 145.12 23C145.307 22.2533 145.401 21.3467 145.401 20.28V19.56C145.401 17.9867 145.24 16.72 144.918 15.76C144.596 14.8 144.099 14.1067 143.428 13.68C142.757 13.2267 141.884 13 140.81 13Z" fill="#fff"/>
  <path fill-rule="evenodd" clip-rule="evenodd" d="M10.6136 2.29189C4.7519 2.29189 0 7.03562 0 12.8873C0 14.8443 0.3837 16.8655 1.4848 18.3223L10.6136 30.4L19.7424 18.3223C20.7426 16.9991 21.2272 14.6599 21.2272 12.8873C21.2273 7.03562 16.4754 2.29189 10.6136 2.29189ZM5.30681 9.31891L6.4861 16.3459H14.7411L15.9204 9.31891L12.6774 12.2468L10.6136 8.73333L8.54986 12.2468L5.30681 9.31891Z" fill="#fff"/>
</svg>